<?xml version="1.0" encoding="utf-8" standalone="no"?>
<!DOCTYPE svg PUBLIC "-//W3C//DTD SVG 1.1//EN"
  "http://www.w3.org/Graphics/SVG/1.1/DTD/svg11.dtd">
<svg xmlns:xlink="http://www.w3.org/1999/xlink" width="830.188625pt" height="623.443392pt" viewBox="0 0 830.188625 623.443392" xmlns="http://www.w3.org/2000/svg" version="1.1">
 <metadata>
  <rdf:RDF xmlns:dc="http://purl.org/dc/elements/1.1/" xmlns:cc="http://creativecommons.org/ns#" xmlns:rdf="http://www.w3.org/1999/02/22-rdf-syntax-ns#">
   <cc:Work>
    <dc:type rdf:resource="http://purl.org/dc/dcmitype/StillImage"/>
    <dc:date>2022-06-24T11:31:18.442418</dc:date>
    <dc:format>image/svg+xml</dc:format>
    <dc:creator>
     <cc:Agent>
      <dc:title>Matplotlib v3.5.2, https://matplotlib.org/</dc:title>
     </cc:Agent>
    </dc:creator>
   </cc:Work>
  </rdf:RDF>
 </metadata>
 <defs>
  <style type="text/css">*{stroke-linejoin: round; stroke-linecap: butt}</style>
 </defs>
 <g id="figure_1">
  <g id="patch_1">
   <path d="M 0 623.443392 
L 830.188625 623.443392 
L 830.188625 0 
L 0 0 
z
" style="fill: #ffffff"/>
  </g>
  <g id="axes_1">
   <g id="line2d_1">
    <path d="M 86.682435 43.5608 
L 818.443525 43.5608 
" clip-path="url(#p2f1cd9e347)" style="fill: none; stroke: #000000; stroke-width: 2; stroke-linecap: square"/>
   </g>
   <g id="line2d_2">
    <path d="M 86.682435 89.011799 
L 818.443525 89.011799 
" clip-path="url(#p2f1cd9e347)" style="fill: none; stroke: #000000; stroke-width: 2; stroke-linecap: square"/>
   </g>
   <g id="line2d_3">
    <path d="M 86.682435 134.462798 
L 818.443525 134.462798 
" clip-path="url(#p2f1cd9e347)" style="fill: none; stroke: #000000; stroke-width: 2; stroke-linecap: square"/>
   </g>
   <g id="line2d_4">
    <path d="M 86.682435 179.913798 
L 818.443525 179.913798 
" clip-path="url(#p2f1cd9e347)" style="fill: none; stroke: #000000; stroke-width: 2; stroke-linecap: square"/>
   </g>
   <g id="line2d_5">
    <path d="M 86.682435 225.364797 
L 818.443525 225.364797 
" clip-path="url(#p2f1cd9e347)" style="fill: none; stroke: #000000; stroke-width: 2; stroke-linecap: square"/>
   </g>
   <g id="line2d_6">
    <path d="M 86.682435 270.815796 
L 818.443525 270.815796 
" clip-path="url(#p2f1cd9e347)" style="fill: none; stroke: #000000; stroke-width: 2; stroke-linecap: square"/>
   </g>
   <g id="line2d_7">
    <path d="M 86.682435 316.266796 
L 818.443525 316.266796 
" clip-path="url(#p2f1cd9e347)" style="fill: none; stroke: #000000; stroke-width: 2; stroke-linecap: square"/>
   </g>
   <g id="line2d_8">
    <path d="M 86.682435 361.717795 
L 818.443525 361.717795 
" clip-path="url(#p2f1cd9e347)" style="fill: none; stroke: #000000; stroke-width: 2; stroke-linecap: square"/>
   </g>
   <g id="line2d_9">
    <path d="M 86.682435 407.168795 
L 818.443525 407.168795 
" clip-path="url(#p2f1cd9e347)" style="fill: none; stroke: #000000; stroke-width: 2; stroke-linecap: square"/>
   </g>
   <g id="line2d_10">
    <path d="M 86.682435 452.619794 
L 818.443525 452.619794 
" clip-path="url(#p2f1cd9e347)" style="fill: none; stroke: #000000; stroke-width: 2; stroke-linecap: square"/>
   </g>
   <g id="line2d_11">
    <path d="M 86.682435 498.070793 
L 818.443525 498.070793 
" clip-path="url(#p2f1cd9e347)" style="fill: none; stroke: #000000; stroke-width: 2; stroke-linecap: square"/>
   </g>
   <g id="line2d_12">
    <path d="M 86.682435 543.521793 
L 818.443525 543.521793 
" clip-path="url(#p2f1cd9e347)" style="fill: none; stroke: #000000; stroke-width: 2; stroke-linecap: square"/>
   </g>
   <g id="line2d_13">
    <path d="M 86.682435 588.972792 
L 818.443525 588.972792 
" clip-path="url(#p2f1cd9e347)" style="fill: none; stroke: #000000; stroke-width: 2; stroke-linecap: square"/>
   </g>
   <g id="line2d_14">
    <path d="M 224.853473 588.972792 
L 224.853473 43.5608 
" clip-path="url(#p2f1cd9e347)" style="fill: none; stroke: #bb8bff; stroke-width: 2; stroke-linecap: square"/>
   </g>
   <g id="line2d_15">
    <path d="M 315.755472 588.972792 
L 315.755472 89.011799 
" clip-path="url(#p2f1cd9e347)" style="fill: none; stroke: #bb8bff; stroke-width: 2; stroke-linecap: square"/>
   </g>
   <g id="line2d_16">
    <path d="M 406.657471 588.972792 
L 406.657471 134.462798 
" clip-path="url(#p2f1cd9e347)" style="fill: none; stroke: #bb8bff; stroke-width: 2; stroke-linecap: square"/>
   </g>
   <g id="line2d_17">
    <path d="M 497.55947 588.972792 
L 497.55947 179.913798 
" clip-path="url(#p2f1cd9e347)" style="fill: none; stroke: #bb8bff; stroke-width: 2; stroke-linecap: square"/>
   </g>
   <g id="line2d_18">
    <path d="M 588.461469 588.972792 
L 588.461469 225.364797 
" clip-path="url(#p2f1cd9e347)" style="fill: none; stroke: #bb8bff; stroke-width: 2; stroke-linecap: square"/>
   </g>
   <g id="line2d_19">
    <path d="M 679.363467 588.972792 
L 679.363467 270.815796 
" clip-path="url(#p2f1cd9e347)" style="fill: none; stroke: #bb8bff; stroke-width: 2; stroke-linecap: square"/>
   </g>
   <g id="patch_2">
    <path d="M 96.4544 58.332374 
L 125.99755 58.332374 
L 125.99755 28.789225 
L 96.4544 28.789225 
z
" clip-path="url(#p2f1cd9e347)" style="fill: #6fa4ff; stroke: #6fa4ff; stroke-width: 1.5; stroke-linejoin: miter"/>
   </g>
   <g id="patch_3">
    <path d="M 96.4544 103.783374 
L 125.99755 103.783374 
L 125.99755 74.240224 
L 96.4544 74.240224 
z
" clip-path="url(#p2f1cd9e347)" style="fill: #6fa4ff; stroke: #6fa4ff; stroke-width: 1.5; stroke-linejoin: miter"/>
   </g>
   <g id="patch_4">
    <path d="M 96.4544 149.234373 
L 125.99755 149.234373 
L 125.99755 119.691224 
L 96.4544 119.691224 
z
" clip-path="url(#p2f1cd9e347)" style="fill: #6fa4ff; stroke: #6fa4ff; stroke-width: 1.5; stroke-linejoin: miter"/>
   </g>
   <g id="patch_5">
    <path d="M 96.4544 194.685373 
L 125.99755 194.685373 
L 125.99755 165.142223 
L 96.4544 165.142223 
z
" clip-path="url(#p2f1cd9e347)" style="fill: #6fa4ff; stroke: #6fa4ff; stroke-width: 1.5; stroke-linejoin: miter"/>
   </g>
   <g id="patch_6">
    <path d="M 96.4544 240.136372 
L 125.99755 240.136372 
L 125.99755 210.593222 
L 96.4544 210.593222 
z
" clip-path="url(#p2f1cd9e347)" style="fill: #6fa4ff; stroke: #6fa4ff; stroke-width: 1.5; stroke-linejoin: miter"/>
   </g>
   <g id="patch_7">
    <path d="M 96.4544 285.587371 
L 125.99755 285.587371 
L 125.99755 256.044222 
L 96.4544 256.044222 
z
" clip-path="url(#p2f1cd9e347)" style="fill: #6fa4ff; stroke: #6fa4ff; stroke-width: 1.5; stroke-linejoin: miter"/>
   </g>
   <g id="patch_8">
    <path d="M 92.34563 467.391369 
L 130.10632 467.391369 
L 130.10632 301.495221 
L 92.34563 301.495221 
z
" clip-path="url(#p2f1cd9e347)" style="fill: #bb8bff; stroke: #bb8bff; stroke-width: 1.5; stroke-linejoin: miter"/>
   </g>
   <g id="patch_9">
    <path d="M 141.905399 603.744367 
L 171.448549 603.744367 
L 171.448549 392.39722 
L 141.905399 392.39722 
z
" clip-path="url(#p2f1cd9e347)" style="fill: #bb8bff; stroke: #bb8bff; stroke-width: 1.5; stroke-linejoin: miter"/>
   </g>
   <g id="patch_10">
    <path d="M 224.853473 47.992272 
C 226.028714 47.992272 227.155977 47.525344 227.986998 46.694324 
C 228.818018 45.863303 229.284946 44.73604 229.284946 43.5608 
C 229.284946 42.385559 228.818018 41.258296 227.986998 40.427275 
C 227.155977 39.596255 226.028714 39.129327 224.853473 39.129327 
C 223.678233 39.129327 222.550969 39.596255 221.719949 40.427275 
C 220.888929 41.258296 220.422001 42.385559 220.422001 43.5608 
C 220.422001 44.73604 220.888929 45.863303 221.719949 46.694324 
C 222.550969 47.525344 223.678233 47.992272 224.853473 47.992272 
z
" clip-path="url(#p2f1cd9e347)" style="fill: #bb8bff; stroke: #bb8bff; stroke-width: 1.5; stroke-linejoin: miter"/>
   </g>
   <g id="patch_11">
    <path d="M 203.605131 603.744367 
L 246.101816 603.744367 
L 246.101816 301.495221 
L 203.605131 301.495221 
z
" clip-path="url(#p2f1cd9e347)" style="fill: #bb8bff; stroke: #bb8bff; stroke-width: 1.5; stroke-linejoin: miter"/>
   </g>
   <g id="patch_12">
    <path d="M 315.755472 93.443271 
C 316.930712 93.443271 318.057976 92.976343 318.888996 92.145323 
C 319.720017 91.314303 320.186945 90.187039 320.186945 89.011799 
C 320.186945 87.836559 319.720017 86.709295 318.888996 85.878275 
C 318.057976 85.047254 316.930712 84.580326 315.755472 84.580326 
C 314.580232 84.580326 313.452968 85.047254 312.621948 85.878275 
C 311.790928 86.709295 311.324 87.836559 311.324 89.011799 
C 311.324 90.187039 311.790928 91.314303 312.621948 92.145323 
C 313.452968 92.976343 314.580232 93.443271 315.755472 93.443271 
z
" clip-path="url(#p2f1cd9e347)" style="fill: #bb8bff; stroke: #bb8bff; stroke-width: 1.5; stroke-linejoin: miter"/>
   </g>
   <g id="patch_13">
    <path d="M 294.459406 603.744367 
L 337.051538 603.744367 
L 337.051538 301.495221 
L 294.459406 301.495221 
z
" clip-path="url(#p2f1cd9e347)" style="fill: #bb8bff; stroke: #bb8bff; stroke-width: 1.5; stroke-linejoin: miter"/>
   </g>
   <g id="patch_14">
    <path d="M 406.657471 138.894271 
C 407.832711 138.894271 408.959975 138.427343 409.790995 137.596323 
C 410.622015 136.765302 411.088943 135.638039 411.088943 134.462798 
C 411.088943 133.287558 410.622015 132.160294 409.790995 131.329274 
C 408.959975 130.498254 407.832711 130.031326 406.657471 130.031326 
C 405.482231 130.031326 404.354967 130.498254 403.523947 131.329274 
C 402.692926 132.160294 402.225999 133.287558 402.225999 134.462798 
C 402.225999 135.638039 402.692926 136.765302 403.523947 137.596323 
C 404.354967 138.427343 405.482231 138.894271 406.657471 138.894271 
z
" clip-path="url(#p2f1cd9e347)" style="fill: #bb8bff; stroke: #bb8bff; stroke-width: 1.5; stroke-linejoin: miter"/>
   </g>
   <g id="patch_15">
    <path d="M 385.361405 603.744367 
L 427.953537 603.744367 
L 427.953537 301.495221 
L 385.361405 301.495221 
z
" clip-path="url(#p2f1cd9e347)" style="fill: #bb8bff; stroke: #bb8bff; stroke-width: 1.5; stroke-linejoin: miter"/>
   </g>
   <g id="patch_16">
    <path d="M 497.55947 184.34527 
C 498.73471 184.34527 499.861974 183.878342 500.692994 183.047322 
C 501.524014 182.216302 501.990942 181.089038 501.990942 179.913798 
C 501.990942 178.738557 501.524014 177.611294 500.692994 176.780273 
C 499.861974 175.949253 498.73471 175.482325 497.55947 175.482325 
C 496.38423 175.482325 495.256966 175.949253 494.425946 176.780273 
C 493.594925 177.611294 493.127997 178.738557 493.127997 179.913798 
C 493.127997 181.089038 493.594925 182.216302 494.425946 183.047322 
C 495.256966 183.878342 496.38423 184.34527 497.55947 184.34527 
z
" clip-path="url(#p2f1cd9e347)" style="fill: #bb8bff; stroke: #bb8bff; stroke-width: 1.5; stroke-linejoin: miter"/>
   </g>
   <g id="patch_17">
    <path d="M 476.311128 603.744367 
L 518.807812 603.744367 
L 518.807812 301.495221 
L 476.311128 301.495221 
z
" clip-path="url(#p2f1cd9e347)" style="fill: #bb8bff; stroke: #bb8bff; stroke-width: 1.5; stroke-linejoin: miter"/>
   </g>
   <g id="patch_18">
    <path d="M 588.461469 229.79627 
C 589.636709 229.79627 590.763972 229.329342 591.594993 228.498321 
C 592.426013 227.667301 592.892941 226.540037 592.892941 225.364797 
C 592.892941 224.189557 592.426013 223.062293 591.594993 222.231273 
C 590.763972 221.400253 589.636709 220.933325 588.461469 220.933325 
C 587.286228 220.933325 586.158965 221.400253 585.327944 222.231273 
C 584.496924 223.062293 584.029996 224.189557 584.029996 225.364797 
C 584.029996 226.540037 584.496924 227.667301 585.327944 228.498321 
C 586.158965 229.329342 587.286228 229.79627 588.461469 229.79627 
z
" clip-path="url(#p2f1cd9e347)" style="fill: #bb8bff; stroke: #bb8bff; stroke-width: 1.5; stroke-linejoin: miter"/>
   </g>
   <g id="patch_19">
    <path d="M 562.904372 603.744367 
L 614.018565 603.744367 
L 614.018565 301.495221 
L 562.904372 301.495221 
z
" clip-path="url(#p2f1cd9e347)" style="fill: #bb8bff; stroke: #bb8bff; stroke-width: 1.5; stroke-linejoin: miter"/>
   </g>
   <g id="patch_20">
    <path d="M 679.363467 275.247269 
C 680.538708 275.247269 681.665971 274.780341 682.496992 273.949321 
C 683.328012 273.1183 683.79494 271.991037 683.79494 270.815796 
C 683.79494 269.640556 683.328012 268.513293 682.496992 267.682272 
C 681.665971 266.851252 680.538708 266.384324 679.363467 266.384324 
C 678.188227 266.384324 677.060963 266.851252 676.229943 267.682272 
C 675.398923 268.513293 674.931995 269.640556 674.931995 270.815796 
C 674.931995 271.991037 675.398923 273.1183 676.229943 273.949321 
C 677.060963 274.780341 678.188227 275.247269 679.363467 275.247269 
z
" clip-path="url(#p2f1cd9e347)" style="fill: #bb8bff; stroke: #bb8bff; stroke-width: 1.5; stroke-linejoin: miter"/>
   </g>
   <g id="patch_21">
    <path d="M 653.710923 603.744367 
L 705.016011 603.744367 
L 705.016011 301.495221 
L 653.710923 301.495221 
z
" clip-path="url(#p2f1cd9e347)" style="fill: #bb8bff; stroke: #bb8bff; stroke-width: 1.5; stroke-linejoin: miter"/>
   </g>
   <g id="patch_22">
    <path d="M 737.986166 285.587371 
L 802.544766 285.587371 
L 802.544766 28.789225 
L 737.986166 28.789225 
z
" clip-path="url(#p2f1cd9e347)" style="fill: #bb8bff; stroke: #bb8bff; stroke-width: 1.5; stroke-linejoin: miter"/>
   </g>
   <g id="text_1">
    <g clip-path="url(#p2f1cd9e347)">
     <!-- ${eval}_{0}$ -->
     <g transform="translate(35.667235 48.044784)scale(0.1625 -0.1625)">
      <defs>
       <path id="DejaVuSans-Oblique-65" d="M 3078 2063 
Q 3088 2113 3092 2166 
Q 3097 2219 3097 2272 
Q 3097 2653 2873 2875 
Q 2650 3097 2266 3097 
Q 1838 3097 1509 2826 
Q 1181 2556 1013 2059 
L 3078 2063 
z
M 3578 1613 
L 903 1613 
Q 884 1494 878 1425 
Q 872 1356 872 1306 
Q 872 872 1139 634 
Q 1406 397 1894 397 
Q 2269 397 2603 481 
Q 2938 566 3225 728 
L 3116 159 
Q 2806 34 2476 -28 
Q 2147 -91 1806 -91 
Q 1078 -91 686 257 
Q 294 606 294 1247 
Q 294 1794 489 2264 
Q 684 2734 1063 3103 
Q 1306 3334 1642 3459 
Q 1978 3584 2356 3584 
Q 2950 3584 3301 3228 
Q 3653 2872 3653 2272 
Q 3653 2128 3634 1964 
Q 3616 1800 3578 1613 
z
" transform="scale(0.015625)"/>
       <path id="DejaVuSans-Oblique-76" d="M 459 3500 
L 1069 3500 
L 1581 525 
L 3256 3500 
L 3866 3500 
L 1875 0 
L 1100 0 
L 459 3500 
z
" transform="scale(0.015625)"/>
       <path id="DejaVuSans-Oblique-61" d="M 3438 1997 
L 3047 0 
L 2472 0 
L 2578 531 
Q 2325 219 2001 64 
Q 1678 -91 1281 -91 
Q 834 -91 548 182 
Q 263 456 263 884 
Q 263 1497 752 1853 
Q 1241 2209 2100 2209 
L 2900 2209 
L 2931 2363 
Q 2938 2388 2941 2417 
Q 2944 2447 2944 2509 
Q 2944 2788 2717 2942 
Q 2491 3097 2081 3097 
Q 1800 3097 1504 3025 
Q 1209 2953 897 2809 
L 997 3341 
Q 1322 3463 1633 3523 
Q 1944 3584 2234 3584 
Q 2853 3584 3176 3315 
Q 3500 3047 3500 2534 
Q 3500 2431 3484 2292 
Q 3469 2153 3438 1997 
z
M 2816 1759 
L 2241 1759 
Q 1534 1759 1195 1570 
Q 856 1381 856 984 
Q 856 709 1029 553 
Q 1203 397 1509 397 
Q 1978 397 2328 733 
Q 2678 1069 2791 1631 
L 2816 1759 
z
" transform="scale(0.015625)"/>
       <path id="DejaVuSans-Oblique-6c" d="M 1172 4863 
L 1747 4863 
L 800 0 
L 225 0 
L 1172 4863 
z
" transform="scale(0.015625)"/>
       <path id="DejaVuSans-30" d="M 2034 4250 
Q 1547 4250 1301 3770 
Q 1056 3291 1056 2328 
Q 1056 1369 1301 889 
Q 1547 409 2034 409 
Q 2525 409 2770 889 
Q 3016 1369 3016 2328 
Q 3016 3291 2770 3770 
Q 2525 4250 2034 4250 
z
M 2034 4750 
Q 2819 4750 3233 4129 
Q 3647 3509 3647 2328 
Q 3647 1150 3233 529 
Q 2819 -91 2034 -91 
Q 1250 -91 836 529 
Q 422 1150 422 2328 
Q 422 3509 836 4129 
Q 1250 4750 2034 4750 
z
" transform="scale(0.015625)"/>
      </defs>
      <use xlink:href="#DejaVuSans-Oblique-65" transform="translate(0 0.015625)"/>
      <use xlink:href="#DejaVuSans-Oblique-76" transform="translate(61.523438 0.015625)"/>
      <use xlink:href="#DejaVuSans-Oblique-61" transform="translate(120.703125 0.015625)"/>
      <use xlink:href="#DejaVuSans-Oblique-6c" transform="translate(181.982422 0.015625)"/>
      <use xlink:href="#DejaVuSans-30" transform="translate(209.765625 -16.390625)scale(0.7)"/>
     </g>
    </g>
   </g>
   <g id="text_2">
    <g clip-path="url(#p2f1cd9e347)">
     <!-- ${eval}_{1}$ -->
     <g transform="translate(35.667235 93.495783)scale(0.1625 -0.1625)">
      <defs>
       <path id="DejaVuSans-31" d="M 794 531 
L 1825 531 
L 1825 4091 
L 703 3866 
L 703 4441 
L 1819 4666 
L 2450 4666 
L 2450 531 
L 3481 531 
L 3481 0 
L 794 0 
L 794 531 
z
" transform="scale(0.015625)"/>
      </defs>
      <use xlink:href="#DejaVuSans-Oblique-65" transform="translate(0 0.015625)"/>
      <use xlink:href="#DejaVuSans-Oblique-76" transform="translate(61.523438 0.015625)"/>
      <use xlink:href="#DejaVuSans-Oblique-61" transform="translate(120.703125 0.015625)"/>
      <use xlink:href="#DejaVuSans-Oblique-6c" transform="translate(181.982422 0.015625)"/>
      <use xlink:href="#DejaVuSans-31" transform="translate(209.765625 -16.390625)scale(0.7)"/>
     </g>
    </g>
   </g>
   <g id="text_3">
    <g clip-path="url(#p2f1cd9e347)">
     <!-- ${eval}_{2}$ -->
     <g transform="translate(35.667235 138.946783)scale(0.1625 -0.1625)">
      <defs>
       <path id="DejaVuSans-32" d="M 1228 531 
L 3431 531 
L 3431 0 
L 469 0 
L 469 531 
Q 828 903 1448 1529 
Q 2069 2156 2228 2338 
Q 2531 2678 2651 2914 
Q 2772 3150 2772 3378 
Q 2772 3750 2511 3984 
Q 2250 4219 1831 4219 
Q 1534 4219 1204 4116 
Q 875 4013 500 3803 
L 500 4441 
Q 881 4594 1212 4672 
Q 1544 4750 1819 4750 
Q 2544 4750 2975 4387 
Q 3406 4025 3406 3419 
Q 3406 3131 3298 2873 
Q 3191 2616 2906 2266 
Q 2828 2175 2409 1742 
Q 1991 1309 1228 531 
z
" transform="scale(0.015625)"/>
      </defs>
      <use xlink:href="#DejaVuSans-Oblique-65" transform="translate(0 0.015625)"/>
      <use xlink:href="#DejaVuSans-Oblique-76" transform="translate(61.523438 0.015625)"/>
      <use xlink:href="#DejaVuSans-Oblique-61" transform="translate(120.703125 0.015625)"/>
      <use xlink:href="#DejaVuSans-Oblique-6c" transform="translate(181.982422 0.015625)"/>
      <use xlink:href="#DejaVuSans-32" transform="translate(209.765625 -16.390625)scale(0.7)"/>
     </g>
    </g>
   </g>
   <g id="text_4">
    <g clip-path="url(#p2f1cd9e347)">
     <!-- ${eval}_{3}$ -->
     <g transform="translate(35.667235 184.397782)scale(0.1625 -0.1625)">
      <defs>
       <path id="DejaVuSans-33" d="M 2597 2516 
Q 3050 2419 3304 2112 
Q 3559 1806 3559 1356 
Q 3559 666 3084 287 
Q 2609 -91 1734 -91 
Q 1441 -91 1130 -33 
Q 819 25 488 141 
L 488 750 
Q 750 597 1062 519 
Q 1375 441 1716 441 
Q 2309 441 2620 675 
Q 2931 909 2931 1356 
Q 2931 1769 2642 2001 
Q 2353 2234 1838 2234 
L 1294 2234 
L 1294 2753 
L 1863 2753 
Q 2328 2753 2575 2939 
Q 2822 3125 2822 3475 
Q 2822 3834 2567 4026 
Q 2313 4219 1838 4219 
Q 1578 4219 1281 4162 
Q 984 4106 628 3988 
L 628 4550 
Q 988 4650 1302 4700 
Q 1616 4750 1894 4750 
Q 2613 4750 3031 4423 
Q 3450 4097 3450 3541 
Q 3450 3153 3228 2886 
Q 3006 2619 2597 2516 
z
" transform="scale(0.015625)"/>
      </defs>
      <use xlink:href="#DejaVuSans-Oblique-65" transform="translate(0 0.015625)"/>
      <use xlink:href="#DejaVuSans-Oblique-76" transform="translate(61.523438 0.015625)"/>
      <use xlink:href="#DejaVuSans-Oblique-61" transform="translate(120.703125 0.015625)"/>
      <use xlink:href="#DejaVuSans-Oblique-6c" transform="translate(181.982422 0.015625)"/>
      <use xlink:href="#DejaVuSans-33" transform="translate(209.765625 -16.390625)scale(0.7)"/>
     </g>
    </g>
   </g>
   <g id="text_5">
    <g clip-path="url(#p2f1cd9e347)">
     <!-- ${eval}_{4}$ -->
     <g transform="translate(35.667235 229.848781)scale(0.1625 -0.1625)">
      <defs>
       <path id="DejaVuSans-34" d="M 2419 4116 
L 825 1625 
L 2419 1625 
L 2419 4116 
z
M 2253 4666 
L 3047 4666 
L 3047 1625 
L 3713 1625 
L 3713 1100 
L 3047 1100 
L 3047 0 
L 2419 0 
L 2419 1100 
L 313 1100 
L 313 1709 
L 2253 4666 
z
" transform="scale(0.015625)"/>
      </defs>
      <use xlink:href="#DejaVuSans-Oblique-65" transform="translate(0 0.015625)"/>
      <use xlink:href="#DejaVuSans-Oblique-76" transform="translate(61.523438 0.015625)"/>
      <use xlink:href="#DejaVuSans-Oblique-61" transform="translate(120.703125 0.015625)"/>
      <use xlink:href="#DejaVuSans-Oblique-6c" transform="translate(181.982422 0.015625)"/>
      <use xlink:href="#DejaVuSans-34" transform="translate(209.765625 -16.390625)scale(0.7)"/>
     </g>
    </g>
   </g>
   <g id="text_6">
    <g clip-path="url(#p2f1cd9e347)">
     <!-- ${eval}_{5}$ -->
     <g transform="translate(35.667235 275.299781)scale(0.1625 -0.1625)">
      <defs>
       <path id="DejaVuSans-35" d="M 691 4666 
L 3169 4666 
L 3169 4134 
L 1269 4134 
L 1269 2991 
Q 1406 3038 1543 3061 
Q 1681 3084 1819 3084 
Q 2600 3084 3056 2656 
Q 3513 2228 3513 1497 
Q 3513 744 3044 326 
Q 2575 -91 1722 -91 
Q 1428 -91 1123 -41 
Q 819 9 494 109 
L 494 744 
Q 775 591 1075 516 
Q 1375 441 1709 441 
Q 2250 441 2565 725 
Q 2881 1009 2881 1497 
Q 2881 1984 2565 2268 
Q 2250 2553 1709 2553 
Q 1456 2553 1204 2497 
Q 953 2441 691 2322 
L 691 4666 
z
" transform="scale(0.015625)"/>
      </defs>
      <use xlink:href="#DejaVuSans-Oblique-65" transform="translate(0 0.015625)"/>
      <use xlink:href="#DejaVuSans-Oblique-76" transform="translate(61.523438 0.015625)"/>
      <use xlink:href="#DejaVuSans-Oblique-61" transform="translate(120.703125 0.015625)"/>
      <use xlink:href="#DejaVuSans-Oblique-6c" transform="translate(181.982422 0.015625)"/>
      <use xlink:href="#DejaVuSans-35" transform="translate(209.765625 -16.390625)scale(0.7)"/>
     </g>
    </g>
   </g>
   <g id="text_7">
    <g clip-path="url(#p2f1cd9e347)">
     <!-- ${q}_{0}$ -->
     <g transform="translate(59.554735 320.717772)scale(0.1625 -0.1625)">
      <defs>
       <path id="DejaVuSans-Oblique-71" d="M 2669 525 
Q 2438 222 2123 65 
Q 1809 -91 1428 -91 
Q 897 -91 595 267 
Q 294 625 294 1253 
Q 294 1759 480 2231 
Q 666 2703 1013 3078 
Q 1238 3322 1530 3453 
Q 1822 3584 2144 3584 
Q 2531 3584 2781 3431 
Q 3031 3278 3144 2969 
L 3244 3494 
L 3822 3494 
L 2888 -1319 
L 2309 -1319 
L 2669 525 
z
M 891 1338 
Q 891 875 1084 633 
Q 1278 391 1644 391 
Q 2188 391 2572 911 
Q 2956 1431 2956 2175 
Q 2956 2625 2757 2864 
Q 2559 3103 2188 3103 
Q 1916 3103 1684 2976 
Q 1453 2850 1281 2606 
Q 1100 2350 995 2006 
Q 891 1663 891 1338 
z
" transform="scale(0.015625)"/>
      </defs>
      <use xlink:href="#DejaVuSans-Oblique-71"/>
      <use xlink:href="#DejaVuSans-30" transform="translate(63.476562 -16.40625)scale(0.7)"/>
     </g>
    </g>
   </g>
   <g id="text_8">
    <g clip-path="url(#p2f1cd9e347)">
     <!-- ${q}_{1}$ -->
     <g transform="translate(59.554735 366.168772)scale(0.1625 -0.1625)">
      <use xlink:href="#DejaVuSans-Oblique-71"/>
      <use xlink:href="#DejaVuSans-31" transform="translate(63.476562 -16.40625)scale(0.7)"/>
     </g>
    </g>
   </g>
   <g id="text_9">
    <g clip-path="url(#p2f1cd9e347)">
     <!-- ${q}_{2}$ -->
     <g transform="translate(59.554735 411.619771)scale(0.1625 -0.1625)">
      <use xlink:href="#DejaVuSans-Oblique-71"/>
      <use xlink:href="#DejaVuSans-32" transform="translate(63.476562 -16.40625)scale(0.7)"/>
     </g>
    </g>
   </g>
   <g id="text_10">
    <g clip-path="url(#p2f1cd9e347)">
     <!-- ${q}_{3}$ -->
     <g transform="translate(59.554735 457.070771)scale(0.1625 -0.1625)">
      <use xlink:href="#DejaVuSans-Oblique-71"/>
      <use xlink:href="#DejaVuSans-33" transform="translate(63.476562 -16.40625)scale(0.7)"/>
     </g>
    </g>
   </g>
   <g id="text_11">
    <g clip-path="url(#p2f1cd9e347)">
     <!-- ${q}_{4}$ -->
     <g transform="translate(59.554735 502.52177)scale(0.1625 -0.1625)">
      <use xlink:href="#DejaVuSans-Oblique-71"/>
      <use xlink:href="#DejaVuSans-34" transform="translate(63.476562 -16.40625)scale(0.7)"/>
     </g>
    </g>
   </g>
   <g id="text_12">
    <g clip-path="url(#p2f1cd9e347)">
     <!-- ${q}_{5}$ -->
     <g transform="translate(59.554735 547.972769)scale(0.1625 -0.1625)">
      <use xlink:href="#DejaVuSans-Oblique-71"/>
      <use xlink:href="#DejaVuSans-35" transform="translate(63.476562 -16.40625)scale(0.7)"/>
     </g>
    </g>
   </g>
   <g id="text_13">
    <g clip-path="url(#p2f1cd9e347)">
     <!-- ${q}_{6}$ -->
     <g transform="translate(59.554735 593.423769)scale(0.1625 -0.1625)">
      <defs>
       <path id="DejaVuSans-36" d="M 2113 2584 
Q 1688 2584 1439 2293 
Q 1191 2003 1191 1497 
Q 1191 994 1439 701 
Q 1688 409 2113 409 
Q 2538 409 2786 701 
Q 3034 994 3034 1497 
Q 3034 2003 2786 2293 
Q 2538 2584 2113 2584 
z
M 3366 4563 
L 3366 3988 
Q 3128 4100 2886 4159 
Q 2644 4219 2406 4219 
Q 1781 4219 1451 3797 
Q 1122 3375 1075 2522 
Q 1259 2794 1537 2939 
Q 1816 3084 2150 3084 
Q 2853 3084 3261 2657 
Q 3669 2231 3669 1497 
Q 3669 778 3244 343 
Q 2819 -91 2113 -91 
Q 1303 -91 875 529 
Q 447 1150 447 2328 
Q 447 3434 972 4092 
Q 1497 4750 2381 4750 
Q 2619 4750 2861 4703 
Q 3103 4656 3366 4563 
z
" transform="scale(0.015625)"/>
      </defs>
      <use xlink:href="#DejaVuSans-Oblique-71"/>
      <use xlink:href="#DejaVuSans-36" transform="translate(63.476562 -16.40625)scale(0.7)"/>
     </g>
    </g>
   </g>
   <g id="text_14">
    <g clip-path="url(#p2f1cd9e347)">
     <!-- H -->
     <g transform="translate(106.337772 47.147987)scale(0.13 -0.13)">
      <defs>
       <path id="DejaVuSans-48" d="M 628 4666 
L 1259 4666 
L 1259 2753 
L 3553 2753 
L 3553 4666 
L 4184 4666 
L 4184 0 
L 3553 0 
L 3553 2222 
L 1259 2222 
L 1259 0 
L 628 0 
L 628 4666 
z
" transform="scale(0.015625)"/>
      </defs>
      <use xlink:href="#DejaVuSans-48"/>
     </g>
    </g>
   </g>
   <g id="text_15">
    <g clip-path="url(#p2f1cd9e347)">
     <!-- H -->
     <g transform="translate(106.337772 92.598986)scale(0.13 -0.13)">
      <use xlink:href="#DejaVuSans-48"/>
     </g>
    </g>
   </g>
   <g id="text_16">
    <g clip-path="url(#p2f1cd9e347)">
     <!-- H -->
     <g transform="translate(106.337772 138.049986)scale(0.13 -0.13)">
      <use xlink:href="#DejaVuSans-48"/>
     </g>
    </g>
   </g>
   <g id="text_17">
    <g clip-path="url(#p2f1cd9e347)">
     <!-- H -->
     <g transform="translate(106.337772 183.500985)scale(0.13 -0.13)">
      <use xlink:href="#DejaVuSans-48"/>
     </g>
    </g>
   </g>
   <g id="text_18">
    <g clip-path="url(#p2f1cd9e347)">
     <!-- H -->
     <g transform="translate(106.337772 228.951985)scale(0.13 -0.13)">
      <use xlink:href="#DejaVuSans-48"/>
     </g>
    </g>
   </g>
   <g id="text_19">
    <g clip-path="url(#p2f1cd9e347)">
     <!-- H -->
     <g transform="translate(106.337772 274.402984)scale(0.13 -0.13)">
      <use xlink:href="#DejaVuSans-48"/>
     </g>
    </g>
   </g>
   <g id="text_20">
    <g clip-path="url(#p2f1cd9e347)">
     <!-- 0 -->
     <g transform="translate(95.5272 319.853983)scale(0.13 -0.13)">
      <use xlink:href="#DejaVuSans-30"/>
     </g>
    </g>
   </g>
   <g id="text_21">
    <g clip-path="url(#p2f1cd9e347)">
     <!-- 1 -->
     <g transform="translate(95.5272 365.304983)scale(0.13 -0.13)">
      <use xlink:href="#DejaVuSans-31"/>
     </g>
    </g>
   </g>
   <g id="text_22">
    <g clip-path="url(#p2f1cd9e347)">
     <!-- 2 -->
     <g transform="translate(95.5272 410.755982)scale(0.13 -0.13)">
      <use xlink:href="#DejaVuSans-32"/>
     </g>
    </g>
   </g>
   <g id="text_23">
    <g clip-path="url(#p2f1cd9e347)">
     <!-- 3 -->
     <g transform="translate(95.5272 456.206982)scale(0.13 -0.13)">
      <use xlink:href="#DejaVuSans-33"/>
     </g>
    </g>
   </g>
   <g id="text_24">
    <g clip-path="url(#p2f1cd9e347)">
     <!-- P(X) -->
     <g transform="translate(102.781757 388.030482)scale(0.13 -0.13)">
      <defs>
       <path id="DejaVuSans-50" d="M 1259 4147 
L 1259 2394 
L 2053 2394 
Q 2494 2394 2734 2622 
Q 2975 2850 2975 3272 
Q 2975 3691 2734 3919 
Q 2494 4147 2053 4147 
L 1259 4147 
z
M 628 4666 
L 2053 4666 
Q 2838 4666 3239 4311 
Q 3641 3956 3641 3272 
Q 3641 2581 3239 2228 
Q 2838 1875 2053 1875 
L 1259 1875 
L 1259 0 
L 628 0 
L 628 4666 
z
" transform="scale(0.015625)"/>
       <path id="DejaVuSans-28" d="M 1984 4856 
Q 1566 4138 1362 3434 
Q 1159 2731 1159 2009 
Q 1159 1288 1364 580 
Q 1569 -128 1984 -844 
L 1484 -844 
Q 1016 -109 783 600 
Q 550 1309 550 2009 
Q 550 2706 781 3412 
Q 1013 4119 1484 4856 
L 1984 4856 
z
" transform="scale(0.015625)"/>
       <path id="DejaVuSans-58" d="M 403 4666 
L 1081 4666 
L 2241 2931 
L 3406 4666 
L 4084 4666 
L 2584 2425 
L 4184 0 
L 3506 0 
L 2194 1984 
L 872 0 
L 191 0 
L 1856 2491 
L 403 4666 
z
" transform="scale(0.015625)"/>
       <path id="DejaVuSans-29" d="M 513 4856 
L 1013 4856 
Q 1481 4119 1714 3412 
Q 1947 2706 1947 2009 
Q 1947 1309 1714 600 
Q 1481 -109 1013 -844 
L 513 -844 
Q 928 -128 1133 580 
Q 1338 1288 1338 2009 
Q 1338 2731 1133 3434 
Q 928 4138 513 4856 
z
" transform="scale(0.015625)"/>
      </defs>
      <use xlink:href="#DejaVuSans-50"/>
      <use xlink:href="#DejaVuSans-28" x="60.302734"/>
      <use xlink:href="#DejaVuSans-58" x="99.316406"/>
      <use xlink:href="#DejaVuSans-29" x="167.822266"/>
     </g>
    </g>
   </g>
   <g id="text_25">
    <g clip-path="url(#p2f1cd9e347)">
     <!-- 0 -->
     <g transform="translate(145.086969 410.755982)scale(0.13 -0.13)">
      <use xlink:href="#DejaVuSans-30"/>
     </g>
    </g>
   </g>
   <g id="text_26">
    <g clip-path="url(#p2f1cd9e347)">
     <!-- 1 -->
     <g transform="translate(145.086969 456.206982)scale(0.13 -0.13)">
      <use xlink:href="#DejaVuSans-31"/>
     </g>
    </g>
   </g>
   <g id="text_27">
    <g clip-path="url(#p2f1cd9e347)">
     <!-- 2 -->
     <g transform="translate(145.086969 501.657981)scale(0.13 -0.13)">
      <use xlink:href="#DejaVuSans-32"/>
     </g>
    </g>
   </g>
   <g id="text_28">
    <g clip-path="url(#p2f1cd9e347)">
     <!-- 3 -->
     <g transform="translate(145.086969 547.10898)scale(0.13 -0.13)">
      <use xlink:href="#DejaVuSans-33"/>
     </g>
    </g>
   </g>
   <g id="text_29">
    <g clip-path="url(#p2f1cd9e347)">
     <!-- 4 -->
     <g transform="translate(145.086969 592.55998)scale(0.13 -0.13)">
      <use xlink:href="#DejaVuSans-34"/>
     </g>
    </g>
   </g>
   <g id="text_30">
    <g clip-path="url(#p2f1cd9e347)">
     <!-- F -->
     <g transform="translate(157.938069 501.657981)scale(0.13 -0.13)">
      <defs>
       <path id="DejaVuSans-46" d="M 628 4666 
L 3309 4666 
L 3309 4134 
L 1259 4134 
L 1259 2759 
L 3109 2759 
L 3109 2228 
L 1259 2228 
L 1259 0 
L 628 0 
L 628 4666 
z
" transform="scale(0.015625)"/>
      </defs>
      <use xlink:href="#DejaVuSans-46"/>
     </g>
    </g>
   </g>
   <g id="text_31">
    <g clip-path="url(#p2f1cd9e347)">
     <!-- 0 -->
     <g transform="translate(206.786701 319.853983)scale(0.13 -0.13)">
      <use xlink:href="#DejaVuSans-30"/>
     </g>
    </g>
   </g>
   <g id="text_32">
    <g clip-path="url(#p2f1cd9e347)">
     <!-- 1 -->
     <g transform="translate(206.786701 365.304983)scale(0.13 -0.13)">
      <use xlink:href="#DejaVuSans-31"/>
     </g>
    </g>
   </g>
   <g id="text_33">
    <g clip-path="url(#p2f1cd9e347)">
     <!-- 2 -->
     <g transform="translate(206.786701 410.755982)scale(0.13 -0.13)">
      <use xlink:href="#DejaVuSans-32"/>
     </g>
    </g>
   </g>
   <g id="text_34">
    <g clip-path="url(#p2f1cd9e347)">
     <!-- 3 -->
     <g transform="translate(206.786701 456.206982)scale(0.13 -0.13)">
      <use xlink:href="#DejaVuSans-33"/>
     </g>
    </g>
   </g>
   <g id="text_35">
    <g clip-path="url(#p2f1cd9e347)">
     <!-- 4 -->
     <g transform="translate(206.786701 501.657981)scale(0.13 -0.13)">
      <use xlink:href="#DejaVuSans-34"/>
     </g>
    </g>
   </g>
   <g id="text_36">
    <g clip-path="url(#p2f1cd9e347)">
     <!-- 5 -->
     <g transform="translate(206.786701 547.10898)scale(0.13 -0.13)">
      <use xlink:href="#DejaVuSans-35"/>
     </g>
    </g>
   </g>
   <g id="text_37">
    <g clip-path="url(#p2f1cd9e347)">
     <!-- 6 -->
     <g transform="translate(206.786701 592.55998)scale(0.13 -0.13)">
      <use xlink:href="#DejaVuSans-36"/>
     </g>
    </g>
   </g>
   <g id="text_38">
    <g clip-path="url(#p2f1cd9e347)">
     <!-- Q**1 -->
     <g transform="translate(214.10074 456.206982)scale(0.13 -0.13)">
      <defs>
       <path id="DejaVuSans-51" d="M 2522 4238 
Q 1834 4238 1429 3725 
Q 1025 3213 1025 2328 
Q 1025 1447 1429 934 
Q 1834 422 2522 422 
Q 3209 422 3611 934 
Q 4013 1447 4013 2328 
Q 4013 3213 3611 3725 
Q 3209 4238 2522 4238 
z
M 3406 84 
L 4238 -825 
L 3475 -825 
L 2784 -78 
Q 2681 -84 2626 -87 
Q 2572 -91 2522 -91 
Q 1538 -91 948 567 
Q 359 1225 359 2328 
Q 359 3434 948 4092 
Q 1538 4750 2522 4750 
Q 3503 4750 4090 4092 
Q 4678 3434 4678 2328 
Q 4678 1516 4351 937 
Q 4025 359 3406 84 
z
" transform="scale(0.015625)"/>
       <path id="DejaVuSans-2a" d="M 3009 3897 
L 1888 3291 
L 3009 2681 
L 2828 2375 
L 1778 3009 
L 1778 1831 
L 1422 1831 
L 1422 3009 
L 372 2375 
L 191 2681 
L 1313 3291 
L 191 3897 
L 372 4206 
L 1422 3572 
L 1422 4750 
L 1778 4750 
L 1778 3572 
L 2828 4206 
L 3009 3897 
z
" transform="scale(0.015625)"/>
      </defs>
      <use xlink:href="#DejaVuSans-51"/>
      <use xlink:href="#DejaVuSans-2a" x="78.710938"/>
      <use xlink:href="#DejaVuSans-2a" x="128.710938"/>
      <use xlink:href="#DejaVuSans-31" x="178.710938"/>
     </g>
    </g>
   </g>
   <g id="text_39">
    <g clip-path="url(#p2f1cd9e347)">
     <!-- 0 -->
     <g transform="translate(297.640976 319.853983)scale(0.13 -0.13)">
      <use xlink:href="#DejaVuSans-30"/>
     </g>
    </g>
   </g>
   <g id="text_40">
    <g clip-path="url(#p2f1cd9e347)">
     <!-- 1 -->
     <g transform="translate(297.640976 365.304983)scale(0.13 -0.13)">
      <use xlink:href="#DejaVuSans-31"/>
     </g>
    </g>
   </g>
   <g id="text_41">
    <g clip-path="url(#p2f1cd9e347)">
     <!-- 2 -->
     <g transform="translate(297.640976 410.755982)scale(0.13 -0.13)">
      <use xlink:href="#DejaVuSans-32"/>
     </g>
    </g>
   </g>
   <g id="text_42">
    <g clip-path="url(#p2f1cd9e347)">
     <!-- 3 -->
     <g transform="translate(297.640976 456.206982)scale(0.13 -0.13)">
      <use xlink:href="#DejaVuSans-33"/>
     </g>
    </g>
   </g>
   <g id="text_43">
    <g clip-path="url(#p2f1cd9e347)">
     <!-- 4 -->
     <g transform="translate(297.640976 501.657981)scale(0.13 -0.13)">
      <use xlink:href="#DejaVuSans-34"/>
     </g>
    </g>
   </g>
   <g id="text_44">
    <g clip-path="url(#p2f1cd9e347)">
     <!-- 5 -->
     <g transform="translate(297.640976 547.10898)scale(0.13 -0.13)">
      <use xlink:href="#DejaVuSans-35"/>
     </g>
    </g>
   </g>
   <g id="text_45">
    <g clip-path="url(#p2f1cd9e347)">
     <!-- 6 -->
     <g transform="translate(297.640976 592.55998)scale(0.13 -0.13)">
      <use xlink:href="#DejaVuSans-36"/>
     </g>
    </g>
   </g>
   <g id="text_46">
    <g clip-path="url(#p2f1cd9e347)">
     <!-- Q**2 -->
     <g transform="translate(305.002738 456.206982)scale(0.13 -0.13)">
      <use xlink:href="#DejaVuSans-51"/>
      <use xlink:href="#DejaVuSans-2a" x="78.710938"/>
      <use xlink:href="#DejaVuSans-2a" x="128.710938"/>
      <use xlink:href="#DejaVuSans-32" x="178.710938"/>
     </g>
    </g>
   </g>
   <g id="text_47">
    <g clip-path="url(#p2f1cd9e347)">
     <!-- 0 -->
     <g transform="translate(388.542975 319.853983)scale(0.13 -0.13)">
      <use xlink:href="#DejaVuSans-30"/>
     </g>
    </g>
   </g>
   <g id="text_48">
    <g clip-path="url(#p2f1cd9e347)">
     <!-- 1 -->
     <g transform="translate(388.542975 365.304983)scale(0.13 -0.13)">
      <use xlink:href="#DejaVuSans-31"/>
     </g>
    </g>
   </g>
   <g id="text_49">
    <g clip-path="url(#p2f1cd9e347)">
     <!-- 2 -->
     <g transform="translate(388.542975 410.755982)scale(0.13 -0.13)">
      <use xlink:href="#DejaVuSans-32"/>
     </g>
    </g>
   </g>
   <g id="text_50">
    <g clip-path="url(#p2f1cd9e347)">
     <!-- 3 -->
     <g transform="translate(388.542975 456.206982)scale(0.13 -0.13)">
      <use xlink:href="#DejaVuSans-33"/>
     </g>
    </g>
   </g>
   <g id="text_51">
    <g clip-path="url(#p2f1cd9e347)">
     <!-- 4 -->
     <g transform="translate(388.542975 501.657981)scale(0.13 -0.13)">
      <use xlink:href="#DejaVuSans-34"/>
     </g>
    </g>
   </g>
   <g id="text_52">
    <g clip-path="url(#p2f1cd9e347)">
     <!-- 5 -->
     <g transform="translate(388.542975 547.10898)scale(0.13 -0.13)">
      <use xlink:href="#DejaVuSans-35"/>
     </g>
    </g>
   </g>
   <g id="text_53">
    <g clip-path="url(#p2f1cd9e347)">
     <!-- 6 -->
     <g transform="translate(388.542975 592.55998)scale(0.13 -0.13)">
      <use xlink:href="#DejaVuSans-36"/>
     </g>
    </g>
   </g>
   <g id="text_54">
    <g clip-path="url(#p2f1cd9e347)">
     <!-- Q**4 -->
     <g transform="translate(395.904737 456.206982)scale(0.13 -0.13)">
      <use xlink:href="#DejaVuSans-51"/>
      <use xlink:href="#DejaVuSans-2a" x="78.710938"/>
      <use xlink:href="#DejaVuSans-2a" x="128.710938"/>
      <use xlink:href="#DejaVuSans-34" x="178.710938"/>
     </g>
    </g>
   </g>
   <g id="text_55">
    <g clip-path="url(#p2f1cd9e347)">
     <!-- 0 -->
     <g transform="translate(479.492697 319.853983)scale(0.13 -0.13)">
      <use xlink:href="#DejaVuSans-30"/>
     </g>
    </g>
   </g>
   <g id="text_56">
    <g clip-path="url(#p2f1cd9e347)">
     <!-- 1 -->
     <g transform="translate(479.492697 365.304983)scale(0.13 -0.13)">
      <use xlink:href="#DejaVuSans-31"/>
     </g>
    </g>
   </g>
   <g id="text_57">
    <g clip-path="url(#p2f1cd9e347)">
     <!-- 2 -->
     <g transform="translate(479.492697 410.755982)scale(0.13 -0.13)">
      <use xlink:href="#DejaVuSans-32"/>
     </g>
    </g>
   </g>
   <g id="text_58">
    <g clip-path="url(#p2f1cd9e347)">
     <!-- 3 -->
     <g transform="translate(479.492697 456.206982)scale(0.13 -0.13)">
      <use xlink:href="#DejaVuSans-33"/>
     </g>
    </g>
   </g>
   <g id="text_59">
    <g clip-path="url(#p2f1cd9e347)">
     <!-- 4 -->
     <g transform="translate(479.492697 501.657981)scale(0.13 -0.13)">
      <use xlink:href="#DejaVuSans-34"/>
     </g>
    </g>
   </g>
   <g id="text_60">
    <g clip-path="url(#p2f1cd9e347)">
     <!-- 5 -->
     <g transform="translate(479.492697 547.10898)scale(0.13 -0.13)">
      <use xlink:href="#DejaVuSans-35"/>
     </g>
    </g>
   </g>
   <g id="text_61">
    <g clip-path="url(#p2f1cd9e347)">
     <!-- 6 -->
     <g transform="translate(479.492697 592.55998)scale(0.13 -0.13)">
      <use xlink:href="#DejaVuSans-36"/>
     </g>
    </g>
   </g>
   <g id="text_62">
    <g clip-path="url(#p2f1cd9e347)">
     <!-- Q**8 -->
     <g transform="translate(486.806736 456.206982)scale(0.13 -0.13)">
      <defs>
       <path id="DejaVuSans-38" d="M 2034 2216 
Q 1584 2216 1326 1975 
Q 1069 1734 1069 1313 
Q 1069 891 1326 650 
Q 1584 409 2034 409 
Q 2484 409 2743 651 
Q 3003 894 3003 1313 
Q 3003 1734 2745 1975 
Q 2488 2216 2034 2216 
z
M 1403 2484 
Q 997 2584 770 2862 
Q 544 3141 544 3541 
Q 544 4100 942 4425 
Q 1341 4750 2034 4750 
Q 2731 4750 3128 4425 
Q 3525 4100 3525 3541 
Q 3525 3141 3298 2862 
Q 3072 2584 2669 2484 
Q 3125 2378 3379 2068 
Q 3634 1759 3634 1313 
Q 3634 634 3220 271 
Q 2806 -91 2034 -91 
Q 1263 -91 848 271 
Q 434 634 434 1313 
Q 434 1759 690 2068 
Q 947 2378 1403 2484 
z
M 1172 3481 
Q 1172 3119 1398 2916 
Q 1625 2713 2034 2713 
Q 2441 2713 2670 2916 
Q 2900 3119 2900 3481 
Q 2900 3844 2670 4047 
Q 2441 4250 2034 4250 
Q 1625 4250 1398 4047 
Q 1172 3844 1172 3481 
z
" transform="scale(0.015625)"/>
      </defs>
      <use xlink:href="#DejaVuSans-51"/>
      <use xlink:href="#DejaVuSans-2a" x="78.710938"/>
      <use xlink:href="#DejaVuSans-2a" x="128.710938"/>
      <use xlink:href="#DejaVuSans-38" x="178.710938"/>
     </g>
    </g>
   </g>
   <g id="text_63">
    <g clip-path="url(#p2f1cd9e347)">
     <!-- 0 -->
     <g transform="translate(566.085942 319.853983)scale(0.13 -0.13)">
      <use xlink:href="#DejaVuSans-30"/>
     </g>
    </g>
   </g>
   <g id="text_64">
    <g clip-path="url(#p2f1cd9e347)">
     <!-- 1 -->
     <g transform="translate(566.085942 365.304983)scale(0.13 -0.13)">
      <use xlink:href="#DejaVuSans-31"/>
     </g>
    </g>
   </g>
   <g id="text_65">
    <g clip-path="url(#p2f1cd9e347)">
     <!-- 2 -->
     <g transform="translate(566.085942 410.755982)scale(0.13 -0.13)">
      <use xlink:href="#DejaVuSans-32"/>
     </g>
    </g>
   </g>
   <g id="text_66">
    <g clip-path="url(#p2f1cd9e347)">
     <!-- 3 -->
     <g transform="translate(566.085942 456.206982)scale(0.13 -0.13)">
      <use xlink:href="#DejaVuSans-33"/>
     </g>
    </g>
   </g>
   <g id="text_67">
    <g clip-path="url(#p2f1cd9e347)">
     <!-- 4 -->
     <g transform="translate(566.085942 501.657981)scale(0.13 -0.13)">
      <use xlink:href="#DejaVuSans-34"/>
     </g>
    </g>
   </g>
   <g id="text_68">
    <g clip-path="url(#p2f1cd9e347)">
     <!-- 5 -->
     <g transform="translate(566.085942 547.10898)scale(0.13 -0.13)">
      <use xlink:href="#DejaVuSans-35"/>
     </g>
    </g>
   </g>
   <g id="text_69">
    <g clip-path="url(#p2f1cd9e347)">
     <!-- 6 -->
     <g transform="translate(566.085942 592.55998)scale(0.13 -0.13)">
      <use xlink:href="#DejaVuSans-36"/>
     </g>
    </g>
   </g>
   <g id="text_70">
    <g clip-path="url(#p2f1cd9e347)">
     <!-- Q**16 -->
     <g transform="translate(573.57311 456.206982)scale(0.13 -0.13)">
      <use xlink:href="#DejaVuSans-51"/>
      <use xlink:href="#DejaVuSans-2a" x="78.710938"/>
      <use xlink:href="#DejaVuSans-2a" x="128.710938"/>
      <use xlink:href="#DejaVuSans-31" x="178.710938"/>
      <use xlink:href="#DejaVuSans-36" x="242.333984"/>
     </g>
    </g>
   </g>
   <g id="text_71">
    <g clip-path="url(#p2f1cd9e347)">
     <!-- 0 -->
     <g transform="translate(656.892493 319.853983)scale(0.13 -0.13)">
      <use xlink:href="#DejaVuSans-30"/>
     </g>
    </g>
   </g>
   <g id="text_72">
    <g clip-path="url(#p2f1cd9e347)">
     <!-- 1 -->
     <g transform="translate(656.892493 365.304983)scale(0.13 -0.13)">
      <use xlink:href="#DejaVuSans-31"/>
     </g>
    </g>
   </g>
   <g id="text_73">
    <g clip-path="url(#p2f1cd9e347)">
     <!-- 2 -->
     <g transform="translate(656.892493 410.755982)scale(0.13 -0.13)">
      <use xlink:href="#DejaVuSans-32"/>
     </g>
    </g>
   </g>
   <g id="text_74">
    <g clip-path="url(#p2f1cd9e347)">
     <!-- 3 -->
     <g transform="translate(656.892493 456.206982)scale(0.13 -0.13)">
      <use xlink:href="#DejaVuSans-33"/>
     </g>
    </g>
   </g>
   <g id="text_75">
    <g clip-path="url(#p2f1cd9e347)">
     <!-- 4 -->
     <g transform="translate(656.892493 501.657981)scale(0.13 -0.13)">
      <use xlink:href="#DejaVuSans-34"/>
     </g>
    </g>
   </g>
   <g id="text_76">
    <g clip-path="url(#p2f1cd9e347)">
     <!-- 5 -->
     <g transform="translate(656.892493 547.10898)scale(0.13 -0.13)">
      <use xlink:href="#DejaVuSans-35"/>
     </g>
    </g>
   </g>
   <g id="text_77">
    <g clip-path="url(#p2f1cd9e347)">
     <!-- 6 -->
     <g transform="translate(656.892493 592.55998)scale(0.13 -0.13)">
      <use xlink:href="#DejaVuSans-36"/>
     </g>
    </g>
   </g>
   <g id="text_78">
    <g clip-path="url(#p2f1cd9e347)">
     <!-- Q**32 -->
     <g transform="translate(664.475109 456.206982)scale(0.13 -0.13)">
      <use xlink:href="#DejaVuSans-51"/>
      <use xlink:href="#DejaVuSans-2a" x="78.710938"/>
      <use xlink:href="#DejaVuSans-2a" x="128.710938"/>
      <use xlink:href="#DejaVuSans-33" x="178.710938"/>
      <use xlink:href="#DejaVuSans-32" x="242.333984"/>
     </g>
    </g>
   </g>
   <g id="text_79">
    <g clip-path="url(#p2f1cd9e347)">
     <!-- 0 -->
     <g transform="translate(741.167736 274.402984)scale(0.13 -0.13)">
      <use xlink:href="#DejaVuSans-30"/>
     </g>
    </g>
   </g>
   <g id="text_80">
    <g clip-path="url(#p2f1cd9e347)">
     <!-- 1 -->
     <g transform="translate(741.167736 228.951985)scale(0.13 -0.13)">
      <use xlink:href="#DejaVuSans-31"/>
     </g>
    </g>
   </g>
   <g id="text_81">
    <g clip-path="url(#p2f1cd9e347)">
     <!-- 2 -->
     <g transform="translate(741.167736 183.500985)scale(0.13 -0.13)">
      <use xlink:href="#DejaVuSans-32"/>
     </g>
    </g>
   </g>
   <g id="text_82">
    <g clip-path="url(#p2f1cd9e347)">
     <!-- 3 -->
     <g transform="translate(741.167736 138.049986)scale(0.13 -0.13)">
      <use xlink:href="#DejaVuSans-33"/>
     </g>
    </g>
   </g>
   <g id="text_83">
    <g clip-path="url(#p2f1cd9e347)">
     <!-- 4 -->
     <g transform="translate(741.167736 92.598986)scale(0.13 -0.13)">
      <use xlink:href="#DejaVuSans-34"/>
     </g>
    </g>
   </g>
   <g id="text_84">
    <g clip-path="url(#p2f1cd9e347)">
     <!-- 5 -->
     <g transform="translate(741.167736 47.147987)scale(0.13 -0.13)">
      <use xlink:href="#DejaVuSans-35"/>
     </g>
    </g>
   </g>
   <g id="text_85">
    <g clip-path="url(#p2f1cd9e347)">
     <!-- IQFT_dg -->
     <g transform="translate(749.133045 160.594704)scale(0.13 -0.13)">
      <defs>
       <path id="DejaVuSans-49" d="M 628 4666 
L 1259 4666 
L 1259 0 
L 628 0 
L 628 4666 
z
" transform="scale(0.015625)"/>
       <path id="DejaVuSans-54" d="M -19 4666 
L 3928 4666 
L 3928 4134 
L 2272 4134 
L 2272 0 
L 1638 0 
L 1638 4134 
L -19 4134 
L -19 4666 
z
" transform="scale(0.015625)"/>
       <path id="DejaVuSans-5f" d="M 3263 -1063 
L 3263 -1509 
L -63 -1509 
L -63 -1063 
L 3263 -1063 
z
" transform="scale(0.015625)"/>
       <path id="DejaVuSans-64" d="M 2906 2969 
L 2906 4863 
L 3481 4863 
L 3481 0 
L 2906 0 
L 2906 525 
Q 2725 213 2448 61 
Q 2172 -91 1784 -91 
Q 1150 -91 751 415 
Q 353 922 353 1747 
Q 353 2572 751 3078 
Q 1150 3584 1784 3584 
Q 2172 3584 2448 3432 
Q 2725 3281 2906 2969 
z
M 947 1747 
Q 947 1113 1208 752 
Q 1469 391 1925 391 
Q 2381 391 2643 752 
Q 2906 1113 2906 1747 
Q 2906 2381 2643 2742 
Q 2381 3103 1925 3103 
Q 1469 3103 1208 2742 
Q 947 2381 947 1747 
z
" transform="scale(0.015625)"/>
       <path id="DejaVuSans-67" d="M 2906 1791 
Q 2906 2416 2648 2759 
Q 2391 3103 1925 3103 
Q 1463 3103 1205 2759 
Q 947 2416 947 1791 
Q 947 1169 1205 825 
Q 1463 481 1925 481 
Q 2391 481 2648 825 
Q 2906 1169 2906 1791 
z
M 3481 434 
Q 3481 -459 3084 -895 
Q 2688 -1331 1869 -1331 
Q 1566 -1331 1297 -1286 
Q 1028 -1241 775 -1147 
L 775 -588 
Q 1028 -725 1275 -790 
Q 1522 -856 1778 -856 
Q 2344 -856 2625 -561 
Q 2906 -266 2906 331 
L 2906 616 
Q 2728 306 2450 153 
Q 2172 0 1784 0 
Q 1141 0 747 490 
Q 353 981 353 1791 
Q 353 2603 747 3093 
Q 1141 3584 1784 3584 
Q 2172 3584 2450 3431 
Q 2728 3278 2906 2969 
L 2906 3500 
L 3481 3500 
L 3481 434 
z
" transform="scale(0.015625)"/>
      </defs>
      <use xlink:href="#DejaVuSans-49"/>
      <use xlink:href="#DejaVuSans-51" x="29.492188"/>
      <use xlink:href="#DejaVuSans-46" x="108.203125"/>
      <use xlink:href="#DejaVuSans-54" x="163.972656"/>
      <use xlink:href="#DejaVuSans-5f" x="225.056641"/>
      <use xlink:href="#DejaVuSans-64" x="275.056641"/>
      <use xlink:href="#DejaVuSans-67" x="338.533203"/>
     </g>
    </g>
   </g>
  </g>
 </g>
 <defs>
  <clipPath id="p2f1cd9e347">
   <rect x="7.2" y="7.2" width="815.788625" height="609.043392"/>
  </clipPath>
 </defs>
</svg>
