<?xml version="1.0" encoding="utf-8" standalone="no"?>
<!DOCTYPE svg PUBLIC "-//W3C//DTD SVG 1.1//EN"
  "http://www.w3.org/Graphics/SVG/1.1/DTD/svg11.dtd">
<svg xmlns:xlink="http://www.w3.org/1999/xlink" width="1149.612341pt" height="1032.502386pt" viewBox="0 0 1149.612341 1032.502386" xmlns="http://www.w3.org/2000/svg" version="1.1">
 <metadata>
  <rdf:RDF xmlns:dc="http://purl.org/dc/elements/1.1/" xmlns:cc="http://creativecommons.org/ns#" xmlns:rdf="http://www.w3.org/1999/02/22-rdf-syntax-ns#">
   <cc:Work>
    <dc:type rdf:resource="http://purl.org/dc/dcmitype/StillImage"/>
    <dc:date>2022-06-20T14:09:41.462963</dc:date>
    <dc:format>image/svg+xml</dc:format>
    <dc:creator>
     <cc:Agent>
      <dc:title>Matplotlib v3.5.2, https://matplotlib.org/</dc:title>
     </cc:Agent>
    </dc:creator>
   </cc:Work>
  </rdf:RDF>
 </metadata>
 <defs>
  <style type="text/css">*{stroke-linejoin: round; stroke-linecap: butt}</style>
 </defs>
 <g id="figure_1">
  <g id="patch_1">
   <path d="M -0 1032.502386 
L 1149.612341 1032.502386 
L 1149.612341 0 
L -0 0 
z
" style="fill: #ffffff"/>
  </g>
  <g id="axes_1">
   <g id="patch_2">
    <path d="M 879.251054 987.691684 
L 891.068314 987.691684 
L 885.159684 996.213747 
z
" clip-path="url(#p22902c57d2)" style="fill: #778899"/>
   </g>
   <g id="patch_3">
    <path d="M 924.702053 987.691684 
L 936.519313 987.691684 
L 930.610683 996.213747 
z
" clip-path="url(#p22902c57d2)" style="fill: #778899"/>
   </g>
   <g id="patch_4">
    <path d="M 970.153053 987.691684 
L 981.970313 987.691684 
L 976.061683 996.213747 
z
" clip-path="url(#p22902c57d2)" style="fill: #778899"/>
   </g>
   <g id="patch_5">
    <path d="M 1015.604052 987.691684 
L 1027.421312 987.691684 
L 1021.512682 996.213747 
z
" clip-path="url(#p22902c57d2)" style="fill: #778899"/>
   </g>
   <g id="patch_6">
    <path d="M 1061.055052 987.691684 
L 1072.872311 987.691684 
L 1066.963682 996.213747 
z
" clip-path="url(#p22902c57d2)" style="fill: #778899"/>
   </g>
   <g id="patch_7">
    <path d="M 1106.506051 987.691684 
L 1118.323311 987.691684 
L 1112.414681 996.213747 
z
" clip-path="url(#p22902c57d2)" style="fill: #778899"/>
   </g>
   <g id="line2d_1">
    <path d="M 133.400154 43.5608 
L 1137.867241 43.5608 
" clip-path="url(#p22902c57d2)" style="fill: none; stroke: #000000; stroke-width: 2; stroke-linecap: square"/>
   </g>
   <g id="line2d_2">
    <path d="M 133.400154 89.011799 
L 1137.867241 89.011799 
" clip-path="url(#p22902c57d2)" style="fill: none; stroke: #000000; stroke-width: 2; stroke-linecap: square"/>
   </g>
   <g id="line2d_3">
    <path d="M 133.400154 134.462798 
L 1137.867241 134.462798 
" clip-path="url(#p22902c57d2)" style="fill: none; stroke: #000000; stroke-width: 2; stroke-linecap: square"/>
   </g>
   <g id="line2d_4">
    <path d="M 133.400154 179.913798 
L 1137.867241 179.913798 
" clip-path="url(#p22902c57d2)" style="fill: none; stroke: #000000; stroke-width: 2; stroke-linecap: square"/>
   </g>
   <g id="line2d_5">
    <path d="M 133.400154 225.364797 
L 1137.867241 225.364797 
" clip-path="url(#p22902c57d2)" style="fill: none; stroke: #000000; stroke-width: 2; stroke-linecap: square"/>
   </g>
   <g id="line2d_6">
    <path d="M 133.400154 270.815796 
L 1137.867241 270.815796 
" clip-path="url(#p22902c57d2)" style="fill: none; stroke: #000000; stroke-width: 2; stroke-linecap: square"/>
   </g>
   <g id="line2d_7">
    <path d="M 133.400154 316.266796 
L 1137.867241 316.266796 
" clip-path="url(#p22902c57d2)" style="fill: none; stroke: #000000; stroke-width: 2; stroke-linecap: square"/>
   </g>
   <g id="line2d_8">
    <path d="M 133.400154 361.717795 
L 1137.867241 361.717795 
" clip-path="url(#p22902c57d2)" style="fill: none; stroke: #000000; stroke-width: 2; stroke-linecap: square"/>
   </g>
   <g id="line2d_9">
    <path d="M 133.400154 407.168795 
L 1137.867241 407.168795 
" clip-path="url(#p22902c57d2)" style="fill: none; stroke: #000000; stroke-width: 2; stroke-linecap: square"/>
   </g>
   <g id="line2d_10">
    <path d="M 133.400154 452.619794 
L 1137.867241 452.619794 
" clip-path="url(#p22902c57d2)" style="fill: none; stroke: #000000; stroke-width: 2; stroke-linecap: square"/>
   </g>
   <g id="line2d_11">
    <path d="M 133.400154 498.070793 
L 1137.867241 498.070793 
" clip-path="url(#p22902c57d2)" style="fill: none; stroke: #000000; stroke-width: 2; stroke-linecap: square"/>
   </g>
   <g id="line2d_12">
    <path d="M 133.400154 543.521793 
L 1137.867241 543.521793 
" clip-path="url(#p22902c57d2)" style="fill: none; stroke: #000000; stroke-width: 2; stroke-linecap: square"/>
   </g>
   <g id="line2d_13">
    <path d="M 133.400154 588.972792 
L 1137.867241 588.972792 
" clip-path="url(#p22902c57d2)" style="fill: none; stroke: #000000; stroke-width: 2; stroke-linecap: square"/>
   </g>
   <g id="line2d_14">
    <path d="M 133.400154 634.423792 
L 1137.867241 634.423792 
" clip-path="url(#p22902c57d2)" style="fill: none; stroke: #000000; stroke-width: 2; stroke-linecap: square"/>
   </g>
   <g id="line2d_15">
    <path d="M 133.400154 679.874791 
L 1137.867241 679.874791 
" clip-path="url(#p22902c57d2)" style="fill: none; stroke: #000000; stroke-width: 2; stroke-linecap: square"/>
   </g>
   <g id="line2d_16">
    <path d="M 133.400154 725.32579 
L 1137.867241 725.32579 
" clip-path="url(#p22902c57d2)" style="fill: none; stroke: #000000; stroke-width: 2; stroke-linecap: square"/>
   </g>
   <g id="line2d_17">
    <path d="M 133.400154 770.77679 
L 1137.867241 770.77679 
" clip-path="url(#p22902c57d2)" style="fill: none; stroke: #000000; stroke-width: 2; stroke-linecap: square"/>
   </g>
   <g id="line2d_18">
    <path d="M 133.400154 816.227789 
L 1137.867241 816.227789 
" clip-path="url(#p22902c57d2)" style="fill: none; stroke: #000000; stroke-width: 2; stroke-linecap: square"/>
   </g>
   <g id="line2d_19">
    <path d="M 133.400154 861.678789 
L 1137.867241 861.678789 
" clip-path="url(#p22902c57d2)" style="fill: none; stroke: #000000; stroke-width: 2; stroke-linecap: square"/>
   </g>
   <g id="line2d_20">
    <path d="M 133.400154 907.129788 
L 1137.867241 907.129788 
" clip-path="url(#p22902c57d2)" style="fill: none; stroke: #000000; stroke-width: 2; stroke-linecap: square"/>
   </g>
   <g id="line2d_21">
    <path d="M 133.400154 952.580787 
L 1137.867241 952.580787 
" clip-path="url(#p22902c57d2)" style="fill: none; stroke: #000000; stroke-width: 2; stroke-linecap: square"/>
   </g>
   <g id="line2d_22">
    <path d="M 133.400154 996.554629 
L 1137.867241 996.554629 
" clip-path="url(#p22902c57d2)" style="fill: none; stroke: #778899; stroke-width: 2; stroke-linecap: square"/>
   </g>
   <g id="line2d_23">
    <path d="M 133.400154 999.508944 
L 1137.867241 999.508944 
" clip-path="url(#p22902c57d2)" style="fill: none; stroke: #778899; stroke-width: 2; stroke-linecap: square"/>
   </g>
   <g id="line2d_24">
    <path d="M 142.490354 1002.576887 
L 147.035454 993.486687 
" clip-path="url(#p22902c57d2)" style="fill: none; stroke: #778899; stroke-width: 1.5; stroke-linecap: square"/>
   </g>
   <g id="line2d_25">
    <path d="M 248.845692 952.580787 
L 248.845692 361.717795 
" clip-path="url(#p22902c57d2)" style="fill: none; stroke: #6fa4ff; stroke-width: 2; stroke-linecap: square"/>
   </g>
   <g id="line2d_26">
    <path d="M 317.022192 361.717795 
L 317.022192 43.5608 
" clip-path="url(#p22902c57d2)" style="fill: none; stroke: #bb8bff; stroke-width: 2; stroke-linecap: square"/>
   </g>
   <g id="line2d_27">
    <path d="M 317.022192 725.32579 
L 317.022192 407.168795 
" clip-path="url(#p22902c57d2)" style="fill: none; stroke: #bb8bff; stroke-width: 2; stroke-linecap: square"/>
   </g>
   <g id="line2d_28">
    <path d="M 407.92419 770.77679 
L 407.92419 407.168795 
" clip-path="url(#p22902c57d2)" style="fill: none; stroke: #bb8bff; stroke-width: 2; stroke-linecap: square"/>
   </g>
   <g id="line2d_29">
    <path d="M 476.100689 952.580787 
L 476.100689 361.717795 
" clip-path="url(#p22902c57d2)" style="fill: none; stroke: #6fa4ff; stroke-width: 2; stroke-linecap: square"/>
   </g>
   <g id="line2d_30">
    <path d="M 544.277188 816.227789 
L 544.277188 407.168795 
" clip-path="url(#p22902c57d2)" style="fill: none; stroke: #bb8bff; stroke-width: 2; stroke-linecap: square"/>
   </g>
   <g id="line2d_31">
    <path d="M 635.179187 861.678789 
L 635.179187 407.168795 
" clip-path="url(#p22902c57d2)" style="fill: none; stroke: #bb8bff; stroke-width: 2; stroke-linecap: square"/>
   </g>
   <g id="line2d_32">
    <path d="M 726.081186 907.129788 
L 726.081186 407.168795 
" clip-path="url(#p22902c57d2)" style="fill: none; stroke: #bb8bff; stroke-width: 2; stroke-linecap: square"/>
   </g>
   <g id="line2d_33">
    <path d="M 886.636841 725.32579 
L 886.636841 987.691684 
" clip-path="url(#p22902c57d2)" style="fill: none; stroke: #778899; stroke-width: 2; stroke-linecap: square"/>
   </g>
   <g id="line2d_34">
    <path d="M 883.682526 725.32579 
L 883.682526 987.691684 
" clip-path="url(#p22902c57d2)" style="fill: none; stroke: #778899; stroke-width: 2; stroke-linecap: square"/>
   </g>
   <g id="line2d_35">
    <path d="M 932.087841 770.77679 
L 932.087841 987.691684 
" clip-path="url(#p22902c57d2)" style="fill: none; stroke: #778899; stroke-width: 2; stroke-linecap: square"/>
   </g>
   <g id="line2d_36">
    <path d="M 929.133526 770.77679 
L 929.133526 987.691684 
" clip-path="url(#p22902c57d2)" style="fill: none; stroke: #778899; stroke-width: 2; stroke-linecap: square"/>
   </g>
   <g id="line2d_37">
    <path d="M 977.53884 816.227789 
L 977.53884 987.691684 
" clip-path="url(#p22902c57d2)" style="fill: none; stroke: #778899; stroke-width: 2; stroke-linecap: square"/>
   </g>
   <g id="line2d_38">
    <path d="M 974.584525 816.227789 
L 974.584525 987.691684 
" clip-path="url(#p22902c57d2)" style="fill: none; stroke: #778899; stroke-width: 2; stroke-linecap: square"/>
   </g>
   <g id="line2d_39">
    <path d="M 1022.98984 861.678789 
L 1022.98984 987.691684 
" clip-path="url(#p22902c57d2)" style="fill: none; stroke: #778899; stroke-width: 2; stroke-linecap: square"/>
   </g>
   <g id="line2d_40">
    <path d="M 1020.035525 861.678789 
L 1020.035525 987.691684 
" clip-path="url(#p22902c57d2)" style="fill: none; stroke: #778899; stroke-width: 2; stroke-linecap: square"/>
   </g>
   <g id="line2d_41">
    <path d="M 1068.440839 907.129788 
L 1068.440839 987.691684 
" clip-path="url(#p22902c57d2)" style="fill: none; stroke: #778899; stroke-width: 2; stroke-linecap: square"/>
   </g>
   <g id="line2d_42">
    <path d="M 1065.486524 907.129788 
L 1065.486524 987.691684 
" clip-path="url(#p22902c57d2)" style="fill: none; stroke: #778899; stroke-width: 2; stroke-linecap: square"/>
   </g>
   <g id="line2d_43">
    <path d="M 1113.891838 952.580787 
L 1113.891838 987.691684 
" clip-path="url(#p22902c57d2)" style="fill: none; stroke: #778899; stroke-width: 2; stroke-linecap: square"/>
   </g>
   <g id="line2d_44">
    <path d="M 1110.937523 952.580787 
L 1110.937523 987.691684 
" clip-path="url(#p22902c57d2)" style="fill: none; stroke: #778899; stroke-width: 2; stroke-linecap: square"/>
   </g>
   <g id="patch_8">
    <path d="M 143.172119 740.097365 
L 172.715268 740.097365 
L 172.715268 710.554216 
L 143.172119 710.554216 
z
" clip-path="url(#p22902c57d2)" style="fill: #6fa4ff; stroke: #6fa4ff; stroke-width: 1.5; stroke-linejoin: miter"/>
   </g>
   <g id="patch_9">
    <path d="M 143.172119 785.548365 
L 172.715268 785.548365 
L 172.715268 756.005215 
L 143.172119 756.005215 
z
" clip-path="url(#p22902c57d2)" style="fill: #6fa4ff; stroke: #6fa4ff; stroke-width: 1.5; stroke-linejoin: miter"/>
   </g>
   <g id="patch_10">
    <path d="M 143.172119 830.999364 
L 172.715268 830.999364 
L 172.715268 801.456214 
L 143.172119 801.456214 
z
" clip-path="url(#p22902c57d2)" style="fill: #6fa4ff; stroke: #6fa4ff; stroke-width: 1.5; stroke-linejoin: miter"/>
   </g>
   <g id="patch_11">
    <path d="M 143.172119 876.450363 
L 172.715268 876.450363 
L 172.715268 846.907214 
L 143.172119 846.907214 
z
" clip-path="url(#p22902c57d2)" style="fill: #6fa4ff; stroke: #6fa4ff; stroke-width: 1.5; stroke-linejoin: miter"/>
   </g>
   <g id="patch_12">
    <path d="M 143.172119 921.901363 
L 172.715268 921.901363 
L 172.715268 892.358213 
L 143.172119 892.358213 
z
" clip-path="url(#p22902c57d2)" style="fill: #6fa4ff; stroke: #6fa4ff; stroke-width: 1.5; stroke-linejoin: miter"/>
   </g>
   <g id="patch_13">
    <path d="M 143.172119 967.352362 
L 172.715268 967.352362 
L 172.715268 937.809213 
L 143.172119 937.809213 
z
" clip-path="url(#p22902c57d2)" style="fill: #6fa4ff; stroke: #6fa4ff; stroke-width: 1.5; stroke-linejoin: miter"/>
   </g>
   <g id="patch_14">
    <path d="M 139.063348 194.685373 
L 176.824039 194.685373 
L 176.824039 28.789225 
L 139.063348 28.789225 
z
" clip-path="url(#p22902c57d2)" style="fill: #bb8bff; stroke: #bb8bff; stroke-width: 1.5; stroke-linejoin: miter"/>
   </g>
   <g id="patch_15">
    <path d="M 139.063348 558.293368 
L 176.824039 558.293368 
L 176.824039 392.39722 
L 139.063348 392.39722 
z
" clip-path="url(#p22902c57d2)" style="fill: #bb8bff; stroke: #bb8bff; stroke-width: 1.5; stroke-linejoin: miter"/>
   </g>
   <g id="patch_16">
    <path d="M 188.623118 331.038371 
L 218.166268 331.038371 
L 218.166268 119.691224 
L 188.623118 119.691224 
z
" clip-path="url(#p22902c57d2)" style="fill: #bb8bff; stroke: #bb8bff; stroke-width: 1.5; stroke-linejoin: miter"/>
   </g>
   <g id="patch_17">
    <path d="M 188.623118 694.646366 
L 218.166268 694.646366 
L 218.166268 483.299219 
L 188.623118 483.299219 
z
" clip-path="url(#p22902c57d2)" style="fill: #bb8bff; stroke: #bb8bff; stroke-width: 1.5; stroke-linejoin: miter"/>
   </g>
   <g id="patch_18">
    <path d="M 248.845692 957.01226 
C 250.020933 957.01226 251.148196 956.545332 251.979217 955.714312 
C 252.810237 954.883291 253.277165 953.756028 253.277165 952.580787 
C 253.277165 951.405547 252.810237 950.278284 251.979217 949.447263 
C 251.148196 948.616243 250.020933 948.149315 248.845692 948.149315 
C 247.670452 948.149315 246.543189 948.616243 245.712168 949.447263 
C 244.881148 950.278284 244.41422 951.405547 244.41422 952.580787 
C 244.41422 953.756028 244.881148 954.883291 245.712168 955.714312 
C 246.543189 956.545332 247.670452 957.01226 248.845692 957.01226 
z
" clip-path="url(#p22902c57d2)" style="fill: #6fa4ff; stroke: #6fa4ff; stroke-width: 1.5; stroke-linejoin: miter"/>
   </g>
   <g id="patch_19">
    <path d="M 248.845692 372.057898 
C 251.58792 372.057898 254.218201 370.968399 256.157249 369.029352 
C 258.096296 367.090304 259.185795 364.460022 259.185795 361.717795 
C 259.185795 358.975568 258.096296 356.345286 256.157249 354.406239 
C 254.218201 352.467191 251.58792 351.377693 248.845692 351.377693 
C 246.103465 351.377693 243.473183 352.467191 241.534136 354.406239 
C 239.595088 356.345286 238.50559 358.975568 238.50559 361.717795 
C 238.50559 364.460022 239.595088 367.090304 241.534136 369.029352 
C 243.473183 370.968399 246.103465 372.057898 248.845692 372.057898 
z
" clip-path="url(#p22902c57d2)" style="fill: #6fa4ff; stroke: #6fa4ff; stroke-width: 2; stroke-linejoin: miter"/>
   </g>
   <g id="patch_20">
    <path d="M 317.022192 366.149268 
C 318.197432 366.149268 319.324695 365.68234 320.155716 364.85132 
C 320.986736 364.020299 321.453664 362.893036 321.453664 361.717795 
C 321.453664 360.542555 320.986736 359.415291 320.155716 358.584271 
C 319.324695 357.753251 318.197432 357.286323 317.022192 357.286323 
C 315.846951 357.286323 314.719688 357.753251 313.888667 358.584271 
C 313.057647 359.415291 312.590719 360.542555 312.590719 361.717795 
C 312.590719 362.893036 313.057647 364.020299 313.888667 364.85132 
C 314.719688 365.68234 315.846951 366.149268 317.022192 366.149268 
z
" clip-path="url(#p22902c57d2)" style="fill: #bb8bff; stroke: #bb8bff; stroke-width: 1.5; stroke-linejoin: miter"/>
   </g>
   <g id="patch_21">
    <path d="M 291.369647 331.038371 
L 342.674736 331.038371 
L 342.674736 28.789225 
L 291.369647 28.789225 
z
" clip-path="url(#p22902c57d2)" style="fill: #bb8bff; stroke: #bb8bff; stroke-width: 1.5; stroke-linejoin: miter"/>
   </g>
   <g id="patch_22">
    <path d="M 317.022192 729.757263 
C 318.197432 729.757263 319.324695 729.290335 320.155716 728.459315 
C 320.986736 727.628294 321.453664 726.501031 321.453664 725.32579 
C 321.453664 724.15055 320.986736 723.023287 320.155716 722.192266 
C 319.324695 721.361246 318.197432 720.894318 317.022192 720.894318 
C 315.846951 720.894318 314.719688 721.361246 313.888667 722.192266 
C 313.057647 723.023287 312.590719 724.15055 312.590719 725.32579 
C 312.590719 726.501031 313.057647 727.628294 313.888667 728.459315 
C 314.719688 729.290335 315.846951 729.757263 317.022192 729.757263 
z
" clip-path="url(#p22902c57d2)" style="fill: #bb8bff; stroke: #bb8bff; stroke-width: 1.5; stroke-linejoin: miter"/>
   </g>
   <g id="patch_23">
    <path d="M 295.773849 694.646366 
L 338.270534 694.646366 
L 338.270534 392.39722 
L 295.773849 392.39722 
z
" clip-path="url(#p22902c57d2)" style="fill: #bb8bff; stroke: #bb8bff; stroke-width: 1.5; stroke-linejoin: miter"/>
   </g>
   <g id="patch_24">
    <path d="M 407.92419 775.208262 
C 409.099431 775.208262 410.226694 774.741334 411.057715 773.910314 
C 411.888735 773.079294 412.355663 771.95203 412.355663 770.77679 
C 412.355663 769.60155 411.888735 768.474286 411.057715 767.643266 
C 410.226694 766.812245 409.099431 766.345317 407.92419 766.345317 
C 406.74895 766.345317 405.621686 766.812245 404.790666 767.643266 
C 403.959646 768.474286 403.492718 769.60155 403.492718 770.77679 
C 403.492718 771.95203 403.959646 773.079294 404.790666 773.910314 
C 405.621686 774.741334 406.74895 775.208262 407.92419 775.208262 
z
" clip-path="url(#p22902c57d2)" style="fill: #bb8bff; stroke: #bb8bff; stroke-width: 1.5; stroke-linejoin: miter"/>
   </g>
   <g id="patch_25">
    <path d="M 386.628125 694.646366 
L 429.220256 694.646366 
L 429.220256 392.39722 
L 386.628125 392.39722 
z
" clip-path="url(#p22902c57d2)" style="fill: #bb8bff; stroke: #bb8bff; stroke-width: 1.5; stroke-linejoin: miter"/>
   </g>
   <g id="patch_26">
    <path d="M 476.100689 957.01226 
C 477.27593 957.01226 478.403193 956.545332 479.234214 955.714312 
C 480.065234 954.883291 480.532162 953.756028 480.532162 952.580787 
C 480.532162 951.405547 480.065234 950.278284 479.234214 949.447263 
C 478.403193 948.616243 477.27593 948.149315 476.100689 948.149315 
C 474.925449 948.149315 473.798186 948.616243 472.967165 949.447263 
C 472.136145 950.278284 471.669217 951.405547 471.669217 952.580787 
C 471.669217 953.756028 472.136145 954.883291 472.967165 955.714312 
C 473.798186 956.545332 474.925449 957.01226 476.100689 957.01226 
z
" clip-path="url(#p22902c57d2)" style="fill: #6fa4ff; stroke: #6fa4ff; stroke-width: 1.5; stroke-linejoin: miter"/>
   </g>
   <g id="patch_27">
    <path d="M 476.100689 372.057898 
C 478.842917 372.057898 481.473198 370.968399 483.412246 369.029352 
C 485.351293 367.090304 486.440792 364.460022 486.440792 361.717795 
C 486.440792 358.975568 485.351293 356.345286 483.412246 354.406239 
C 481.473198 352.467191 478.842917 351.377693 476.100689 351.377693 
C 473.358462 351.377693 470.72818 352.467191 468.789133 354.406239 
C 466.850085 356.345286 465.760587 358.975568 465.760587 361.717795 
C 465.760587 364.460022 466.850085 367.090304 468.789133 369.029352 
C 470.72818 370.968399 473.358462 372.057898 476.100689 372.057898 
z
" clip-path="url(#p22902c57d2)" style="fill: #6fa4ff; stroke: #6fa4ff; stroke-width: 2; stroke-linejoin: miter"/>
   </g>
   <g id="patch_28">
    <path d="M 544.277188 820.659262 
C 545.452429 820.659262 546.579692 820.192334 547.410713 819.361313 
C 548.241733 818.530293 548.708661 817.403029 548.708661 816.227789 
C 548.708661 815.052549 548.241733 813.925285 547.410713 813.094265 
C 546.579692 812.263245 545.452429 811.796317 544.277188 811.796317 
C 543.101948 811.796317 541.974685 812.263245 541.143664 813.094265 
C 540.312644 813.925285 539.845716 815.052549 539.845716 816.227789 
C 539.845716 817.403029 540.312644 818.530293 541.143664 819.361313 
C 541.974685 820.192334 543.101948 820.659262 544.277188 820.659262 
z
" clip-path="url(#p22902c57d2)" style="fill: #bb8bff; stroke: #bb8bff; stroke-width: 1.5; stroke-linejoin: miter"/>
   </g>
   <g id="patch_29">
    <path d="M 522.981123 694.646366 
L 565.573254 694.646366 
L 565.573254 392.39722 
L 522.981123 392.39722 
z
" clip-path="url(#p22902c57d2)" style="fill: #bb8bff; stroke: #bb8bff; stroke-width: 1.5; stroke-linejoin: miter"/>
   </g>
   <g id="patch_30">
    <path d="M 635.179187 866.110261 
C 636.354428 866.110261 637.481691 865.643333 638.312711 864.812313 
C 639.143732 863.981293 639.61066 862.854029 639.61066 861.678789 
C 639.61066 860.503548 639.143732 859.376285 638.312711 858.545264 
C 637.481691 857.714244 636.354428 857.247316 635.179187 857.247316 
C 634.003947 857.247316 632.876683 857.714244 632.045663 858.545264 
C 631.214643 859.376285 630.747715 860.503548 630.747715 861.678789 
C 630.747715 862.854029 631.214643 863.981293 632.045663 864.812313 
C 632.876683 865.643333 634.003947 866.110261 635.179187 866.110261 
z
" clip-path="url(#p22902c57d2)" style="fill: #bb8bff; stroke: #bb8bff; stroke-width: 1.5; stroke-linejoin: miter"/>
   </g>
   <g id="patch_31">
    <path d="M 613.930845 694.646366 
L 656.427529 694.646366 
L 656.427529 392.39722 
L 613.930845 392.39722 
z
" clip-path="url(#p22902c57d2)" style="fill: #bb8bff; stroke: #bb8bff; stroke-width: 1.5; stroke-linejoin: miter"/>
   </g>
   <g id="patch_32">
    <path d="M 726.081186 911.56126 
C 727.256426 911.56126 728.38369 911.094333 729.21471 910.263312 
C 730.045731 909.432292 730.512659 908.305028 730.512659 907.129788 
C 730.512659 905.954548 730.045731 904.827284 729.21471 903.996264 
C 728.38369 903.165243 727.256426 902.698316 726.081186 902.698316 
C 724.905946 902.698316 723.778682 903.165243 722.947662 903.996264 
C 722.116642 904.827284 721.649714 905.954548 721.649714 907.129788 
C 721.649714 908.305028 722.116642 909.432292 722.947662 910.263312 
C 723.778682 911.094333 724.905946 911.56126 726.081186 911.56126 
z
" clip-path="url(#p22902c57d2)" style="fill: #bb8bff; stroke: #bb8bff; stroke-width: 1.5; stroke-linejoin: miter"/>
   </g>
   <g id="patch_33">
    <path d="M 700.524089 694.646366 
L 751.638283 694.646366 
L 751.638283 392.39722 
L 700.524089 392.39722 
z
" clip-path="url(#p22902c57d2)" style="fill: #bb8bff; stroke: #bb8bff; stroke-width: 1.5; stroke-linejoin: miter"/>
   </g>
   <g id="patch_34">
    <path d="M 784.703885 967.352362 
L 849.262485 967.352362 
L 849.262485 710.554216 
L 784.703885 710.554216 
z
" clip-path="url(#p22902c57d2)" style="fill: #bb8bff; stroke: #bb8bff; stroke-width: 1.5; stroke-linejoin: miter"/>
   </g>
   <g id="patch_35">
    <path d="M 870.388109 740.097365 
L 899.931259 740.097365 
L 899.931259 710.554216 
L 870.388109 710.554216 
z
" clip-path="url(#p22902c57d2)" style="stroke: #000000; stroke-width: 1.5; stroke-linejoin: miter"/>
   </g>
   <g id="patch_36">
    <path d="M 895.499786 729.757263 
C 895.499786 727.015949 894.409642 724.384108 892.47124 722.445706 
C 890.532839 720.507305 887.900998 719.417161 885.159684 719.417161 
C 882.41837 719.417161 879.786529 720.507305 877.848127 722.445706 
C 875.909726 724.384108 874.819582 727.015949 874.819582 729.757263 
" clip-path="url(#p22902c57d2)" style="fill: none; stroke: #ffffff; stroke-width: 2; stroke-linejoin: miter"/>
   </g>
   <g id="line2d_45">
    <path d="M 885.159684 729.757263 
L 895.499786 719.417161 
" clip-path="url(#p22902c57d2)" style="fill: none; stroke: #ffffff; stroke-width: 2; stroke-linecap: square"/>
   </g>
   <g id="patch_37">
    <path d="M 915.839109 785.548365 
L 945.382258 785.548365 
L 945.382258 756.005215 
L 915.839109 756.005215 
z
" clip-path="url(#p22902c57d2)" style="stroke: #000000; stroke-width: 1.5; stroke-linejoin: miter"/>
   </g>
   <g id="patch_38">
    <path d="M 940.950786 775.208262 
C 940.950786 772.466948 939.860641 769.835107 937.92224 767.896706 
C 935.983838 765.958304 933.351997 764.86816 930.610683 764.86816 
C 927.869369 764.86816 925.237528 765.958304 923.299127 767.896706 
C 921.360725 769.835107 920.270581 772.466948 920.270581 775.208262 
" clip-path="url(#p22902c57d2)" style="fill: none; stroke: #ffffff; stroke-width: 2; stroke-linejoin: miter"/>
   </g>
   <g id="line2d_46">
    <path d="M 930.610683 775.208262 
L 940.950786 764.86816 
" clip-path="url(#p22902c57d2)" style="fill: none; stroke: #ffffff; stroke-width: 2; stroke-linecap: square"/>
   </g>
   <g id="patch_39">
    <path d="M 961.290108 830.999364 
L 990.833258 830.999364 
L 990.833258 801.456214 
L 961.290108 801.456214 
z
" clip-path="url(#p22902c57d2)" style="stroke: #000000; stroke-width: 1.5; stroke-linejoin: miter"/>
   </g>
   <g id="patch_40">
    <path d="M 986.401785 820.659262 
C 986.401785 817.917948 985.311641 815.286107 983.373239 813.347705 
C 981.434838 811.409304 978.802997 810.319159 976.061683 810.319159 
C 973.320369 810.319159 970.688528 811.409304 968.750126 813.347705 
C 966.811725 815.286107 965.72158 817.917948 965.72158 820.659262 
" clip-path="url(#p22902c57d2)" style="fill: none; stroke: #ffffff; stroke-width: 2; stroke-linejoin: miter"/>
   </g>
   <g id="line2d_47">
    <path d="M 976.061683 820.659262 
L 986.401785 810.319159 
" clip-path="url(#p22902c57d2)" style="fill: none; stroke: #ffffff; stroke-width: 2; stroke-linecap: square"/>
   </g>
   <g id="patch_41">
    <path d="M 1006.741107 876.450363 
L 1036.284257 876.450363 
L 1036.284257 846.907214 
L 1006.741107 846.907214 
z
" clip-path="url(#p22902c57d2)" style="stroke: #000000; stroke-width: 1.5; stroke-linejoin: miter"/>
   </g>
   <g id="patch_42">
    <path d="M 1031.852785 866.110261 
C 1031.852785 863.368947 1030.76264 860.737106 1028.824239 858.798705 
C 1026.885837 856.860303 1024.253996 855.770159 1021.512682 855.770159 
C 1018.771368 855.770159 1016.139527 856.860303 1014.201126 858.798705 
C 1012.262724 860.737106 1011.17258 863.368947 1011.17258 866.110261 
" clip-path="url(#p22902c57d2)" style="fill: none; stroke: #ffffff; stroke-width: 2; stroke-linejoin: miter"/>
   </g>
   <g id="line2d_48">
    <path d="M 1021.512682 866.110261 
L 1031.852785 855.770159 
" clip-path="url(#p22902c57d2)" style="fill: none; stroke: #ffffff; stroke-width: 2; stroke-linecap: square"/>
   </g>
   <g id="patch_43">
    <path d="M 1052.192107 921.901363 
L 1081.735256 921.901363 
L 1081.735256 892.358213 
L 1052.192107 892.358213 
z
" clip-path="url(#p22902c57d2)" style="stroke: #000000; stroke-width: 1.5; stroke-linejoin: miter"/>
   </g>
   <g id="patch_44">
    <path d="M 1077.303784 911.56126 
C 1077.303784 908.819947 1076.21364 906.188106 1074.275238 904.249704 
C 1072.336836 902.311302 1069.704995 901.221158 1066.963682 901.221158 
C 1064.222368 901.221158 1061.590527 902.311302 1059.652125 904.249704 
C 1057.713723 906.188106 1056.623579 908.819947 1056.623579 911.56126 
" clip-path="url(#p22902c57d2)" style="fill: none; stroke: #ffffff; stroke-width: 2; stroke-linejoin: miter"/>
   </g>
   <g id="line2d_49">
    <path d="M 1066.963682 911.56126 
L 1077.303784 901.221158 
" clip-path="url(#p22902c57d2)" style="fill: none; stroke: #ffffff; stroke-width: 2; stroke-linecap: square"/>
   </g>
   <g id="patch_45">
    <path d="M 1097.643106 967.352362 
L 1127.186256 967.352362 
L 1127.186256 937.809213 
L 1097.643106 937.809213 
z
" clip-path="url(#p22902c57d2)" style="stroke: #000000; stroke-width: 1.5; stroke-linejoin: miter"/>
   </g>
   <g id="patch_46">
    <path d="M 1122.754783 957.01226 
C 1122.754783 954.270946 1121.664639 951.639105 1119.726237 949.700703 
C 1117.787836 947.762302 1115.155995 946.672158 1112.414681 946.672158 
C 1109.673367 946.672158 1107.041526 947.762302 1105.103124 949.700703 
C 1103.164723 951.639105 1102.074579 954.270946 1102.074579 957.01226 
" clip-path="url(#p22902c57d2)" style="fill: none; stroke: #ffffff; stroke-width: 2; stroke-linejoin: miter"/>
   </g>
   <g id="line2d_50">
    <path d="M 1112.414681 957.01226 
L 1122.754783 946.672158 
" clip-path="url(#p22902c57d2)" style="fill: none; stroke: #ffffff; stroke-width: 2; stroke-linecap: square"/>
   </g>
   <g id="text_1">
    <g clip-path="url(#p22902c57d2)">
     <!-- ${state}_{0}$ -->
     <g transform="translate(75.397454 48.044784)scale(0.1625 -0.1625)">
      <defs>
       <path id="DejaVuSans-Oblique-73" d="M 3200 3397 
L 3091 2853 
Q 2863 2978 2609 3040 
Q 2356 3103 2088 3103 
Q 1634 3103 1373 2948 
Q 1113 2794 1113 2528 
Q 1113 2219 1719 2053 
Q 1766 2041 1788 2034 
L 1972 1978 
Q 2547 1819 2739 1644 
Q 2931 1469 2931 1166 
Q 2931 609 2489 259 
Q 2047 -91 1331 -91 
Q 1053 -91 747 -37 
Q 441 16 72 128 
L 184 722 
Q 500 559 806 475 
Q 1113 391 1394 391 
Q 1816 391 2080 572 
Q 2344 753 2344 1031 
Q 2344 1331 1650 1516 
L 1591 1531 
L 1394 1581 
Q 956 1697 753 1886 
Q 550 2075 550 2369 
Q 550 2928 970 3256 
Q 1391 3584 2113 3584 
Q 2397 3584 2667 3537 
Q 2938 3491 3200 3397 
z
" transform="scale(0.015625)"/>
       <path id="DejaVuSans-Oblique-74" d="M 2706 3500 
L 2619 3053 
L 1472 3053 
L 1100 1153 
Q 1081 1047 1072 975 
Q 1063 903 1063 863 
Q 1063 663 1183 572 
Q 1303 481 1569 481 
L 2150 481 
L 2053 0 
L 1503 0 
Q 991 0 739 200 
Q 488 400 488 806 
Q 488 878 497 964 
Q 506 1050 525 1153 
L 897 3053 
L 409 3053 
L 500 3500 
L 978 3500 
L 1172 4494 
L 1747 4494 
L 1556 3500 
L 2706 3500 
z
" transform="scale(0.015625)"/>
       <path id="DejaVuSans-Oblique-61" d="M 3438 1997 
L 3047 0 
L 2472 0 
L 2578 531 
Q 2325 219 2001 64 
Q 1678 -91 1281 -91 
Q 834 -91 548 182 
Q 263 456 263 884 
Q 263 1497 752 1853 
Q 1241 2209 2100 2209 
L 2900 2209 
L 2931 2363 
Q 2938 2388 2941 2417 
Q 2944 2447 2944 2509 
Q 2944 2788 2717 2942 
Q 2491 3097 2081 3097 
Q 1800 3097 1504 3025 
Q 1209 2953 897 2809 
L 997 3341 
Q 1322 3463 1633 3523 
Q 1944 3584 2234 3584 
Q 2853 3584 3176 3315 
Q 3500 3047 3500 2534 
Q 3500 2431 3484 2292 
Q 3469 2153 3438 1997 
z
M 2816 1759 
L 2241 1759 
Q 1534 1759 1195 1570 
Q 856 1381 856 984 
Q 856 709 1029 553 
Q 1203 397 1509 397 
Q 1978 397 2328 733 
Q 2678 1069 2791 1631 
L 2816 1759 
z
" transform="scale(0.015625)"/>
       <path id="DejaVuSans-Oblique-65" d="M 3078 2063 
Q 3088 2113 3092 2166 
Q 3097 2219 3097 2272 
Q 3097 2653 2873 2875 
Q 2650 3097 2266 3097 
Q 1838 3097 1509 2826 
Q 1181 2556 1013 2059 
L 3078 2063 
z
M 3578 1613 
L 903 1613 
Q 884 1494 878 1425 
Q 872 1356 872 1306 
Q 872 872 1139 634 
Q 1406 397 1894 397 
Q 2269 397 2603 481 
Q 2938 566 3225 728 
L 3116 159 
Q 2806 34 2476 -28 
Q 2147 -91 1806 -91 
Q 1078 -91 686 257 
Q 294 606 294 1247 
Q 294 1794 489 2264 
Q 684 2734 1063 3103 
Q 1306 3334 1642 3459 
Q 1978 3584 2356 3584 
Q 2950 3584 3301 3228 
Q 3653 2872 3653 2272 
Q 3653 2128 3634 1964 
Q 3616 1800 3578 1613 
z
" transform="scale(0.015625)"/>
       <path id="DejaVuSans-30" d="M 2034 4250 
Q 1547 4250 1301 3770 
Q 1056 3291 1056 2328 
Q 1056 1369 1301 889 
Q 1547 409 2034 409 
Q 2525 409 2770 889 
Q 3016 1369 3016 2328 
Q 3016 3291 2770 3770 
Q 2525 4250 2034 4250 
z
M 2034 4750 
Q 2819 4750 3233 4129 
Q 3647 3509 3647 2328 
Q 3647 1150 3233 529 
Q 2819 -91 2034 -91 
Q 1250 -91 836 529 
Q 422 1150 422 2328 
Q 422 3509 836 4129 
Q 1250 4750 2034 4750 
z
" transform="scale(0.015625)"/>
      </defs>
      <use xlink:href="#DejaVuSans-Oblique-73" transform="translate(0 0.78125)"/>
      <use xlink:href="#DejaVuSans-Oblique-74" transform="translate(52.099609 0.78125)"/>
      <use xlink:href="#DejaVuSans-Oblique-61" transform="translate(91.308594 0.78125)"/>
      <use xlink:href="#DejaVuSans-Oblique-74" transform="translate(152.587891 0.78125)"/>
      <use xlink:href="#DejaVuSans-Oblique-65" transform="translate(191.796875 0.78125)"/>
      <use xlink:href="#DejaVuSans-30" transform="translate(253.320312 -15.625)scale(0.7)"/>
     </g>
    </g>
   </g>
   <g id="text_2">
    <g clip-path="url(#p22902c57d2)">
     <!-- ${state}_{1}$ -->
     <g transform="translate(75.397454 93.495783)scale(0.1625 -0.1625)">
      <defs>
       <path id="DejaVuSans-31" d="M 794 531 
L 1825 531 
L 1825 4091 
L 703 3866 
L 703 4441 
L 1819 4666 
L 2450 4666 
L 2450 531 
L 3481 531 
L 3481 0 
L 794 0 
L 794 531 
z
" transform="scale(0.015625)"/>
      </defs>
      <use xlink:href="#DejaVuSans-Oblique-73" transform="translate(0 0.78125)"/>
      <use xlink:href="#DejaVuSans-Oblique-74" transform="translate(52.099609 0.78125)"/>
      <use xlink:href="#DejaVuSans-Oblique-61" transform="translate(91.308594 0.78125)"/>
      <use xlink:href="#DejaVuSans-Oblique-74" transform="translate(152.587891 0.78125)"/>
      <use xlink:href="#DejaVuSans-Oblique-65" transform="translate(191.796875 0.78125)"/>
      <use xlink:href="#DejaVuSans-31" transform="translate(253.320312 -15.625)scale(0.7)"/>
     </g>
    </g>
   </g>
   <g id="text_3">
    <g clip-path="url(#p22902c57d2)">
     <!-- ${state}_{2}$ -->
     <g transform="translate(75.397454 138.946783)scale(0.1625 -0.1625)">
      <defs>
       <path id="DejaVuSans-32" d="M 1228 531 
L 3431 531 
L 3431 0 
L 469 0 
L 469 531 
Q 828 903 1448 1529 
Q 2069 2156 2228 2338 
Q 2531 2678 2651 2914 
Q 2772 3150 2772 3378 
Q 2772 3750 2511 3984 
Q 2250 4219 1831 4219 
Q 1534 4219 1204 4116 
Q 875 4013 500 3803 
L 500 4441 
Q 881 4594 1212 4672 
Q 1544 4750 1819 4750 
Q 2544 4750 2975 4387 
Q 3406 4025 3406 3419 
Q 3406 3131 3298 2873 
Q 3191 2616 2906 2266 
Q 2828 2175 2409 1742 
Q 1991 1309 1228 531 
z
" transform="scale(0.015625)"/>
      </defs>
      <use xlink:href="#DejaVuSans-Oblique-73" transform="translate(0 0.78125)"/>
      <use xlink:href="#DejaVuSans-Oblique-74" transform="translate(52.099609 0.78125)"/>
      <use xlink:href="#DejaVuSans-Oblique-61" transform="translate(91.308594 0.78125)"/>
      <use xlink:href="#DejaVuSans-Oblique-74" transform="translate(152.587891 0.78125)"/>
      <use xlink:href="#DejaVuSans-Oblique-65" transform="translate(191.796875 0.78125)"/>
      <use xlink:href="#DejaVuSans-32" transform="translate(253.320312 -15.625)scale(0.7)"/>
     </g>
    </g>
   </g>
   <g id="text_4">
    <g clip-path="url(#p22902c57d2)">
     <!-- ${state}_{3}$ -->
     <g transform="translate(75.397454 184.397782)scale(0.1625 -0.1625)">
      <defs>
       <path id="DejaVuSans-33" d="M 2597 2516 
Q 3050 2419 3304 2112 
Q 3559 1806 3559 1356 
Q 3559 666 3084 287 
Q 2609 -91 1734 -91 
Q 1441 -91 1130 -33 
Q 819 25 488 141 
L 488 750 
Q 750 597 1062 519 
Q 1375 441 1716 441 
Q 2309 441 2620 675 
Q 2931 909 2931 1356 
Q 2931 1769 2642 2001 
Q 2353 2234 1838 2234 
L 1294 2234 
L 1294 2753 
L 1863 2753 
Q 2328 2753 2575 2939 
Q 2822 3125 2822 3475 
Q 2822 3834 2567 4026 
Q 2313 4219 1838 4219 
Q 1578 4219 1281 4162 
Q 984 4106 628 3988 
L 628 4550 
Q 988 4650 1302 4700 
Q 1616 4750 1894 4750 
Q 2613 4750 3031 4423 
Q 3450 4097 3450 3541 
Q 3450 3153 3228 2886 
Q 3006 2619 2597 2516 
z
" transform="scale(0.015625)"/>
      </defs>
      <use xlink:href="#DejaVuSans-Oblique-73" transform="translate(0 0.78125)"/>
      <use xlink:href="#DejaVuSans-Oblique-74" transform="translate(52.099609 0.78125)"/>
      <use xlink:href="#DejaVuSans-Oblique-61" transform="translate(91.308594 0.78125)"/>
      <use xlink:href="#DejaVuSans-Oblique-74" transform="translate(152.587891 0.78125)"/>
      <use xlink:href="#DejaVuSans-Oblique-65" transform="translate(191.796875 0.78125)"/>
      <use xlink:href="#DejaVuSans-33" transform="translate(253.320312 -15.625)scale(0.7)"/>
     </g>
    </g>
   </g>
   <g id="text_5">
    <g clip-path="url(#p22902c57d2)">
     <!-- ${objective}$ -->
     <g transform="translate(50.047454 229.833547)scale(0.1625 -0.1625)">
      <defs>
       <path id="DejaVuSans-Oblique-6f" d="M 1625 -91 
Q 1009 -91 651 289 
Q 294 669 294 1325 
Q 294 1706 417 2101 
Q 541 2497 738 2766 
Q 1047 3184 1428 3384 
Q 1809 3584 2291 3584 
Q 2888 3584 3255 3212 
Q 3622 2841 3622 2241 
Q 3622 1825 3500 1412 
Q 3378 1000 3181 728 
Q 2875 309 2494 109 
Q 2113 -91 1625 -91 
z
M 891 1344 
Q 891 869 1089 633 
Q 1288 397 1691 397 
Q 2269 397 2648 901 
Q 3028 1406 3028 2181 
Q 3028 2634 2825 2865 
Q 2622 3097 2228 3097 
Q 1903 3097 1650 2945 
Q 1397 2794 1197 2484 
Q 1050 2253 970 1956 
Q 891 1659 891 1344 
z
" transform="scale(0.015625)"/>
       <path id="DejaVuSans-Oblique-62" d="M 3169 2138 
Q 3169 2591 2961 2847 
Q 2753 3103 2388 3103 
Q 2122 3103 1889 2973 
Q 1656 2844 1484 2597 
Q 1303 2338 1198 1995 
Q 1094 1653 1094 1313 
Q 1094 881 1298 636 
Q 1503 391 1863 391 
Q 2134 391 2365 517 
Q 2597 644 2772 891 
Q 2950 1147 3059 1487 
Q 3169 1828 3169 2138 
z
M 1381 2969 
Q 1594 3256 1914 3420 
Q 2234 3584 2584 3584 
Q 3122 3584 3439 3221 
Q 3756 2859 3756 2241 
Q 3756 1734 3570 1259 
Q 3384 784 3041 416 
Q 2816 172 2522 40 
Q 2228 -91 1906 -91 
Q 1566 -91 1316 65 
Q 1066 222 909 531 
L 806 0 
L 231 0 
L 1178 4863 
L 1753 4863 
L 1381 2969 
z
" transform="scale(0.015625)"/>
       <path id="DejaVuSans-Oblique-6a" d="M 928 3500 
L 1503 3500 
L 813 -63 
L 809 -78 
Q 694 -675 544 -897 
Q 403 -1106 132 -1218 
Q -138 -1331 -506 -1331 
L -722 -1331 
L -628 -844 
L -481 -844 
Q -144 -844 -1 -703 
Q 141 -563 238 -63 
L 928 3500 
z
M 1197 4863 
L 1772 4863 
L 1631 4134 
L 1056 4134 
L 1197 4863 
z
" transform="scale(0.015625)"/>
       <path id="DejaVuSans-Oblique-63" d="M 3431 3366 
L 3316 2797 
Q 3109 2947 2876 3022 
Q 2644 3097 2394 3097 
Q 2119 3097 1870 3000 
Q 1622 2903 1453 2725 
Q 1184 2453 1037 2087 
Q 891 1722 891 1331 
Q 891 859 1127 628 
Q 1363 397 1844 397 
Q 2081 397 2348 469 
Q 2616 541 2906 684 
L 2797 116 
Q 2547 13 2283 -39 
Q 2019 -91 1741 -91 
Q 1044 -91 669 257 
Q 294 606 294 1253 
Q 294 1797 489 2255 
Q 684 2713 1069 3078 
Q 1331 3328 1684 3456 
Q 2038 3584 2456 3584 
Q 2700 3584 2940 3529 
Q 3181 3475 3431 3366 
z
" transform="scale(0.015625)"/>
       <path id="DejaVuSans-Oblique-69" d="M 1172 4863 
L 1747 4863 
L 1606 4134 
L 1031 4134 
L 1172 4863 
z
M 909 3500 
L 1484 3500 
L 800 0 
L 225 0 
L 909 3500 
z
" transform="scale(0.015625)"/>
       <path id="DejaVuSans-Oblique-76" d="M 459 3500 
L 1069 3500 
L 1581 525 
L 3256 3500 
L 3866 3500 
L 1875 0 
L 1100 0 
L 459 3500 
z
" transform="scale(0.015625)"/>
      </defs>
      <use xlink:href="#DejaVuSans-Oblique-6f" transform="translate(0 0.015625)"/>
      <use xlink:href="#DejaVuSans-Oblique-62" transform="translate(61.181641 0.015625)"/>
      <use xlink:href="#DejaVuSans-Oblique-6a" transform="translate(124.658203 0.015625)"/>
      <use xlink:href="#DejaVuSans-Oblique-65" transform="translate(152.441406 0.015625)"/>
      <use xlink:href="#DejaVuSans-Oblique-63" transform="translate(213.964844 0.015625)"/>
      <use xlink:href="#DejaVuSans-Oblique-74" transform="translate(268.945312 0.015625)"/>
      <use xlink:href="#DejaVuSans-Oblique-69" transform="translate(308.154297 0.015625)"/>
      <use xlink:href="#DejaVuSans-Oblique-76" transform="translate(335.9375 0.015625)"/>
      <use xlink:href="#DejaVuSans-Oblique-65" transform="translate(395.117188 0.015625)"/>
     </g>
    </g>
   </g>
   <g id="text_6">
    <g clip-path="url(#p22902c57d2)">
     <!-- ${work}_{0}$ -->
     <g transform="translate(77.184954 275.299781)scale(0.1625 -0.1625)">
      <defs>
       <path id="DejaVuSans-Oblique-77" d="M 544 3500 
L 1113 3500 
L 1259 684 
L 2566 3500 
L 3231 3500 
L 3425 684 
L 4666 3500 
L 5241 3500 
L 3641 0 
L 2969 0 
L 2797 2900 
L 1459 0 
L 781 0 
L 544 3500 
z
" transform="scale(0.015625)"/>
       <path id="DejaVuSans-Oblique-72" d="M 2853 2969 
Q 2766 3016 2653 3041 
Q 2541 3066 2413 3066 
Q 1953 3066 1609 2717 
Q 1266 2369 1153 1784 
L 800 0 
L 225 0 
L 909 3500 
L 1484 3500 
L 1375 2956 
Q 1603 3259 1920 3421 
Q 2238 3584 2597 3584 
Q 2691 3584 2781 3573 
Q 2872 3563 2963 3538 
L 2853 2969 
z
" transform="scale(0.015625)"/>
       <path id="DejaVuSans-Oblique-6b" d="M 1172 4863 
L 1747 4863 
L 1197 2028 
L 3169 3500 
L 3916 3500 
L 1716 1825 
L 3322 0 
L 2625 0 
L 1131 1709 
L 800 0 
L 225 0 
L 1172 4863 
z
" transform="scale(0.015625)"/>
      </defs>
      <use xlink:href="#DejaVuSans-Oblique-77" transform="translate(0 0.015625)"/>
      <use xlink:href="#DejaVuSans-Oblique-6f" transform="translate(81.787109 0.015625)"/>
      <use xlink:href="#DejaVuSans-Oblique-72" transform="translate(142.96875 0.015625)"/>
      <use xlink:href="#DejaVuSans-Oblique-6b" transform="translate(184.082031 0.015625)"/>
      <use xlink:href="#DejaVuSans-30" transform="translate(241.992188 -16.390625)scale(0.7)"/>
     </g>
    </g>
   </g>
   <g id="text_7">
    <g clip-path="url(#p22902c57d2)">
     <!-- ${work}_{1}$ -->
     <g transform="translate(77.184954 320.75078)scale(0.1625 -0.1625)">
      <use xlink:href="#DejaVuSans-Oblique-77" transform="translate(0 0.015625)"/>
      <use xlink:href="#DejaVuSans-Oblique-6f" transform="translate(81.787109 0.015625)"/>
      <use xlink:href="#DejaVuSans-Oblique-72" transform="translate(142.96875 0.015625)"/>
      <use xlink:href="#DejaVuSans-Oblique-6b" transform="translate(184.082031 0.015625)"/>
      <use xlink:href="#DejaVuSans-31" transform="translate(241.992188 -16.390625)scale(0.7)"/>
     </g>
    </g>
   </g>
   <g id="text_8">
    <g clip-path="url(#p22902c57d2)">
     <!-- ${eval}$ -->
     <g transform="translate(90.184954 366.20178)scale(0.1625 -0.1625)">
      <defs>
       <path id="DejaVuSans-Oblique-6c" d="M 1172 4863 
L 1747 4863 
L 800 0 
L 225 0 
L 1172 4863 
z
" transform="scale(0.015625)"/>
      </defs>
      <use xlink:href="#DejaVuSans-Oblique-65" transform="translate(0 0.015625)"/>
      <use xlink:href="#DejaVuSans-Oblique-76" transform="translate(61.523438 0.015625)"/>
      <use xlink:href="#DejaVuSans-Oblique-61" transform="translate(120.703125 0.015625)"/>
      <use xlink:href="#DejaVuSans-Oblique-6c" transform="translate(181.982422 0.015625)"/>
     </g>
    </g>
   </g>
   <g id="text_9">
    <g clip-path="url(#p22902c57d2)">
     <!-- ${state\_2}_{0}$ -->
     <g transform="translate(56.709954 411.312545)scale(0.1625 -0.1625)">
      <defs>
       <path id="DejaVuSans-5f" d="M 3263 -1063 
L 3263 -1509 
L -63 -1509 
L -63 -1063 
L 3263 -1063 
z
" transform="scale(0.015625)"/>
      </defs>
      <use xlink:href="#DejaVuSans-Oblique-73" transform="translate(0 0.78125)"/>
      <use xlink:href="#DejaVuSans-Oblique-74" transform="translate(52.099609 0.78125)"/>
      <use xlink:href="#DejaVuSans-Oblique-61" transform="translate(91.308594 0.78125)"/>
      <use xlink:href="#DejaVuSans-Oblique-74" transform="translate(152.587891 0.78125)"/>
      <use xlink:href="#DejaVuSans-Oblique-65" transform="translate(191.796875 0.78125)"/>
      <use xlink:href="#DejaVuSans-5f" transform="translate(253.320312 0.78125)"/>
      <use xlink:href="#DejaVuSans-32" transform="translate(303.320312 0.78125)"/>
      <use xlink:href="#DejaVuSans-30" transform="translate(367.900391 -15.625)scale(0.7)"/>
     </g>
    </g>
   </g>
   <g id="text_10">
    <g clip-path="url(#p22902c57d2)">
     <!-- ${state\_2}_{1}$ -->
     <g transform="translate(56.709954 456.763544)scale(0.1625 -0.1625)">
      <use xlink:href="#DejaVuSans-Oblique-73" transform="translate(0 0.78125)"/>
      <use xlink:href="#DejaVuSans-Oblique-74" transform="translate(52.099609 0.78125)"/>
      <use xlink:href="#DejaVuSans-Oblique-61" transform="translate(91.308594 0.78125)"/>
      <use xlink:href="#DejaVuSans-Oblique-74" transform="translate(152.587891 0.78125)"/>
      <use xlink:href="#DejaVuSans-Oblique-65" transform="translate(191.796875 0.78125)"/>
      <use xlink:href="#DejaVuSans-5f" transform="translate(253.320312 0.78125)"/>
      <use xlink:href="#DejaVuSans-32" transform="translate(303.320312 0.78125)"/>
      <use xlink:href="#DejaVuSans-31" transform="translate(367.900391 -15.625)scale(0.7)"/>
     </g>
    </g>
   </g>
   <g id="text_11">
    <g clip-path="url(#p22902c57d2)">
     <!-- ${state\_2}_{2}$ -->
     <g transform="translate(56.709954 502.214543)scale(0.1625 -0.1625)">
      <use xlink:href="#DejaVuSans-Oblique-73" transform="translate(0 0.78125)"/>
      <use xlink:href="#DejaVuSans-Oblique-74" transform="translate(52.099609 0.78125)"/>
      <use xlink:href="#DejaVuSans-Oblique-61" transform="translate(91.308594 0.78125)"/>
      <use xlink:href="#DejaVuSans-Oblique-74" transform="translate(152.587891 0.78125)"/>
      <use xlink:href="#DejaVuSans-Oblique-65" transform="translate(191.796875 0.78125)"/>
      <use xlink:href="#DejaVuSans-5f" transform="translate(253.320312 0.78125)"/>
      <use xlink:href="#DejaVuSans-32" transform="translate(303.320312 0.78125)"/>
      <use xlink:href="#DejaVuSans-32" transform="translate(367.900391 -15.625)scale(0.7)"/>
     </g>
    </g>
   </g>
   <g id="text_12">
    <g clip-path="url(#p22902c57d2)">
     <!-- ${state\_2}_{3}$ -->
     <g transform="translate(56.709954 547.665543)scale(0.1625 -0.1625)">
      <use xlink:href="#DejaVuSans-Oblique-73" transform="translate(0 0.78125)"/>
      <use xlink:href="#DejaVuSans-Oblique-74" transform="translate(52.099609 0.78125)"/>
      <use xlink:href="#DejaVuSans-Oblique-61" transform="translate(91.308594 0.78125)"/>
      <use xlink:href="#DejaVuSans-Oblique-74" transform="translate(152.587891 0.78125)"/>
      <use xlink:href="#DejaVuSans-Oblique-65" transform="translate(191.796875 0.78125)"/>
      <use xlink:href="#DejaVuSans-5f" transform="translate(253.320312 0.78125)"/>
      <use xlink:href="#DejaVuSans-32" transform="translate(303.320312 0.78125)"/>
      <use xlink:href="#DejaVuSans-33" transform="translate(367.900391 -15.625)scale(0.7)"/>
     </g>
    </g>
   </g>
   <g id="text_13">
    <g clip-path="url(#p22902c57d2)">
     <!-- ${objective\_2}$ -->
     <g transform="translate(31.522454 593.197792)scale(0.1625 -0.1625)">
      <use xlink:href="#DejaVuSans-Oblique-6f" transform="translate(0 0.015625)"/>
      <use xlink:href="#DejaVuSans-Oblique-62" transform="translate(61.181641 0.015625)"/>
      <use xlink:href="#DejaVuSans-Oblique-6a" transform="translate(124.658203 0.015625)"/>
      <use xlink:href="#DejaVuSans-Oblique-65" transform="translate(152.441406 0.015625)"/>
      <use xlink:href="#DejaVuSans-Oblique-63" transform="translate(213.964844 0.015625)"/>
      <use xlink:href="#DejaVuSans-Oblique-74" transform="translate(268.945312 0.015625)"/>
      <use xlink:href="#DejaVuSans-Oblique-69" transform="translate(308.154297 0.015625)"/>
      <use xlink:href="#DejaVuSans-Oblique-76" transform="translate(335.9375 0.015625)"/>
      <use xlink:href="#DejaVuSans-Oblique-65" transform="translate(395.117188 0.015625)"/>
      <use xlink:href="#DejaVuSans-5f" transform="translate(456.640625 0.015625)"/>
      <use xlink:href="#DejaVuSans-32" transform="translate(506.640625 0.015625)"/>
     </g>
    </g>
   </g>
   <g id="text_14">
    <g clip-path="url(#p22902c57d2)">
     <!-- ${work\_2}_{0}$ -->
     <g transform="translate(58.659954 638.648792)scale(0.1625 -0.1625)">
      <use xlink:href="#DejaVuSans-Oblique-77" transform="translate(0 0.015625)"/>
      <use xlink:href="#DejaVuSans-Oblique-6f" transform="translate(81.787109 0.015625)"/>
      <use xlink:href="#DejaVuSans-Oblique-72" transform="translate(142.96875 0.015625)"/>
      <use xlink:href="#DejaVuSans-Oblique-6b" transform="translate(184.082031 0.015625)"/>
      <use xlink:href="#DejaVuSans-5f" transform="translate(241.992188 0.015625)"/>
      <use xlink:href="#DejaVuSans-32" transform="translate(291.992188 0.015625)"/>
      <use xlink:href="#DejaVuSans-30" transform="translate(356.572266 -16.390625)scale(0.7)"/>
     </g>
    </g>
   </g>
   <g id="text_15">
    <g clip-path="url(#p22902c57d2)">
     <!-- ${work\_2}_{1}$ -->
     <g transform="translate(58.659954 684.099791)scale(0.1625 -0.1625)">
      <use xlink:href="#DejaVuSans-Oblique-77" transform="translate(0 0.015625)"/>
      <use xlink:href="#DejaVuSans-Oblique-6f" transform="translate(81.787109 0.015625)"/>
      <use xlink:href="#DejaVuSans-Oblique-72" transform="translate(142.96875 0.015625)"/>
      <use xlink:href="#DejaVuSans-Oblique-6b" transform="translate(184.082031 0.015625)"/>
      <use xlink:href="#DejaVuSans-5f" transform="translate(241.992188 0.015625)"/>
      <use xlink:href="#DejaVuSans-32" transform="translate(291.992188 0.015625)"/>
      <use xlink:href="#DejaVuSans-31" transform="translate(356.572266 -16.390625)scale(0.7)"/>
     </g>
    </g>
   </g>
   <g id="text_16">
    <g clip-path="url(#p22902c57d2)">
     <!-- ${result}_{0}$ -->
     <g transform="translate(70.197454 729.809775)scale(0.1625 -0.1625)">
      <defs>
       <path id="DejaVuSans-Oblique-75" d="M 428 1388 
L 838 3500 
L 1416 3500 
L 1006 1409 
Q 975 1256 961 1147 
Q 947 1038 947 966 
Q 947 700 1109 554 
Q 1272 409 1569 409 
Q 2031 409 2368 721 
Q 2706 1034 2809 1563 
L 3194 3500 
L 3769 3500 
L 3091 0 
L 2516 0 
L 2631 550 
Q 2388 244 2052 76 
Q 1716 -91 1338 -91 
Q 878 -91 622 161 
Q 366 413 366 863 
Q 366 956 381 1097 
Q 397 1238 428 1388 
z
" transform="scale(0.015625)"/>
      </defs>
      <use xlink:href="#DejaVuSans-Oblique-72" transform="translate(0 0.015625)"/>
      <use xlink:href="#DejaVuSans-Oblique-65" transform="translate(41.113281 0.015625)"/>
      <use xlink:href="#DejaVuSans-Oblique-73" transform="translate(102.636719 0.015625)"/>
      <use xlink:href="#DejaVuSans-Oblique-75" transform="translate(154.736328 0.015625)"/>
      <use xlink:href="#DejaVuSans-Oblique-6c" transform="translate(218.115234 0.015625)"/>
      <use xlink:href="#DejaVuSans-Oblique-74" transform="translate(245.898438 0.015625)"/>
      <use xlink:href="#DejaVuSans-30" transform="translate(285.107422 -16.390625)scale(0.7)"/>
     </g>
    </g>
   </g>
   <g id="text_17">
    <g clip-path="url(#p22902c57d2)">
     <!-- ${result}_{1}$ -->
     <g transform="translate(70.197454 775.260774)scale(0.1625 -0.1625)">
      <use xlink:href="#DejaVuSans-Oblique-72" transform="translate(0 0.015625)"/>
      <use xlink:href="#DejaVuSans-Oblique-65" transform="translate(41.113281 0.015625)"/>
      <use xlink:href="#DejaVuSans-Oblique-73" transform="translate(102.636719 0.015625)"/>
      <use xlink:href="#DejaVuSans-Oblique-75" transform="translate(154.736328 0.015625)"/>
      <use xlink:href="#DejaVuSans-Oblique-6c" transform="translate(218.115234 0.015625)"/>
      <use xlink:href="#DejaVuSans-Oblique-74" transform="translate(245.898438 0.015625)"/>
      <use xlink:href="#DejaVuSans-31" transform="translate(285.107422 -16.390625)scale(0.7)"/>
     </g>
    </g>
   </g>
   <g id="text_18">
    <g clip-path="url(#p22902c57d2)">
     <!-- ${result}_{2}$ -->
     <g transform="translate(70.197454 820.711774)scale(0.1625 -0.1625)">
      <use xlink:href="#DejaVuSans-Oblique-72" transform="translate(0 0.015625)"/>
      <use xlink:href="#DejaVuSans-Oblique-65" transform="translate(41.113281 0.015625)"/>
      <use xlink:href="#DejaVuSans-Oblique-73" transform="translate(102.636719 0.015625)"/>
      <use xlink:href="#DejaVuSans-Oblique-75" transform="translate(154.736328 0.015625)"/>
      <use xlink:href="#DejaVuSans-Oblique-6c" transform="translate(218.115234 0.015625)"/>
      <use xlink:href="#DejaVuSans-Oblique-74" transform="translate(245.898438 0.015625)"/>
      <use xlink:href="#DejaVuSans-32" transform="translate(285.107422 -16.390625)scale(0.7)"/>
     </g>
    </g>
   </g>
   <g id="text_19">
    <g clip-path="url(#p22902c57d2)">
     <!-- ${result}_{3}$ -->
     <g transform="translate(70.197454 866.162773)scale(0.1625 -0.1625)">
      <use xlink:href="#DejaVuSans-Oblique-72" transform="translate(0 0.015625)"/>
      <use xlink:href="#DejaVuSans-Oblique-65" transform="translate(41.113281 0.015625)"/>
      <use xlink:href="#DejaVuSans-Oblique-73" transform="translate(102.636719 0.015625)"/>
      <use xlink:href="#DejaVuSans-Oblique-75" transform="translate(154.736328 0.015625)"/>
      <use xlink:href="#DejaVuSans-Oblique-6c" transform="translate(218.115234 0.015625)"/>
      <use xlink:href="#DejaVuSans-Oblique-74" transform="translate(245.898438 0.015625)"/>
      <use xlink:href="#DejaVuSans-33" transform="translate(285.107422 -16.390625)scale(0.7)"/>
     </g>
    </g>
   </g>
   <g id="text_20">
    <g clip-path="url(#p22902c57d2)">
     <!-- ${result}_{4}$ -->
     <g transform="translate(70.197454 911.613772)scale(0.1625 -0.1625)">
      <defs>
       <path id="DejaVuSans-34" d="M 2419 4116 
L 825 1625 
L 2419 1625 
L 2419 4116 
z
M 2253 4666 
L 3047 4666 
L 3047 1625 
L 3713 1625 
L 3713 1100 
L 3047 1100 
L 3047 0 
L 2419 0 
L 2419 1100 
L 313 1100 
L 313 1709 
L 2253 4666 
z
" transform="scale(0.015625)"/>
      </defs>
      <use xlink:href="#DejaVuSans-Oblique-72" transform="translate(0 0.015625)"/>
      <use xlink:href="#DejaVuSans-Oblique-65" transform="translate(41.113281 0.015625)"/>
      <use xlink:href="#DejaVuSans-Oblique-73" transform="translate(102.636719 0.015625)"/>
      <use xlink:href="#DejaVuSans-Oblique-75" transform="translate(154.736328 0.015625)"/>
      <use xlink:href="#DejaVuSans-Oblique-6c" transform="translate(218.115234 0.015625)"/>
      <use xlink:href="#DejaVuSans-Oblique-74" transform="translate(245.898438 0.015625)"/>
      <use xlink:href="#DejaVuSans-34" transform="translate(285.107422 -16.390625)scale(0.7)"/>
     </g>
    </g>
   </g>
   <g id="text_21">
    <g clip-path="url(#p22902c57d2)">
     <!-- ${result}_{5}$ -->
     <g transform="translate(70.197454 957.064772)scale(0.1625 -0.1625)">
      <defs>
       <path id="DejaVuSans-35" d="M 691 4666 
L 3169 4666 
L 3169 4134 
L 1269 4134 
L 1269 2991 
Q 1406 3038 1543 3061 
Q 1681 3084 1819 3084 
Q 2600 3084 3056 2656 
Q 3513 2228 3513 1497 
Q 3513 744 3044 326 
Q 2575 -91 1722 -91 
Q 1428 -91 1123 -41 
Q 819 9 494 109 
L 494 744 
Q 775 591 1075 516 
Q 1375 441 1709 441 
Q 2250 441 2565 725 
Q 2881 1009 2881 1497 
Q 2881 1984 2565 2268 
Q 2250 2553 1709 2553 
Q 1456 2553 1204 2497 
Q 953 2441 691 2322 
L 691 4666 
z
" transform="scale(0.015625)"/>
      </defs>
      <use xlink:href="#DejaVuSans-Oblique-72" transform="translate(0 0.015625)"/>
      <use xlink:href="#DejaVuSans-Oblique-65" transform="translate(41.113281 0.015625)"/>
      <use xlink:href="#DejaVuSans-Oblique-73" transform="translate(102.636719 0.015625)"/>
      <use xlink:href="#DejaVuSans-Oblique-75" transform="translate(154.736328 0.015625)"/>
      <use xlink:href="#DejaVuSans-Oblique-6c" transform="translate(218.115234 0.015625)"/>
      <use xlink:href="#DejaVuSans-Oblique-74" transform="translate(245.898438 0.015625)"/>
      <use xlink:href="#DejaVuSans-35" transform="translate(285.107422 -16.390625)scale(0.7)"/>
     </g>
    </g>
   </g>
   <g id="text_22">
    <g clip-path="url(#p22902c57d2)">
     <!-- 6 -->
     <g transform="translate(137.945254 991.323812)scale(0.104 -0.104)">
      <defs>
       <path id="DejaVuSans-36" d="M 2113 2584 
Q 1688 2584 1439 2293 
Q 1191 2003 1191 1497 
Q 1191 994 1439 701 
Q 1688 409 2113 409 
Q 2538 409 2786 701 
Q 3034 994 3034 1497 
Q 3034 2003 2786 2293 
Q 2538 2584 2113 2584 
z
M 3366 4563 
L 3366 3988 
Q 3128 4100 2886 4159 
Q 2644 4219 2406 4219 
Q 1781 4219 1451 3797 
Q 1122 3375 1075 2522 
Q 1259 2794 1537 2939 
Q 1816 3084 2150 3084 
Q 2853 3084 3261 2657 
Q 3669 2231 3669 1497 
Q 3669 778 3244 343 
Q 2819 -91 2113 -91 
Q 1303 -91 875 529 
Q 447 1150 447 2328 
Q 447 3434 972 4092 
Q 1497 4750 2381 4750 
Q 2619 4750 2861 4703 
Q 3103 4656 3366 4563 
z
" transform="scale(0.015625)"/>
      </defs>
      <use xlink:href="#DejaVuSans-36"/>
     </g>
    </g>
   </g>
   <g id="text_23">
    <g clip-path="url(#p22902c57d2)">
     <!-- c0 -->
     <g transform="translate(105.035931 1002.515771)scale(0.1625 -0.1625)">
      <defs>
       <path id="DejaVuSans-63" d="M 3122 3366 
L 3122 2828 
Q 2878 2963 2633 3030 
Q 2388 3097 2138 3097 
Q 1578 3097 1268 2742 
Q 959 2388 959 1747 
Q 959 1106 1268 751 
Q 1578 397 2138 397 
Q 2388 397 2633 464 
Q 2878 531 3122 666 
L 3122 134 
Q 2881 22 2623 -34 
Q 2366 -91 2075 -91 
Q 1284 -91 818 406 
Q 353 903 353 1747 
Q 353 2603 823 3093 
Q 1294 3584 2113 3584 
Q 2378 3584 2631 3529 
Q 2884 3475 3122 3366 
z
" transform="scale(0.015625)"/>
      </defs>
      <use xlink:href="#DejaVuSans-63"/>
      <use xlink:href="#DejaVuSans-30" x="54.980469"/>
     </g>
    </g>
   </g>
   <g id="text_24">
    <g clip-path="url(#p22902c57d2)">
     <!-- H -->
     <g transform="translate(153.05549 728.912978)scale(0.13 -0.13)">
      <defs>
       <path id="DejaVuSans-48" d="M 628 4666 
L 1259 4666 
L 1259 2753 
L 3553 2753 
L 3553 4666 
L 4184 4666 
L 4184 0 
L 3553 0 
L 3553 2222 
L 1259 2222 
L 1259 0 
L 628 0 
L 628 4666 
z
" transform="scale(0.015625)"/>
      </defs>
      <use xlink:href="#DejaVuSans-48"/>
     </g>
    </g>
   </g>
   <g id="text_25">
    <g clip-path="url(#p22902c57d2)">
     <!-- H -->
     <g transform="translate(153.05549 774.363977)scale(0.13 -0.13)">
      <use xlink:href="#DejaVuSans-48"/>
     </g>
    </g>
   </g>
   <g id="text_26">
    <g clip-path="url(#p22902c57d2)">
     <!-- H -->
     <g transform="translate(153.05549 819.814977)scale(0.13 -0.13)">
      <use xlink:href="#DejaVuSans-48"/>
     </g>
    </g>
   </g>
   <g id="text_27">
    <g clip-path="url(#p22902c57d2)">
     <!-- H -->
     <g transform="translate(153.05549 865.265976)scale(0.13 -0.13)">
      <use xlink:href="#DejaVuSans-48"/>
     </g>
    </g>
   </g>
   <g id="text_28">
    <g clip-path="url(#p22902c57d2)">
     <!-- H -->
     <g transform="translate(153.05549 910.716976)scale(0.13 -0.13)">
      <use xlink:href="#DejaVuSans-48"/>
     </g>
    </g>
   </g>
   <g id="text_29">
    <g clip-path="url(#p22902c57d2)">
     <!-- H -->
     <g transform="translate(153.05549 956.167975)scale(0.13 -0.13)">
      <use xlink:href="#DejaVuSans-48"/>
     </g>
    </g>
   </g>
   <g id="text_30">
    <g clip-path="url(#p22902c57d2)">
     <!-- 0 -->
     <g transform="translate(142.244918 47.147987)scale(0.13 -0.13)">
      <use xlink:href="#DejaVuSans-30"/>
     </g>
    </g>
   </g>
   <g id="text_31">
    <g clip-path="url(#p22902c57d2)">
     <!-- 1 -->
     <g transform="translate(142.244918 92.598986)scale(0.13 -0.13)">
      <use xlink:href="#DejaVuSans-31"/>
     </g>
    </g>
   </g>
   <g id="text_32">
    <g clip-path="url(#p22902c57d2)">
     <!-- 2 -->
     <g transform="translate(142.244918 138.049986)scale(0.13 -0.13)">
      <use xlink:href="#DejaVuSans-32"/>
     </g>
    </g>
   </g>
   <g id="text_33">
    <g clip-path="url(#p22902c57d2)">
     <!-- 3 -->
     <g transform="translate(142.244918 183.500985)scale(0.13 -0.13)">
      <use xlink:href="#DejaVuSans-33"/>
     </g>
    </g>
   </g>
   <g id="text_34">
    <g clip-path="url(#p22902c57d2)">
     <!-- P(X) -->
     <g transform="translate(149.499475 115.324486)scale(0.13 -0.13)">
      <defs>
       <path id="DejaVuSans-50" d="M 1259 4147 
L 1259 2394 
L 2053 2394 
Q 2494 2394 2734 2622 
Q 2975 2850 2975 3272 
Q 2975 3691 2734 3919 
Q 2494 4147 2053 4147 
L 1259 4147 
z
M 628 4666 
L 2053 4666 
Q 2838 4666 3239 4311 
Q 3641 3956 3641 3272 
Q 3641 2581 3239 2228 
Q 2838 1875 2053 1875 
L 1259 1875 
L 1259 0 
L 628 0 
L 628 4666 
z
" transform="scale(0.015625)"/>
       <path id="DejaVuSans-28" d="M 1984 4856 
Q 1566 4138 1362 3434 
Q 1159 2731 1159 2009 
Q 1159 1288 1364 580 
Q 1569 -128 1984 -844 
L 1484 -844 
Q 1016 -109 783 600 
Q 550 1309 550 2009 
Q 550 2706 781 3412 
Q 1013 4119 1484 4856 
L 1984 4856 
z
" transform="scale(0.015625)"/>
       <path id="DejaVuSans-58" d="M 403 4666 
L 1081 4666 
L 2241 2931 
L 3406 4666 
L 4084 4666 
L 2584 2425 
L 4184 0 
L 3506 0 
L 2194 1984 
L 872 0 
L 191 0 
L 1856 2491 
L 403 4666 
z
" transform="scale(0.015625)"/>
       <path id="DejaVuSans-29" d="M 513 4856 
L 1013 4856 
Q 1481 4119 1714 3412 
Q 1947 2706 1947 2009 
Q 1947 1309 1714 600 
Q 1481 -109 1013 -844 
L 513 -844 
Q 928 -128 1133 580 
Q 1338 1288 1338 2009 
Q 1338 2731 1133 3434 
Q 928 4138 513 4856 
z
" transform="scale(0.015625)"/>
      </defs>
      <use xlink:href="#DejaVuSans-50"/>
      <use xlink:href="#DejaVuSans-28" x="60.302734"/>
      <use xlink:href="#DejaVuSans-58" x="99.316406"/>
      <use xlink:href="#DejaVuSans-29" x="167.822266"/>
     </g>
    </g>
   </g>
   <g id="text_35">
    <g clip-path="url(#p22902c57d2)">
     <!-- 0 -->
     <g transform="translate(142.244918 410.755982)scale(0.13 -0.13)">
      <use xlink:href="#DejaVuSans-30"/>
     </g>
    </g>
   </g>
   <g id="text_36">
    <g clip-path="url(#p22902c57d2)">
     <!-- 1 -->
     <g transform="translate(142.244918 456.206982)scale(0.13 -0.13)">
      <use xlink:href="#DejaVuSans-31"/>
     </g>
    </g>
   </g>
   <g id="text_37">
    <g clip-path="url(#p22902c57d2)">
     <!-- 2 -->
     <g transform="translate(142.244918 501.657981)scale(0.13 -0.13)">
      <use xlink:href="#DejaVuSans-32"/>
     </g>
    </g>
   </g>
   <g id="text_38">
    <g clip-path="url(#p22902c57d2)">
     <!-- 3 -->
     <g transform="translate(142.244918 547.10898)scale(0.13 -0.13)">
      <use xlink:href="#DejaVuSans-33"/>
     </g>
    </g>
   </g>
   <g id="text_39">
    <g clip-path="url(#p22902c57d2)">
     <!-- P(X) -->
     <g transform="translate(149.499475 478.932481)scale(0.13 -0.13)">
      <use xlink:href="#DejaVuSans-50"/>
      <use xlink:href="#DejaVuSans-28" x="60.302734"/>
      <use xlink:href="#DejaVuSans-58" x="99.316406"/>
      <use xlink:href="#DejaVuSans-29" x="167.822266"/>
     </g>
    </g>
   </g>
   <g id="text_40">
    <g clip-path="url(#p22902c57d2)">
     <!-- 0 -->
     <g transform="translate(191.804688 138.049986)scale(0.13 -0.13)">
      <use xlink:href="#DejaVuSans-30"/>
     </g>
    </g>
   </g>
   <g id="text_41">
    <g clip-path="url(#p22902c57d2)">
     <!-- 1 -->
     <g transform="translate(191.804688 183.500985)scale(0.13 -0.13)">
      <use xlink:href="#DejaVuSans-31"/>
     </g>
    </g>
   </g>
   <g id="text_42">
    <g clip-path="url(#p22902c57d2)">
     <!-- 2 -->
     <g transform="translate(191.804688 228.951985)scale(0.13 -0.13)">
      <use xlink:href="#DejaVuSans-32"/>
     </g>
    </g>
   </g>
   <g id="text_43">
    <g clip-path="url(#p22902c57d2)">
     <!-- 3 -->
     <g transform="translate(191.804688 274.402984)scale(0.13 -0.13)">
      <use xlink:href="#DejaVuSans-33"/>
     </g>
    </g>
   </g>
   <g id="text_44">
    <g clip-path="url(#p22902c57d2)">
     <!-- 4 -->
     <g transform="translate(191.804688 319.853983)scale(0.13 -0.13)">
      <use xlink:href="#DejaVuSans-34"/>
     </g>
    </g>
   </g>
   <g id="text_45">
    <g clip-path="url(#p22902c57d2)">
     <!-- F -->
     <g transform="translate(204.655787 228.951985)scale(0.13 -0.13)">
      <defs>
       <path id="DejaVuSans-46" d="M 628 4666 
L 3309 4666 
L 3309 4134 
L 1259 4134 
L 1259 2759 
L 3109 2759 
L 3109 2228 
L 1259 2228 
L 1259 0 
L 628 0 
L 628 4666 
z
" transform="scale(0.015625)"/>
      </defs>
      <use xlink:href="#DejaVuSans-46"/>
     </g>
    </g>
   </g>
   <g id="text_46">
    <g clip-path="url(#p22902c57d2)">
     <!-- 0 -->
     <g transform="translate(191.804688 501.657981)scale(0.13 -0.13)">
      <use xlink:href="#DejaVuSans-30"/>
     </g>
    </g>
   </g>
   <g id="text_47">
    <g clip-path="url(#p22902c57d2)">
     <!-- 1 -->
     <g transform="translate(191.804688 547.10898)scale(0.13 -0.13)">
      <use xlink:href="#DejaVuSans-31"/>
     </g>
    </g>
   </g>
   <g id="text_48">
    <g clip-path="url(#p22902c57d2)">
     <!-- 2 -->
     <g transform="translate(191.804688 592.55998)scale(0.13 -0.13)">
      <use xlink:href="#DejaVuSans-32"/>
     </g>
    </g>
   </g>
   <g id="text_49">
    <g clip-path="url(#p22902c57d2)">
     <!-- 3 -->
     <g transform="translate(191.804688 638.010979)scale(0.13 -0.13)">
      <use xlink:href="#DejaVuSans-33"/>
     </g>
    </g>
   </g>
   <g id="text_50">
    <g clip-path="url(#p22902c57d2)">
     <!-- 4 -->
     <g transform="translate(191.804688 683.461979)scale(0.13 -0.13)">
      <use xlink:href="#DejaVuSans-34"/>
     </g>
    </g>
   </g>
   <g id="text_51">
    <g clip-path="url(#p22902c57d2)">
     <!-- F -->
     <g transform="translate(204.655787 592.55998)scale(0.13 -0.13)">
      <use xlink:href="#DejaVuSans-46"/>
     </g>
    </g>
   </g>
   <g id="line2d_51">
    <path d="M 248.845692 367.626425 
L 248.845692 355.809165 
" clip-path="url(#p22902c57d2)" style="fill: none; stroke: #ffffff; stroke-width: 2; stroke-linecap: square"/>
   </g>
   <g id="line2d_52">
    <path d="M 242.937062 361.717795 
L 254.754322 361.717795 
" clip-path="url(#p22902c57d2)" style="fill: none; stroke: #ffffff; stroke-width: 2; stroke-linecap: square"/>
   </g>
   <g id="text_52">
    <g clip-path="url(#p22902c57d2)">
     <!-- 0 -->
     <g transform="translate(294.551217 47.147987)scale(0.13 -0.13)">
      <use xlink:href="#DejaVuSans-30"/>
     </g>
    </g>
   </g>
   <g id="text_53">
    <g clip-path="url(#p22902c57d2)">
     <!-- 1 -->
     <g transform="translate(294.551217 92.598986)scale(0.13 -0.13)">
      <use xlink:href="#DejaVuSans-31"/>
     </g>
    </g>
   </g>
   <g id="text_54">
    <g clip-path="url(#p22902c57d2)">
     <!-- 2 -->
     <g transform="translate(294.551217 138.049986)scale(0.13 -0.13)">
      <use xlink:href="#DejaVuSans-32"/>
     </g>
    </g>
   </g>
   <g id="text_55">
    <g clip-path="url(#p22902c57d2)">
     <!-- 3 -->
     <g transform="translate(294.551217 183.500985)scale(0.13 -0.13)">
      <use xlink:href="#DejaVuSans-33"/>
     </g>
    </g>
   </g>
   <g id="text_56">
    <g clip-path="url(#p22902c57d2)">
     <!-- 4 -->
     <g transform="translate(294.551217 228.951985)scale(0.13 -0.13)">
      <use xlink:href="#DejaVuSans-34"/>
     </g>
    </g>
   </g>
   <g id="text_57">
    <g clip-path="url(#p22902c57d2)">
     <!-- 5 -->
     <g transform="translate(294.551217 274.402984)scale(0.13 -0.13)">
      <use xlink:href="#DejaVuSans-35"/>
     </g>
    </g>
   </g>
   <g id="text_58">
    <g clip-path="url(#p22902c57d2)">
     <!-- 6 -->
     <g transform="translate(294.551217 319.853983)scale(0.13 -0.13)">
      <use xlink:href="#DejaVuSans-36"/>
     </g>
    </g>
   </g>
   <g id="text_59">
    <g clip-path="url(#p22902c57d2)">
     <!-- Q**32 -->
     <g transform="translate(302.133833 183.500985)scale(0.13 -0.13)">
      <defs>
       <path id="DejaVuSans-51" d="M 2522 4238 
Q 1834 4238 1429 3725 
Q 1025 3213 1025 2328 
Q 1025 1447 1429 934 
Q 1834 422 2522 422 
Q 3209 422 3611 934 
Q 4013 1447 4013 2328 
Q 4013 3213 3611 3725 
Q 3209 4238 2522 4238 
z
M 3406 84 
L 4238 -825 
L 3475 -825 
L 2784 -78 
Q 2681 -84 2626 -87 
Q 2572 -91 2522 -91 
Q 1538 -91 948 567 
Q 359 1225 359 2328 
Q 359 3434 948 4092 
Q 1538 4750 2522 4750 
Q 3503 4750 4090 4092 
Q 4678 3434 4678 2328 
Q 4678 1516 4351 937 
Q 4025 359 3406 84 
z
" transform="scale(0.015625)"/>
       <path id="DejaVuSans-2a" d="M 3009 3897 
L 1888 3291 
L 3009 2681 
L 2828 2375 
L 1778 3009 
L 1778 1831 
L 1422 1831 
L 1422 3009 
L 372 2375 
L 191 2681 
L 1313 3291 
L 191 3897 
L 372 4206 
L 1422 3572 
L 1422 4750 
L 1778 4750 
L 1778 3572 
L 2828 4206 
L 3009 3897 
z
" transform="scale(0.015625)"/>
      </defs>
      <use xlink:href="#DejaVuSans-51"/>
      <use xlink:href="#DejaVuSans-2a" x="78.710938"/>
      <use xlink:href="#DejaVuSans-2a" x="128.710938"/>
      <use xlink:href="#DejaVuSans-33" x="178.710938"/>
      <use xlink:href="#DejaVuSans-32" x="242.333984"/>
     </g>
    </g>
   </g>
   <g id="text_60">
    <g clip-path="url(#p22902c57d2)">
     <!-- 0 -->
     <g transform="translate(298.955419 410.755982)scale(0.13 -0.13)">
      <use xlink:href="#DejaVuSans-30"/>
     </g>
    </g>
   </g>
   <g id="text_61">
    <g clip-path="url(#p22902c57d2)">
     <!-- 1 -->
     <g transform="translate(298.955419 456.206982)scale(0.13 -0.13)">
      <use xlink:href="#DejaVuSans-31"/>
     </g>
    </g>
   </g>
   <g id="text_62">
    <g clip-path="url(#p22902c57d2)">
     <!-- 2 -->
     <g transform="translate(298.955419 501.657981)scale(0.13 -0.13)">
      <use xlink:href="#DejaVuSans-32"/>
     </g>
    </g>
   </g>
   <g id="text_63">
    <g clip-path="url(#p22902c57d2)">
     <!-- 3 -->
     <g transform="translate(298.955419 547.10898)scale(0.13 -0.13)">
      <use xlink:href="#DejaVuSans-33"/>
     </g>
    </g>
   </g>
   <g id="text_64">
    <g clip-path="url(#p22902c57d2)">
     <!-- 4 -->
     <g transform="translate(298.955419 592.55998)scale(0.13 -0.13)">
      <use xlink:href="#DejaVuSans-34"/>
     </g>
    </g>
   </g>
   <g id="text_65">
    <g clip-path="url(#p22902c57d2)">
     <!-- 5 -->
     <g transform="translate(298.955419 638.010979)scale(0.13 -0.13)">
      <use xlink:href="#DejaVuSans-35"/>
     </g>
    </g>
   </g>
   <g id="text_66">
    <g clip-path="url(#p22902c57d2)">
     <!-- 6 -->
     <g transform="translate(298.955419 683.461979)scale(0.13 -0.13)">
      <use xlink:href="#DejaVuSans-36"/>
     </g>
    </g>
   </g>
   <g id="text_67">
    <g clip-path="url(#p22902c57d2)">
     <!-- Q**1 -->
     <g transform="translate(306.269458 547.10898)scale(0.13 -0.13)">
      <use xlink:href="#DejaVuSans-51"/>
      <use xlink:href="#DejaVuSans-2a" x="78.710938"/>
      <use xlink:href="#DejaVuSans-2a" x="128.710938"/>
      <use xlink:href="#DejaVuSans-31" x="178.710938"/>
     </g>
    </g>
   </g>
   <g id="text_68">
    <g clip-path="url(#p22902c57d2)">
     <!-- 0 -->
     <g transform="translate(389.809694 410.755982)scale(0.13 -0.13)">
      <use xlink:href="#DejaVuSans-30"/>
     </g>
    </g>
   </g>
   <g id="text_69">
    <g clip-path="url(#p22902c57d2)">
     <!-- 1 -->
     <g transform="translate(389.809694 456.206982)scale(0.13 -0.13)">
      <use xlink:href="#DejaVuSans-31"/>
     </g>
    </g>
   </g>
   <g id="text_70">
    <g clip-path="url(#p22902c57d2)">
     <!-- 2 -->
     <g transform="translate(389.809694 501.657981)scale(0.13 -0.13)">
      <use xlink:href="#DejaVuSans-32"/>
     </g>
    </g>
   </g>
   <g id="text_71">
    <g clip-path="url(#p22902c57d2)">
     <!-- 3 -->
     <g transform="translate(389.809694 547.10898)scale(0.13 -0.13)">
      <use xlink:href="#DejaVuSans-33"/>
     </g>
    </g>
   </g>
   <g id="text_72">
    <g clip-path="url(#p22902c57d2)">
     <!-- 4 -->
     <g transform="translate(389.809694 592.55998)scale(0.13 -0.13)">
      <use xlink:href="#DejaVuSans-34"/>
     </g>
    </g>
   </g>
   <g id="text_73">
    <g clip-path="url(#p22902c57d2)">
     <!-- 5 -->
     <g transform="translate(389.809694 638.010979)scale(0.13 -0.13)">
      <use xlink:href="#DejaVuSans-35"/>
     </g>
    </g>
   </g>
   <g id="text_74">
    <g clip-path="url(#p22902c57d2)">
     <!-- 6 -->
     <g transform="translate(389.809694 683.461979)scale(0.13 -0.13)">
      <use xlink:href="#DejaVuSans-36"/>
     </g>
    </g>
   </g>
   <g id="text_75">
    <g clip-path="url(#p22902c57d2)">
     <!-- Q**2 -->
     <g transform="translate(397.171456 547.10898)scale(0.13 -0.13)">
      <use xlink:href="#DejaVuSans-51"/>
      <use xlink:href="#DejaVuSans-2a" x="78.710938"/>
      <use xlink:href="#DejaVuSans-2a" x="128.710938"/>
      <use xlink:href="#DejaVuSans-32" x="178.710938"/>
     </g>
    </g>
   </g>
   <g id="line2d_53">
    <path d="M 476.100689 367.626425 
L 476.100689 355.809165 
" clip-path="url(#p22902c57d2)" style="fill: none; stroke: #ffffff; stroke-width: 2; stroke-linecap: square"/>
   </g>
   <g id="line2d_54">
    <path d="M 470.192059 361.717795 
L 482.009319 361.717795 
" clip-path="url(#p22902c57d2)" style="fill: none; stroke: #ffffff; stroke-width: 2; stroke-linecap: square"/>
   </g>
   <g id="text_76">
    <g clip-path="url(#p22902c57d2)">
     <!-- 0 -->
     <g transform="translate(526.162693 410.755982)scale(0.13 -0.13)">
      <use xlink:href="#DejaVuSans-30"/>
     </g>
    </g>
   </g>
   <g id="text_77">
    <g clip-path="url(#p22902c57d2)">
     <!-- 1 -->
     <g transform="translate(526.162693 456.206982)scale(0.13 -0.13)">
      <use xlink:href="#DejaVuSans-31"/>
     </g>
    </g>
   </g>
   <g id="text_78">
    <g clip-path="url(#p22902c57d2)">
     <!-- 2 -->
     <g transform="translate(526.162693 501.657981)scale(0.13 -0.13)">
      <use xlink:href="#DejaVuSans-32"/>
     </g>
    </g>
   </g>
   <g id="text_79">
    <g clip-path="url(#p22902c57d2)">
     <!-- 3 -->
     <g transform="translate(526.162693 547.10898)scale(0.13 -0.13)">
      <use xlink:href="#DejaVuSans-33"/>
     </g>
    </g>
   </g>
   <g id="text_80">
    <g clip-path="url(#p22902c57d2)">
     <!-- 4 -->
     <g transform="translate(526.162693 592.55998)scale(0.13 -0.13)">
      <use xlink:href="#DejaVuSans-34"/>
     </g>
    </g>
   </g>
   <g id="text_81">
    <g clip-path="url(#p22902c57d2)">
     <!-- 5 -->
     <g transform="translate(526.162693 638.010979)scale(0.13 -0.13)">
      <use xlink:href="#DejaVuSans-35"/>
     </g>
    </g>
   </g>
   <g id="text_82">
    <g clip-path="url(#p22902c57d2)">
     <!-- 6 -->
     <g transform="translate(526.162693 683.461979)scale(0.13 -0.13)">
      <use xlink:href="#DejaVuSans-36"/>
     </g>
    </g>
   </g>
   <g id="text_83">
    <g clip-path="url(#p22902c57d2)">
     <!-- Q**4 -->
     <g transform="translate(533.524455 547.10898)scale(0.13 -0.13)">
      <use xlink:href="#DejaVuSans-51"/>
      <use xlink:href="#DejaVuSans-2a" x="78.710938"/>
      <use xlink:href="#DejaVuSans-2a" x="128.710938"/>
      <use xlink:href="#DejaVuSans-34" x="178.710938"/>
     </g>
    </g>
   </g>
   <g id="text_84">
    <g clip-path="url(#p22902c57d2)">
     <!-- 0 -->
     <g transform="translate(617.112415 410.755982)scale(0.13 -0.13)">
      <use xlink:href="#DejaVuSans-30"/>
     </g>
    </g>
   </g>
   <g id="text_85">
    <g clip-path="url(#p22902c57d2)">
     <!-- 1 -->
     <g transform="translate(617.112415 456.206982)scale(0.13 -0.13)">
      <use xlink:href="#DejaVuSans-31"/>
     </g>
    </g>
   </g>
   <g id="text_86">
    <g clip-path="url(#p22902c57d2)">
     <!-- 2 -->
     <g transform="translate(617.112415 501.657981)scale(0.13 -0.13)">
      <use xlink:href="#DejaVuSans-32"/>
     </g>
    </g>
   </g>
   <g id="text_87">
    <g clip-path="url(#p22902c57d2)">
     <!-- 3 -->
     <g transform="translate(617.112415 547.10898)scale(0.13 -0.13)">
      <use xlink:href="#DejaVuSans-33"/>
     </g>
    </g>
   </g>
   <g id="text_88">
    <g clip-path="url(#p22902c57d2)">
     <!-- 4 -->
     <g transform="translate(617.112415 592.55998)scale(0.13 -0.13)">
      <use xlink:href="#DejaVuSans-34"/>
     </g>
    </g>
   </g>
   <g id="text_89">
    <g clip-path="url(#p22902c57d2)">
     <!-- 5 -->
     <g transform="translate(617.112415 638.010979)scale(0.13 -0.13)">
      <use xlink:href="#DejaVuSans-35"/>
     </g>
    </g>
   </g>
   <g id="text_90">
    <g clip-path="url(#p22902c57d2)">
     <!-- 6 -->
     <g transform="translate(617.112415 683.461979)scale(0.13 -0.13)">
      <use xlink:href="#DejaVuSans-36"/>
     </g>
    </g>
   </g>
   <g id="text_91">
    <g clip-path="url(#p22902c57d2)">
     <!-- Q**8 -->
     <g transform="translate(624.426453 547.10898)scale(0.13 -0.13)">
      <defs>
       <path id="DejaVuSans-38" d="M 2034 2216 
Q 1584 2216 1326 1975 
Q 1069 1734 1069 1313 
Q 1069 891 1326 650 
Q 1584 409 2034 409 
Q 2484 409 2743 651 
Q 3003 894 3003 1313 
Q 3003 1734 2745 1975 
Q 2488 2216 2034 2216 
z
M 1403 2484 
Q 997 2584 770 2862 
Q 544 3141 544 3541 
Q 544 4100 942 4425 
Q 1341 4750 2034 4750 
Q 2731 4750 3128 4425 
Q 3525 4100 3525 3541 
Q 3525 3141 3298 2862 
Q 3072 2584 2669 2484 
Q 3125 2378 3379 2068 
Q 3634 1759 3634 1313 
Q 3634 634 3220 271 
Q 2806 -91 2034 -91 
Q 1263 -91 848 271 
Q 434 634 434 1313 
Q 434 1759 690 2068 
Q 947 2378 1403 2484 
z
M 1172 3481 
Q 1172 3119 1398 2916 
Q 1625 2713 2034 2713 
Q 2441 2713 2670 2916 
Q 2900 3119 2900 3481 
Q 2900 3844 2670 4047 
Q 2441 4250 2034 4250 
Q 1625 4250 1398 4047 
Q 1172 3844 1172 3481 
z
" transform="scale(0.015625)"/>
      </defs>
      <use xlink:href="#DejaVuSans-51"/>
      <use xlink:href="#DejaVuSans-2a" x="78.710938"/>
      <use xlink:href="#DejaVuSans-2a" x="128.710938"/>
      <use xlink:href="#DejaVuSans-38" x="178.710938"/>
     </g>
    </g>
   </g>
   <g id="text_92">
    <g clip-path="url(#p22902c57d2)">
     <!-- 0 -->
     <g transform="translate(703.705659 410.755982)scale(0.13 -0.13)">
      <use xlink:href="#DejaVuSans-30"/>
     </g>
    </g>
   </g>
   <g id="text_93">
    <g clip-path="url(#p22902c57d2)">
     <!-- 1 -->
     <g transform="translate(703.705659 456.206982)scale(0.13 -0.13)">
      <use xlink:href="#DejaVuSans-31"/>
     </g>
    </g>
   </g>
   <g id="text_94">
    <g clip-path="url(#p22902c57d2)">
     <!-- 2 -->
     <g transform="translate(703.705659 501.657981)scale(0.13 -0.13)">
      <use xlink:href="#DejaVuSans-32"/>
     </g>
    </g>
   </g>
   <g id="text_95">
    <g clip-path="url(#p22902c57d2)">
     <!-- 3 -->
     <g transform="translate(703.705659 547.10898)scale(0.13 -0.13)">
      <use xlink:href="#DejaVuSans-33"/>
     </g>
    </g>
   </g>
   <g id="text_96">
    <g clip-path="url(#p22902c57d2)">
     <!-- 4 -->
     <g transform="translate(703.705659 592.55998)scale(0.13 -0.13)">
      <use xlink:href="#DejaVuSans-34"/>
     </g>
    </g>
   </g>
   <g id="text_97">
    <g clip-path="url(#p22902c57d2)">
     <!-- 5 -->
     <g transform="translate(703.705659 638.010979)scale(0.13 -0.13)">
      <use xlink:href="#DejaVuSans-35"/>
     </g>
    </g>
   </g>
   <g id="text_98">
    <g clip-path="url(#p22902c57d2)">
     <!-- 6 -->
     <g transform="translate(703.705659 683.461979)scale(0.13 -0.13)">
      <use xlink:href="#DejaVuSans-36"/>
     </g>
    </g>
   </g>
   <g id="text_99">
    <g clip-path="url(#p22902c57d2)">
     <!-- Q**16 -->
     <g transform="translate(711.192827 547.10898)scale(0.13 -0.13)">
      <use xlink:href="#DejaVuSans-51"/>
      <use xlink:href="#DejaVuSans-2a" x="78.710938"/>
      <use xlink:href="#DejaVuSans-2a" x="128.710938"/>
      <use xlink:href="#DejaVuSans-31" x="178.710938"/>
      <use xlink:href="#DejaVuSans-36" x="242.333984"/>
     </g>
    </g>
   </g>
   <g id="text_100">
    <g clip-path="url(#p22902c57d2)">
     <!-- 0 -->
     <g transform="translate(787.885455 956.167975)scale(0.13 -0.13)">
      <use xlink:href="#DejaVuSans-30"/>
     </g>
    </g>
   </g>
   <g id="text_101">
    <g clip-path="url(#p22902c57d2)">
     <!-- 1 -->
     <g transform="translate(787.885455 910.716976)scale(0.13 -0.13)">
      <use xlink:href="#DejaVuSans-31"/>
     </g>
    </g>
   </g>
   <g id="text_102">
    <g clip-path="url(#p22902c57d2)">
     <!-- 2 -->
     <g transform="translate(787.885455 865.265976)scale(0.13 -0.13)">
      <use xlink:href="#DejaVuSans-32"/>
     </g>
    </g>
   </g>
   <g id="text_103">
    <g clip-path="url(#p22902c57d2)">
     <!-- 3 -->
     <g transform="translate(787.885455 819.814977)scale(0.13 -0.13)">
      <use xlink:href="#DejaVuSans-33"/>
     </g>
    </g>
   </g>
   <g id="text_104">
    <g clip-path="url(#p22902c57d2)">
     <!-- 4 -->
     <g transform="translate(787.885455 774.363977)scale(0.13 -0.13)">
      <use xlink:href="#DejaVuSans-34"/>
     </g>
    </g>
   </g>
   <g id="text_105">
    <g clip-path="url(#p22902c57d2)">
     <!-- 5 -->
     <g transform="translate(787.885455 728.912978)scale(0.13 -0.13)">
      <use xlink:href="#DejaVuSans-35"/>
     </g>
    </g>
   </g>
   <g id="text_106">
    <g clip-path="url(#p22902c57d2)">
     <!-- IQFT_dg -->
     <g transform="translate(795.850764 842.359695)scale(0.13 -0.13)">
      <defs>
       <path id="DejaVuSans-49" d="M 628 4666 
L 1259 4666 
L 1259 0 
L 628 0 
L 628 4666 
z
" transform="scale(0.015625)"/>
       <path id="DejaVuSans-54" d="M -19 4666 
L 3928 4666 
L 3928 4134 
L 2272 4134 
L 2272 0 
L 1638 0 
L 1638 4134 
L -19 4134 
L -19 4666 
z
" transform="scale(0.015625)"/>
       <path id="DejaVuSans-64" d="M 2906 2969 
L 2906 4863 
L 3481 4863 
L 3481 0 
L 2906 0 
L 2906 525 
Q 2725 213 2448 61 
Q 2172 -91 1784 -91 
Q 1150 -91 751 415 
Q 353 922 353 1747 
Q 353 2572 751 3078 
Q 1150 3584 1784 3584 
Q 2172 3584 2448 3432 
Q 2725 3281 2906 2969 
z
M 947 1747 
Q 947 1113 1208 752 
Q 1469 391 1925 391 
Q 2381 391 2643 752 
Q 2906 1113 2906 1747 
Q 2906 2381 2643 2742 
Q 2381 3103 1925 3103 
Q 1469 3103 1208 2742 
Q 947 2381 947 1747 
z
" transform="scale(0.015625)"/>
       <path id="DejaVuSans-67" d="M 2906 1791 
Q 2906 2416 2648 2759 
Q 2391 3103 1925 3103 
Q 1463 3103 1205 2759 
Q 947 2416 947 1791 
Q 947 1169 1205 825 
Q 1463 481 1925 481 
Q 2391 481 2648 825 
Q 2906 1169 2906 1791 
z
M 3481 434 
Q 3481 -459 3084 -895 
Q 2688 -1331 1869 -1331 
Q 1566 -1331 1297 -1286 
Q 1028 -1241 775 -1147 
L 775 -588 
Q 1028 -725 1275 -790 
Q 1522 -856 1778 -856 
Q 2344 -856 2625 -561 
Q 2906 -266 2906 331 
L 2906 616 
Q 2728 306 2450 153 
Q 2172 0 1784 0 
Q 1141 0 747 490 
Q 353 981 353 1791 
Q 353 2603 747 3093 
Q 1141 3584 1784 3584 
Q 2172 3584 2450 3431 
Q 2728 3278 2906 2969 
L 2906 3500 
L 3481 3500 
L 3481 434 
z
" transform="scale(0.015625)"/>
      </defs>
      <use xlink:href="#DejaVuSans-49"/>
      <use xlink:href="#DejaVuSans-51" x="29.492188"/>
      <use xlink:href="#DejaVuSans-46" x="108.203125"/>
      <use xlink:href="#DejaVuSans-54" x="163.972656"/>
      <use xlink:href="#DejaVuSans-5f" x="225.056641"/>
      <use xlink:href="#DejaVuSans-64" x="275.056641"/>
      <use xlink:href="#DejaVuSans-67" x="338.533203"/>
     </g>
    </g>
   </g>
   <g id="text_107">
    <g clip-path="url(#p22902c57d2)">
     <!-- 0 -->
     <g transform="translate(896.522434 991.323812)scale(0.104 -0.104)">
      <use xlink:href="#DejaVuSans-30"/>
     </g>
    </g>
   </g>
   <g id="text_108">
    <g clip-path="url(#p22902c57d2)">
     <!-- 1 -->
     <g transform="translate(941.973433 991.323812)scale(0.104 -0.104)">
      <use xlink:href="#DejaVuSans-31"/>
     </g>
    </g>
   </g>
   <g id="text_109">
    <g clip-path="url(#p22902c57d2)">
     <!-- 2 -->
     <g transform="translate(987.424433 991.323812)scale(0.104 -0.104)">
      <use xlink:href="#DejaVuSans-32"/>
     </g>
    </g>
   </g>
   <g id="text_110">
    <g clip-path="url(#p22902c57d2)">
     <!-- 3 -->
     <g transform="translate(1032.875432 991.323812)scale(0.104 -0.104)">
      <use xlink:href="#DejaVuSans-33"/>
     </g>
    </g>
   </g>
   <g id="text_111">
    <g clip-path="url(#p22902c57d2)">
     <!-- 4 -->
     <g transform="translate(1078.326431 991.323812)scale(0.104 -0.104)">
      <use xlink:href="#DejaVuSans-34"/>
     </g>
    </g>
   </g>
   <g id="text_112">
    <g clip-path="url(#p22902c57d2)">
     <!-- 5 -->
     <g transform="translate(1123.777431 991.323812)scale(0.104 -0.104)">
      <use xlink:href="#DejaVuSans-35"/>
     </g>
    </g>
   </g>
  </g>
 </g>
 <defs>
  <clipPath id="p22902c57d2">
   <rect x="7.2" y="7.2" width="1135.212341" height="1018.102386"/>
  </clipPath>
 </defs>
</svg>
