<?xml version="1.0" encoding="utf-8" standalone="no"?>
<!DOCTYPE svg PUBLIC "-//W3C//DTD SVG 1.1//EN"
  "http://www.w3.org/Graphics/SVG/1.1/DTD/svg11.dtd">
<!-- Created with matplotlib (https://matplotlib.org/) -->
<svg height="510.004461pt" version="1.1" viewBox="0 0 556.030954 510.004461" width="556.030954pt" xmlns="http://www.w3.org/2000/svg" xmlns:xlink="http://www.w3.org/1999/xlink">
 <metadata>
  <rdf:RDF xmlns:cc="http://creativecommons.org/ns#" xmlns:dc="http://purl.org/dc/elements/1.1/" xmlns:rdf="http://www.w3.org/1999/02/22-rdf-syntax-ns#">
   <cc:Work>
    <dc:type rdf:resource="http://purl.org/dc/dcmitype/StillImage"/>
    <dc:date>2022-05-02T18:36:33.894800</dc:date>
    <dc:format>image/svg+xml</dc:format>
    <dc:creator>
     <cc:Agent>
      <dc:title>Matplotlib v3.3.4, https://matplotlib.org/</dc:title>
     </cc:Agent>
    </dc:creator>
   </cc:Work>
  </rdf:RDF>
 </metadata>
 <defs>
  <style type="text/css">*{stroke-linecap:butt;stroke-linejoin:round;}</style>
 </defs>
 <g id="figure_1">
  <g id="patch_1">
   <path d="M 0 510.004461 
L 556.030954 510.004461 
L 556.030954 0 
L 0 0 
z
" style="fill:none;"/>
  </g>
  <g id="axes_1">
   <g id="patch_2">
    <path d="M 53.397021 459.841452 
L 499.797021 459.841452 
L 499.797021 24.961452 
L 53.397021 24.961452 
z
" style="fill:#ffffff;"/>
   </g>
   <g id="patch_3">
    <path clip-path="url(#pfa01b4cfcc)" d="M 73.68793 459.841452 
L 74.840297 459.841452 
L 74.840297 45.670023 
L 73.68793 45.670023 
z
" style="fill:#1f77b4;"/>
   </g>
   <g id="patch_4">
    <path clip-path="url(#pfa01b4cfcc)" d="M 134.291103 459.841452 
L 135.44347 459.841452 
L 135.44347 327.160802 
L 134.291103 327.160802 
z
" style="fill:#1f77b4;"/>
   </g>
   <g id="patch_5">
    <path clip-path="url(#pfa01b4cfcc)" d="M 237.296715 459.841452 
L 238.449082 459.841452 
L 238.449082 431.634658 
L 237.296715 431.634658 
z
" style="fill:#1f77b4;"/>
   </g>
   <g id="patch_6">
    <path clip-path="url(#pfa01b4cfcc)" d="M 254.141787 459.841452 
L 255.294154 459.841452 
L 255.294154 432.160034 
L 254.141787 432.160034 
z
" style="fill:#1f77b4;"/>
   </g>
   <g id="patch_7">
    <path clip-path="url(#pfa01b4cfcc)" d="M 297.899888 459.841452 
L 299.052255 459.841452 
L 299.052255 447.949174 
L 297.899888 447.949174 
z
" style="fill:#1f77b4;"/>
   </g>
   <g id="patch_8">
    <path clip-path="url(#pfa01b4cfcc)" d="M 314.74496 459.841452 
L 315.897327 459.841452 
L 315.897327 449.427387 
L 314.74496 449.427387 
z
" style="fill:#1f77b4;"/>
   </g>
   <g id="patch_9">
    <path clip-path="url(#pfa01b4cfcc)" d="M 417.750572 459.841452 
L 418.902939 459.841452 
L 418.902939 456.744691 
L 417.750572 456.744691 
z
" style="fill:#1f77b4;"/>
   </g>
   <g id="patch_10">
    <path clip-path="url(#pfa01b4cfcc)" d="M 478.353745 459.841452 
L 479.506112 459.841452 
L 479.506112 458.405698 
L 478.353745 458.405698 
z
" style="fill:#1f77b4;"/>
   </g>
   <g id="matplotlib.axis_1">
    <g id="xtick_1">
     <g id="line2d_1">
      <defs>
       <path d="M 0 0 
L 0 3.5 
" id="m0b332df5f9" style="stroke:#000000;stroke-width:0.8;"/>
      </defs>
      <g>
       <use style="stroke:#000000;stroke-width:0.8;" x="74.264114" xlink:href="#m0b332df5f9" y="459.841452"/>
      </g>
     </g>
     <g id="text_1">
      <!-- 0.0 -->
      <g transform="translate(64.088649 478.602904)scale(0.17 -0.17)">
       <defs>
        <path d="M 43.09375 32.390625 
C 43.09375 38.109375 43 48.75 38.90625 56.984375 
C 34.796875 64.890625 28.203125 67 23.5 67 
C 16.703125 67 10.90625 62.984375 7.90625 56.578125 
C 4.703125 49.859375 3.796875 42.9375 3.796875 32.390625 
C 3.796875 25.171875 4.09375 16.34375 7.703125 8.609375 
C 11.796875 0.09375 18.703125 -2 23.40625 -2 
C 29.59375 -2 35.59375 1.296875 39 8.203125 
C 42.5 15.4375 43.09375 23.359375 43.09375 32.390625 
z
M 23.40625 4.09375 
C 15.796875 4.09375 13.5 12.828125 12.796875 15.734375 
C 11.59375 20.75 11.40625 25.5625 11.40625 33.5 
C 11.40625 39.71875 11.40625 46.75 13.296875 52.265625 
C 15.59375 58.6875 19.59375 60.890625 23.40625 60.890625 
C 30.796875 60.890625 33.203125 53.46875 34 50.859375 
C 35.5 45.546875 35.5 39.3125 35.5 33.5 
C 35.5 24.15625 35.5 4.09375 23.40625 4.09375 
z
" id="CMSS17-48"/>
        <path d="M 17 8 
L 9 8 
L 9 0 
L 17 0 
z
" id="CMSS17-46"/>
       </defs>
       <use transform="scale(0.996264)" xlink:href="#CMSS17-48"/>
       <use transform="translate(46.843624 0)scale(0.996264)" xlink:href="#CMSS17-46"/>
       <use transform="translate(72.867828 0)scale(0.996264)" xlink:href="#CMSS17-48"/>
      </g>
     </g>
    </g>
    <g id="xtick_2">
     <g id="line2d_2">
      <g>
       <use style="stroke:#000000;stroke-width:0.8;" x="134.867287" xlink:href="#m0b332df5f9" y="459.841452"/>
      </g>
     </g>
     <g id="text_2">
      <!-- 18406.56224845756 -->
      <g transform="translate(68.947965 478.602904)scale(0.17 -0.17)">
       <defs>
        <path d="M 28.40625 67 
L 26.5 67 
C 21.09375 61.703125 14.796875 60.96875 8.40625 60.796875 
L 8.40625 55 
C 11.296875 55.09375 16 55.296875 20.703125 57.390625 
L 20.703125 5.796875 
L 8.90625 5.796875 
L 8.90625 0 
L 40.203125 0 
L 40.203125 5.796875 
L 28.40625 5.796875 
z
" id="CMSS17-49"/>
        <path d="M 30.203125 35.09375 
C 37.796875 37.59375 41.703125 43.640625 41.703125 49.59375 
C 41.703125 58.96875 33.703125 67 23.5 67 
C 12.90625 67 5.203125 58.671875 5.203125 49.59375 
C 5.203125 43.734375 9 37.6875 16.703125 35.09375 
C 6.90625 31.296875 3.90625 23.6875 3.90625 18 
C 3.90625 7 12.796875 -2 23.40625 -2 
C 34.40625 -2 43 7.1875 43 18 
C 43 24.59375 39.09375 31.59375 30.203125 35.09375 
z
M 23.5 38.09375 
C 16.796875 38.09375 12.296875 42.625 12.296875 49.484375 
C 12.296875 56.453125 16.796875 60.890625 23.5 60.890625 
C 29.703125 60.890625 34.59375 56.859375 34.59375 49.484375 
C 34.59375 42.234375 29.796875 38.09375 23.5 38.09375 
z
M 23.5 4.1875 
C 17.796875 4.1875 11.703125 8.09375 11.703125 18.09375 
C 11.703125 28.390625 18.5 32 23.40625 32 
C 28.796875 32 35.203125 28.1875 35.203125 18.09375 
C 35.203125 7.6875 28.59375 4.1875 23.5 4.1875 
z
" id="CMSS17-56"/>
        <path d="M 35.203125 17 
L 44.296875 17 
L 44.296875 23.09375 
L 35.203125 23.09375 
L 35.203125 66 
L 26.40625 66 
L 2.59375 23.09375 
L 2.59375 17 
L 27.296875 17 
L 27.296875 0 
L 35.203125 0 
z
M 10.296875 23.09375 
C 16.09375 33.421875 27.59375 54.28125 27.59375 61.359375 
L 27.59375 23.09375 
z
" id="CMSS17-52"/>
        <path d="M 39 64.984375 
C 34.796875 66.6875 31.796875 67 29 67 
C 16 67 3.90625 53.25 3.90625 31.609375 
C 3.90625 4.1875 15.40625 -2 23.59375 -2 
C 28.09375 -2 32.59375 -0.609375 36.90625 4.390625 
C 41.296875 9.671875 43 14.0625 43 21.75 
C 43 34.109375 36.90625 45.09375 27.796875 45.09375 
C 21.203125 45.09375 15.5 41.59375 12 37.203125 
C 13 51.40625 19.59375 60.890625 29.09375 60.890625 
C 31.703125 60.890625 35.09375 60.484375 39 58.75 
z
M 12.09375 21.4375 
C 12.09375 22.234375 12.09375 22.734375 12.203125 24.234375 
C 12.203125 32.015625 16.703125 39 24 39 
C 28.703125 39 31.09375 36.5 32.90625 33.40625 
C 35 29.515625 35.09375 25.828125 35.09375 21.75 
C 35.09375 17.859375 35.09375 13.96875 32.796875 9.96875 
C 30.90625 6.890625 28.40625 4.1875 23.59375 4.1875 
C 14.09375 4.1875 12.5 17.453125 12.09375 21.4375 
z
" id="CMSS17-54"/>
        <path d="M 14.59375 59.59375 
L 39.09375 59.59375 
L 39.09375 66 
L 7.296875 66 
L 7.296875 28.59375 
L 14 28.59375 
C 15.796875 32.859375 19.5 36 24.296875 36 
C 28.796875 36 33.796875 31.9375 33.796875 20.296875 
C 33.796875 7.84375 26.703125 4.1875 21.5 4.1875 
C 15.09375 4.1875 9.203125 8.140625 6.59375 13.609375 
L 3.40625 7.9375 
C 8 0.796875 15.5 -2 21.5 -2 
C 33.09375 -2 42.203125 7.9375 42.203125 20.09375 
C 42.203125 32.546875 34.09375 42.09375 24.40625 42.09375 
C 20.90625 42.09375 17.5 40.890625 14.59375 38.5 
z
" id="CMSS17-53"/>
        <path d="M 25.796875 21.140625 
C 28.59375 24.03125 32.796875 27.515625 35.703125 31 
C 38.5 34.390625 42.203125 39.171875 42.203125 46.140625 
C 42.203125 57.109375 34.796875 67 22.203125 67 
C 12.296875 67 6.59375 60.796875 3.90625 51.125 
L 7.796875 45.75 
C 10 54.8125 13.09375 60.59375 20.90625 60.59375 
C 29.5 60.59375 34.296875 53.609375 34.296875 45.9375 
C 34.296875 36.78125 27.296875 29.703125 22 24.421875 
C 16.09375 18.546875 10.296875 12.578125 4.703125 6.390625 
L 4.703125 0 
L 42.203125 0 
L 42.203125 6.796875 
L 25.203125 6.796875 
C 24 6.796875 22.796875 6.6875 21.59375 6.6875 
L 11.59375 6.6875 
L 11.59375 6.796875 
z
" id="CMSS17-50"/>
        <path d="M 21.703125 59.1875 
C 22.90625 59.1875 24.09375 59.296875 25.296875 59.296875 
L 36.796875 59.296875 
C 22.5 42.421875 14.296875 21.09375 14.296875 -1 
L 22.296875 -1 
C 22.296875 20.390625 29.296875 42.109375 43 59.484375 
L 43 66 
L 3.90625 66 
L 3.90625 59.1875 
z
" id="CMSS17-55"/>
       </defs>
       <use transform="scale(0.996264)" xlink:href="#CMSS17-49"/>
       <use transform="translate(46.843624 0)scale(0.996264)" xlink:href="#CMSS17-56"/>
       <use transform="translate(93.687247 0)scale(0.996264)" xlink:href="#CMSS17-52"/>
       <use transform="translate(140.530871 0)scale(0.996264)" xlink:href="#CMSS17-48"/>
       <use transform="translate(187.374494 0)scale(0.996264)" xlink:href="#CMSS17-54"/>
       <use transform="translate(234.218118 0)scale(0.996264)" xlink:href="#CMSS17-46"/>
       <use transform="translate(260.242322 0)scale(0.996264)" xlink:href="#CMSS17-53"/>
       <use transform="translate(307.085946 0)scale(0.996264)" xlink:href="#CMSS17-54"/>
       <use transform="translate(353.92957 0)scale(0.996264)" xlink:href="#CMSS17-50"/>
       <use transform="translate(400.773193 0)scale(0.996264)" xlink:href="#CMSS17-50"/>
       <use transform="translate(447.616817 0)scale(0.996264)" xlink:href="#CMSS17-52"/>
       <use transform="translate(494.46044 0)scale(0.996264)" xlink:href="#CMSS17-56"/>
       <use transform="translate(541.304064 0)scale(0.996264)" xlink:href="#CMSS17-52"/>
       <use transform="translate(588.147687 0)scale(0.996264)" xlink:href="#CMSS17-53"/>
       <use transform="translate(634.991311 0)scale(0.996264)" xlink:href="#CMSS17-55"/>
       <use transform="translate(681.834934 0)scale(0.996264)" xlink:href="#CMSS17-53"/>
       <use transform="translate(728.678558 0)scale(0.996264)" xlink:href="#CMSS17-54"/>
      </g>
     </g>
    </g>
    <g id="xtick_3">
     <g id="line2d_3">
      <g>
       <use style="stroke:#000000;stroke-width:0.8;" x="237.872899" xlink:href="#m0b332df5f9" y="459.841452"/>
      </g>
     </g>
     <g id="text_3">
      <!-- 49691.709801894605 -->
      <g transform="translate(167.971873 478.602904)scale(0.17 -0.17)">
       <defs>
        <path d="M 6.796875 2.6875 
C 9.59375 0.296875 13.203125 -2 19.296875 -2 
C 31.40625 -2 43 11.53125 43 33.375 
C 43 62.296875 30.5 67 23.796875 67 
C 17.09375 67 12.796875 63.984375 9.09375 59.203125 
C 4.703125 53.71875 3.90625 48.828125 3.90625 43.140625 
C 3.90625 36.359375 5.09375 32.171875 7.90625 27.390625 
C 11.703125 21.1875 15.203125 19.890625 19.09375 19.890625 
C 25 19.890625 30.90625 22.796875 34.90625 27.78125 
C 34.203125 14.1875 28.09375 4.1875 19.296875 4.1875 
C 15.703125 4.1875 12.796875 5.3125 9.90625 8.0625 
z
M 34.59375 43.34375 
C 34.703125 42.640625 34.703125 41.34375 34.703125 40.953125 
C 34.703125 32.578125 29.90625 26 22.90625 26 
C 18.296875 26 15.90625 28.390625 14.09375 31.484375 
C 11.90625 35.359375 11.796875 39.15625 11.796875 43.140625 
C 11.796875 47.03125 11.796875 51.3125 14.59375 55.609375 
C 16.703125 58.703125 19.296875 60.890625 23.796875 60.890625 
C 33 60.890625 34.5 47.4375 34.59375 43.34375 
z
" id="CMSS17-57"/>
       </defs>
       <use transform="scale(0.996264)" xlink:href="#CMSS17-52"/>
       <use transform="translate(46.843624 0)scale(0.996264)" xlink:href="#CMSS17-57"/>
       <use transform="translate(93.687247 0)scale(0.996264)" xlink:href="#CMSS17-54"/>
       <use transform="translate(140.530871 0)scale(0.996264)" xlink:href="#CMSS17-57"/>
       <use transform="translate(187.374494 0)scale(0.996264)" xlink:href="#CMSS17-49"/>
       <use transform="translate(234.218118 0)scale(0.996264)" xlink:href="#CMSS17-46"/>
       <use transform="translate(260.242322 0)scale(0.996264)" xlink:href="#CMSS17-55"/>
       <use transform="translate(307.085946 0)scale(0.996264)" xlink:href="#CMSS17-48"/>
       <use transform="translate(353.92957 0)scale(0.996264)" xlink:href="#CMSS17-57"/>
       <use transform="translate(400.773193 0)scale(0.996264)" xlink:href="#CMSS17-56"/>
       <use transform="translate(447.616817 0)scale(0.996264)" xlink:href="#CMSS17-48"/>
       <use transform="translate(494.46044 0)scale(0.996264)" xlink:href="#CMSS17-49"/>
       <use transform="translate(541.304064 0)scale(0.996264)" xlink:href="#CMSS17-56"/>
       <use transform="translate(588.147687 0)scale(0.996264)" xlink:href="#CMSS17-57"/>
       <use transform="translate(634.991311 0)scale(0.996264)" xlink:href="#CMSS17-52"/>
       <use transform="translate(681.834934 0)scale(0.996264)" xlink:href="#CMSS17-54"/>
       <use transform="translate(728.678558 0)scale(0.996264)" xlink:href="#CMSS17-48"/>
       <use transform="translate(775.522181 0)scale(0.996264)" xlink:href="#CMSS17-53"/>
      </g>
     </g>
    </g>
    <g id="xtick_4">
     <g id="line2d_4">
      <g>
       <use style="stroke:#000000;stroke-width:0.8;" x="254.717971" xlink:href="#m0b332df5f9" y="459.841452"/>
      </g>
     </g>
     <g id="text_4">
      <!-- 54807.94141703075 -->
      <g transform="translate(188.798649 478.602904)scale(0.17 -0.17)">
       <defs>
        <path d="M 15.703125 32.1875 
L 22.5 32.1875 
C 31.90625 32.1875 34.59375 23.9375 34.59375 18.1875 
C 34.59375 10.34375 30.203125 4.1875 23 4.1875 
C 17.40625 4.1875 9.5 7.015625 5 14.46875 
C 4.296875 10.9375 4.296875 10.734375 3.90625 8.328125 
C 8.59375 1.390625 16.203125 -2 23.203125 -2 
C 34.59375 -2 43 7.515625 43 18.09375 
C 43 26.046875 37.5 32.6875 30 35.1875 
C 36 38.484375 40.40625 44.6875 40.40625 51.890625 
C 40.40625 60.296875 32.703125 67 23.296875 67 
C 14.703125 67 8 61.6875 5.203125 55.984375 
C 5.90625 54.984375 7.703125 52.09375 8.59375 50.59375 
C 10.796875 56.484375 16.5 60.890625 23.203125 60.890625 
C 28.796875 60.890625 32.5 57.1875 32.5 51.890625 
C 32.5 46.390625 29 40.390625 23.09375 39 
C 22.703125 39 16.5 38.390625 15.703125 38.296875 
z
" id="CMSS17-51"/>
       </defs>
       <use transform="scale(0.996264)" xlink:href="#CMSS17-53"/>
       <use transform="translate(46.843624 0)scale(0.996264)" xlink:href="#CMSS17-52"/>
       <use transform="translate(93.687247 0)scale(0.996264)" xlink:href="#CMSS17-56"/>
       <use transform="translate(140.530871 0)scale(0.996264)" xlink:href="#CMSS17-48"/>
       <use transform="translate(187.374494 0)scale(0.996264)" xlink:href="#CMSS17-55"/>
       <use transform="translate(234.218118 0)scale(0.996264)" xlink:href="#CMSS17-46"/>
       <use transform="translate(260.242322 0)scale(0.996264)" xlink:href="#CMSS17-57"/>
       <use transform="translate(307.085946 0)scale(0.996264)" xlink:href="#CMSS17-52"/>
       <use transform="translate(353.92957 0)scale(0.996264)" xlink:href="#CMSS17-49"/>
       <use transform="translate(400.773193 0)scale(0.996264)" xlink:href="#CMSS17-52"/>
       <use transform="translate(447.616817 0)scale(0.996264)" xlink:href="#CMSS17-49"/>
       <use transform="translate(494.46044 0)scale(0.996264)" xlink:href="#CMSS17-55"/>
       <use transform="translate(541.304064 0)scale(0.996264)" xlink:href="#CMSS17-48"/>
       <use transform="translate(588.147687 0)scale(0.996264)" xlink:href="#CMSS17-51"/>
       <use transform="translate(634.991311 0)scale(0.996264)" xlink:href="#CMSS17-48"/>
       <use transform="translate(681.834934 0)scale(0.996264)" xlink:href="#CMSS17-55"/>
       <use transform="translate(728.678558 0)scale(0.996264)" xlink:href="#CMSS17-53"/>
      </g>
     </g>
    </g>
    <g id="xtick_5">
     <g id="line2d_5">
      <g>
       <use style="stroke:#000000;stroke-width:0.8;" x="298.476072" xlink:href="#m0b332df5f9" y="459.841452"/>
      </g>
     </g>
     <g id="text_5">
      <!-- 68098.27205035217 -->
      <g transform="translate(232.55675 478.602904)scale(0.17 -0.17)">
       <use transform="scale(0.996264)" xlink:href="#CMSS17-54"/>
       <use transform="translate(46.843624 0)scale(0.996264)" xlink:href="#CMSS17-56"/>
       <use transform="translate(93.687247 0)scale(0.996264)" xlink:href="#CMSS17-48"/>
       <use transform="translate(140.530871 0)scale(0.996264)" xlink:href="#CMSS17-57"/>
       <use transform="translate(187.374494 0)scale(0.996264)" xlink:href="#CMSS17-56"/>
       <use transform="translate(234.218118 0)scale(0.996264)" xlink:href="#CMSS17-46"/>
       <use transform="translate(260.242322 0)scale(0.996264)" xlink:href="#CMSS17-50"/>
       <use transform="translate(307.085946 0)scale(0.996264)" xlink:href="#CMSS17-55"/>
       <use transform="translate(353.92957 0)scale(0.996264)" xlink:href="#CMSS17-50"/>
       <use transform="translate(400.773193 0)scale(0.996264)" xlink:href="#CMSS17-48"/>
       <use transform="translate(447.616817 0)scale(0.996264)" xlink:href="#CMSS17-53"/>
       <use transform="translate(494.46044 0)scale(0.996264)" xlink:href="#CMSS17-48"/>
       <use transform="translate(541.304064 0)scale(0.996264)" xlink:href="#CMSS17-51"/>
       <use transform="translate(588.147687 0)scale(0.996264)" xlink:href="#CMSS17-53"/>
       <use transform="translate(634.991311 0)scale(0.996264)" xlink:href="#CMSS17-50"/>
       <use transform="translate(681.834934 0)scale(0.996264)" xlink:href="#CMSS17-49"/>
       <use transform="translate(728.678558 0)scale(0.996264)" xlink:href="#CMSS17-55"/>
      </g>
     </g>
    </g>
    <g id="xtick_6">
     <g id="line2d_6">
      <g>
       <use style="stroke:#000000;stroke-width:0.8;" x="315.321144" xlink:href="#m0b332df5f9" y="459.841452"/>
      </g>
     </g>
     <g id="text_6">
      <!-- 73214.50366548832 -->
      <g transform="translate(249.401822 478.602904)scale(0.17 -0.17)">
       <use transform="scale(0.996264)" xlink:href="#CMSS17-55"/>
       <use transform="translate(46.843624 0)scale(0.996264)" xlink:href="#CMSS17-51"/>
       <use transform="translate(93.687247 0)scale(0.996264)" xlink:href="#CMSS17-50"/>
       <use transform="translate(140.530871 0)scale(0.996264)" xlink:href="#CMSS17-49"/>
       <use transform="translate(187.374494 0)scale(0.996264)" xlink:href="#CMSS17-52"/>
       <use transform="translate(234.218118 0)scale(0.996264)" xlink:href="#CMSS17-46"/>
       <use transform="translate(260.242322 0)scale(0.996264)" xlink:href="#CMSS17-53"/>
       <use transform="translate(307.085946 0)scale(0.996264)" xlink:href="#CMSS17-48"/>
       <use transform="translate(353.92957 0)scale(0.996264)" xlink:href="#CMSS17-51"/>
       <use transform="translate(400.773193 0)scale(0.996264)" xlink:href="#CMSS17-54"/>
       <use transform="translate(447.616817 0)scale(0.996264)" xlink:href="#CMSS17-54"/>
       <use transform="translate(494.46044 0)scale(0.996264)" xlink:href="#CMSS17-53"/>
       <use transform="translate(541.304064 0)scale(0.996264)" xlink:href="#CMSS17-52"/>
       <use transform="translate(588.147687 0)scale(0.996264)" xlink:href="#CMSS17-56"/>
       <use transform="translate(634.991311 0)scale(0.996264)" xlink:href="#CMSS17-56"/>
       <use transform="translate(681.834934 0)scale(0.996264)" xlink:href="#CMSS17-51"/>
       <use transform="translate(728.678558 0)scale(0.996264)" xlink:href="#CMSS17-50"/>
      </g>
     </g>
    </g>
    <g id="xtick_7">
     <g id="line2d_7">
      <g>
       <use style="stroke:#000000;stroke-width:0.8;" x="418.326756" xlink:href="#m0b332df5f9" y="459.841452"/>
      </g>
     </g>
     <g id="text_7">
      <!-- 104499.65121892536 -->
      <g transform="translate(348.42573 478.602904)scale(0.17 -0.17)">
       <use transform="scale(0.996264)" xlink:href="#CMSS17-49"/>
       <use transform="translate(46.843624 0)scale(0.996264)" xlink:href="#CMSS17-48"/>
       <use transform="translate(93.687247 0)scale(0.996264)" xlink:href="#CMSS17-52"/>
       <use transform="translate(140.530871 0)scale(0.996264)" xlink:href="#CMSS17-52"/>
       <use transform="translate(187.374494 0)scale(0.996264)" xlink:href="#CMSS17-57"/>
       <use transform="translate(234.218118 0)scale(0.996264)" xlink:href="#CMSS17-57"/>
       <use transform="translate(281.061741 0)scale(0.996264)" xlink:href="#CMSS17-46"/>
       <use transform="translate(307.085946 0)scale(0.996264)" xlink:href="#CMSS17-54"/>
       <use transform="translate(353.92957 0)scale(0.996264)" xlink:href="#CMSS17-53"/>
       <use transform="translate(400.773193 0)scale(0.996264)" xlink:href="#CMSS17-49"/>
       <use transform="translate(447.616817 0)scale(0.996264)" xlink:href="#CMSS17-50"/>
       <use transform="translate(494.46044 0)scale(0.996264)" xlink:href="#CMSS17-49"/>
       <use transform="translate(541.304064 0)scale(0.996264)" xlink:href="#CMSS17-56"/>
       <use transform="translate(588.147687 0)scale(0.996264)" xlink:href="#CMSS17-57"/>
       <use transform="translate(634.991311 0)scale(0.996264)" xlink:href="#CMSS17-50"/>
       <use transform="translate(681.834934 0)scale(0.996264)" xlink:href="#CMSS17-53"/>
       <use transform="translate(728.678558 0)scale(0.996264)" xlink:href="#CMSS17-51"/>
       <use transform="translate(775.522181 0)scale(0.996264)" xlink:href="#CMSS17-54"/>
      </g>
     </g>
    </g>
    <g id="xtick_8">
     <g id="line2d_8">
      <g>
       <use style="stroke:#000000;stroke-width:0.8;" x="478.929929" xlink:href="#m0b332df5f9" y="459.841452"/>
      </g>
     </g>
     <g id="text_8">
      <!-- 122906.21346738291 -->
      <g transform="translate(409.028903 478.602904)scale(0.17 -0.17)">
       <use transform="scale(0.996264)" xlink:href="#CMSS17-49"/>
       <use transform="translate(46.843624 0)scale(0.996264)" xlink:href="#CMSS17-50"/>
       <use transform="translate(93.687247 0)scale(0.996264)" xlink:href="#CMSS17-50"/>
       <use transform="translate(140.530871 0)scale(0.996264)" xlink:href="#CMSS17-57"/>
       <use transform="translate(187.374494 0)scale(0.996264)" xlink:href="#CMSS17-48"/>
       <use transform="translate(234.218118 0)scale(0.996264)" xlink:href="#CMSS17-54"/>
       <use transform="translate(281.061741 0)scale(0.996264)" xlink:href="#CMSS17-46"/>
       <use transform="translate(307.085946 0)scale(0.996264)" xlink:href="#CMSS17-50"/>
       <use transform="translate(353.92957 0)scale(0.996264)" xlink:href="#CMSS17-49"/>
       <use transform="translate(400.773193 0)scale(0.996264)" xlink:href="#CMSS17-51"/>
       <use transform="translate(447.616817 0)scale(0.996264)" xlink:href="#CMSS17-52"/>
       <use transform="translate(494.46044 0)scale(0.996264)" xlink:href="#CMSS17-54"/>
       <use transform="translate(541.304064 0)scale(0.996264)" xlink:href="#CMSS17-55"/>
       <use transform="translate(588.147687 0)scale(0.996264)" xlink:href="#CMSS17-51"/>
       <use transform="translate(634.991311 0)scale(0.996264)" xlink:href="#CMSS17-56"/>
       <use transform="translate(681.834934 0)scale(0.996264)" xlink:href="#CMSS17-50"/>
       <use transform="translate(728.678558 0)scale(0.996264)" xlink:href="#CMSS17-57"/>
       <use transform="translate(775.522181 0)scale(0.996264)" xlink:href="#CMSS17-49"/>
      </g>
     </g>
    </g>
    <g id="text_9">
     <!-- Loss L (`\$) -->
     <g transform="translate(240.144052 498.584507)scale(0.17 -0.17)">
      <defs>
       <path d="M 26.09375 6.5 
C 24.90625 6.5 23.703125 6.390625 22.5 6.390625 
L 17.203125 6.390625 
L 17.203125 69 
L 8.796875 69 
L 8.796875 0 
L 46.90625 0 
L 46.90625 6.5 
z
" id="CMSS17-76"/>
       <path d="M 44.203125 21.1875 
C 44.203125 33.984375 34.703125 44 23.5 44 
C 12 44 2.703125 33.6875 2.703125 21.1875 
C 2.703125 8.5 12.296875 -1 23.40625 -1 
C 34.796875 -1 44.203125 8.796875 44.203125 21.1875 
z
M 23.5 5.296875 
C 16.40625 5.296875 10.296875 11.09375 10.296875 21.984375 
C 10.296875 33.59375 17.40625 37.890625 23.40625 37.890625 
C 29.90625 37.890625 36.59375 33.1875 36.59375 21.984375 
C 36.59375 10.6875 30.09375 5.296875 23.5 5.296875 
z
" id="CMSS17-111"/>
       <path d="M 32.203125 40.984375 
C 26.296875 43.796875 21.703125 44 18.703125 44 
C 11.59375 44 3.09375 41.484375 3.09375 31.390625 
C 3.09375 21.296875 14.09375 19.09375 17.09375 18.484375 
C 21.703125 17.59375 26.796875 16.59375 26.796875 11.59375 
C 26.796875 5.296875 19.59375 5.296875 18.296875 5.296875 
C 14.296875 5.296875 8.796875 6.390625 3.796875 9.984375 
L 2.59375 3.296875 
C 8.296875 0 13.796875 -1 18.40625 -1 
C 30.703125 -1 33.796875 6.5 33.796875 12.1875 
C 33.796875 17.09375 31 20.390625 29.09375 21.890625 
C 25.796875 24.484375 24.59375 24.796875 16.40625 26.484375 
C 15 26.6875 10.09375 27.796875 10.09375 32.296875 
C 10.09375 37.984375 16.40625 37.984375 17.796875 37.984375 
C 24.296875 37.984375 28.296875 35.984375 31 34.484375 
z
" id="CMSS17-115"/>
       <path d="M 25.203125 75 
C 19.796875 69.484375 7.40625 56.671875 7.40625 25.046875 
C 7.40625 -6.6875 19.796875 -19.40625 25.203125 -25 
L 31.296875 -25 
C 19 -12.203125 15 5.71875 15 24.9375 
C 15 44.0625 18.796875 62.078125 31.296875 75 
z
" id="CMSS17-40"/>
       <path d="M 17.09375 69 
L 13.09375 69 
L 9 56.890625 
L 9 48.984375 
L 17 48.984375 
L 17 57 
L 14.5 57 
z
" id="CMSS17-96"/>
       <path d="M 20.40625 75 
L 20.40625 71.1875 
C 11.5 70.09375 5 62 5 53.21875 
C 5 45.328125 10.40625 37.234375 19.203125 35.4375 
C 20.296875 34.9375 20.40625 34.734375 20.40625 33.640625 
L 20.40625 3.875 
C 15.296875 3.984375 10.296875 6.28125 6.296875 9.28125 
C 5.703125 9.671875 5.203125 10.171875 4.59375 10.46875 
C 4.5 9.375 4.09375 8.375 4.09375 7.28125 
C 4.09375 4.578125 14.5 -0.109375 20.40625 -0.21875 
L 20.40625 -4 
L 24.296875 -4 
L 24.296875 -1.109375 
C 24.296875 0.1875 26.703125 0.1875 27.796875 0.6875 
C 35.796875 3.578125 39.703125 11.671875 39.703125 19.46875 
L 39.703125 19.859375 
C 39.59375 27.84375 34.59375 35.734375 26.703125 38.03125 
C 25.703125 38.34375 24.203125 38.34375 24.203125 39.9375 
C 24.203125 40.4375 24.296875 40.9375 24.296875 41.328125 
L 24.296875 67.09375 
C 27.59375 67.09375 31 66 33.796875 64.40625 
C 35.09375 63.609375 36.203125 62.609375 37.5 61.90625 
C 37.703125 62.90625 38.09375 64.203125 38.09375 65.203125 
C 38.09375 66.296875 36.296875 67.09375 35.203125 67.890625 
C 32 69.890625 28.09375 71.1875 24.296875 71.1875 
L 24.296875 75 
z
M 24.296875 3.984375 
L 24.296875 33.9375 
C 31 32.140625 35.40625 26.359375 35.40625 18.96875 
C 35.40625 12.375 31.5 5.1875 24.296875 3.984375 
z
M 20.40625 67 
L 20.40625 39.828125 
C 13.796875 42.03125 9.296875 46.03125 9.296875 53.3125 
C 9.296875 59.3125 13.703125 66.5 20.40625 67 
z
" id="Computer_Modern_Sans_Serif-36"/>
       <path d="M 11.296875 -25 
C 16.703125 -19.5 29.09375 -6.6875 29.09375 24.9375 
C 29.09375 56.671875 16.703125 69.375 11.296875 75 
L 5.203125 75 
C 17.5 62.171875 21.5 44.265625 21.5 25.046875 
C 21.5 5.921875 17.703125 -12.09375 5.203125 -25 
z
" id="CMSS17-41"/>
      </defs>
      <use transform="scale(0.996264)" xlink:href="#CMSS17-76"/>
      <use transform="translate(50.687105 0)scale(0.996264)" xlink:href="#CMSS17-111"/>
      <use transform="translate(97.530729 0)scale(0.996264)" xlink:href="#CMSS17-115"/>
      <use transform="translate(133.444271 0)scale(0.996264)" xlink:href="#CMSS17-115"/>
      <use transform="translate(200.586926 0)scale(0.996264)" xlink:href="#CMSS17-76"/>
      <use transform="translate(282.503144 0)scale(0.996264)" xlink:href="#CMSS17-40"/>
      <use transform="translate(318.937058 0)scale(0.996264)" xlink:href="#CMSS17-96"/>
      <use transform="translate(344.961263 0)scale(0.996264)" xlink:href="#Computer_Modern_Sans_Serif-36"/>
      <use transform="translate(389.60157 0)scale(0.996264)" xlink:href="#CMSS17-41"/>
     </g>
    </g>
   </g>
   <g id="matplotlib.axis_2">
    <g id="ytick_1">
     <g id="line2d_9">
      <defs>
       <path d="M 0 0 
L -3.5 0 
" id="md6eb0813b7" style="stroke:#000000;stroke-width:0.8;"/>
      </defs>
      <g>
       <use style="stroke:#000000;stroke-width:0.8;" x="53.397021" xlink:href="#md6eb0813b7" y="459.841452"/>
      </g>
     </g>
     <g id="text_10">
      <!-- $\mathdefault{0.0}$ -->
      <g transform="translate(26.255739 465.722178)scale(0.17 -0.17)">
       <defs>
        <path d="M 42 31.84375 
C 42 37.96875 41.90625 48.421875 37.703125 56.453125 
C 34 63.484375 28.09375 66 22.90625 66 
C 18.09375 66 12 63.78125 8.203125 56.5625 
C 4.203125 49.015625 3.796875 39.671875 3.796875 31.84375 
C 3.796875 26.109375 3.90625 17.375 7 9.734375 
C 11.296875 -0.609375 19 -2 22.90625 -2 
C 27.5 -2 34.5 -0.109375 38.59375 9.4375 
C 41.59375 16.375 42 24.5 42 31.84375 
z
M 22.90625 -0.40625 
C 16.5 -0.40625 12.703125 5.125 11.296875 12.75 
C 10.203125 18.6875 10.203125 27.328125 10.203125 32.953125 
C 10.203125 40.6875 10.203125 47.109375 11.5 53.234375 
C 13.40625 61.78125 19 64.390625 22.90625 64.390625 
C 27 64.390625 32.296875 61.671875 34.203125 53.4375 
C 35.5 47.71875 35.59375 40.984375 35.59375 32.953125 
C 35.59375 26.421875 35.59375 18.375 34.40625 12.453125 
C 32.296875 1.5 26.40625 -0.40625 22.90625 -0.40625 
z
" id="CMR17-48"/>
        <path d="M 18.40625 4.796875 
C 18.40625 7.6875 16 9.6875 13.59375 9.6875 
C 10.703125 9.6875 8.703125 7.296875 8.703125 4.890625 
C 8.703125 2 11.09375 0 13.5 0 
C 16.40625 0 18.40625 2.390625 18.40625 4.796875 
z
" id="CMMI12-58"/>
       </defs>
       <use transform="scale(0.996264)" xlink:href="#CMR17-48"/>
       <use transform="translate(45.690477 0)scale(0.996264)" xlink:href="#CMMI12-58"/>
       <use transform="translate(72.787654 0)scale(0.996264)" xlink:href="#CMR17-48"/>
      </g>
     </g>
    </g>
    <g id="ytick_2">
     <g id="line2d_10">
      <g>
       <use style="stroke:#000000;stroke-width:0.8;" x="53.397021" xlink:href="#md6eb0813b7" y="396.882243"/>
      </g>
     </g>
     <g id="text_11">
      <!-- $\mathdefault{0.1}$ -->
      <g transform="translate(26.255739 402.762968)scale(0.17 -0.17)">
       <defs>
        <path d="M 26.59375 63.796875 
C 26.59375 65.890625 26.5 66 25.09375 66 
C 21.203125 61.359375 15.296875 59.890625 9.703125 59.6875 
C 9.40625 59.6875 8.90625 59.6875 8.796875 59.5 
C 8.703125 59.296875 8.703125 59.09375 8.703125 57 
C 11.796875 57 17 57.59375 21 59.984375 
L 21 7.296875 
C 21 3.796875 20.796875 2.59375 12.203125 2.59375 
L 9.203125 2.59375 
L 9.203125 0 
C 14 0.09375 19 0.1875 23.796875 0.1875 
C 28.59375 0.1875 33.59375 0.09375 38.40625 0 
L 38.40625 2.59375 
L 35.40625 2.59375 
C 26.796875 2.59375 26.59375 3.6875 26.59375 7.296875 
z
" id="CMR17-49"/>
       </defs>
       <use transform="scale(0.996264)" xlink:href="#CMR17-48"/>
       <use transform="translate(45.690477 0)scale(0.996264)" xlink:href="#CMMI12-58"/>
       <use transform="translate(72.787654 0)scale(0.996264)" xlink:href="#CMR17-49"/>
      </g>
     </g>
    </g>
    <g id="ytick_3">
     <g id="line2d_11">
      <g>
       <use style="stroke:#000000;stroke-width:0.8;" x="53.397021" xlink:href="#md6eb0813b7" y="333.923033"/>
      </g>
     </g>
     <g id="text_12">
      <!-- $\mathdefault{0.2}$ -->
      <g transform="translate(26.255739 339.803759)scale(0.17 -0.17)">
       <defs>
        <path d="M 41.703125 15.46875 
L 39.90625 15.46875 
C 38.90625 8.390625 38.09375 7.1875 37.703125 6.59375 
C 37.203125 5.796875 30 5.796875 28.59375 5.796875 
L 9.40625 5.796875 
C 13 9.6875 20 16.765625 28.5 24.9375 
C 34.59375 30.71875 41.703125 37.5 41.703125 47.390625 
C 41.703125 59.1875 32.296875 66 21.796875 66 
C 10.796875 66 4.09375 56.296875 4.09375 47.296875 
C 4.09375 43.390625 7 42.890625 8.203125 42.890625 
C 9.203125 42.890625 12.203125 43.484375 12.203125 46.984375 
C 12.203125 50.09375 9.59375 51 8.203125 51 
C 7.59375 51 7 50.890625 6.59375 50.6875 
C 8.5 59.1875 14.296875 63.390625 20.40625 63.390625 
C 29.09375 63.390625 34.796875 56.5 34.796875 47.390625 
C 34.796875 38.703125 29.703125 31.21875 24 24.734375 
L 4.09375 2.296875 
L 4.09375 0 
L 39.296875 0 
z
" id="CMR17-50"/>
       </defs>
       <use transform="scale(0.996264)" xlink:href="#CMR17-48"/>
       <use transform="translate(45.690477 0)scale(0.996264)" xlink:href="#CMMI12-58"/>
       <use transform="translate(72.787654 0)scale(0.996264)" xlink:href="#CMR17-50"/>
      </g>
     </g>
    </g>
    <g id="ytick_4">
     <g id="line2d_12">
      <g>
       <use style="stroke:#000000;stroke-width:0.8;" x="53.397021" xlink:href="#md6eb0813b7" y="270.963824"/>
      </g>
     </g>
     <g id="text_13">
      <!-- $\mathdefault{0.3}$ -->
      <g transform="translate(26.255739 276.84455)scale(0.17 -0.17)">
       <defs>
        <path d="M 22.09375 34 
C 31 34 34.90625 26.140625 34.90625 17.09375 
C 34.90625 5.03125 28.5 0.390625 22.703125 0.390625 
C 17.40625 0.390625 8.796875 3.015625 6.09375 10.796875 
C 6.59375 10.59375 7.09375 10.59375 7.59375 10.59375 
C 10 10.59375 11.796875 12.1875 11.796875 14.796875 
C 11.796875 17.6875 9.59375 19 7.59375 19 
C 5.90625 19 3.296875 18.1875 3.296875 14.484375 
C 3.296875 5.234375 12.296875 -2 22.90625 -2 
C 34 -2 42.5 6.75 42.5 16.984375 
C 42.5 26.84375 34.5 34 25 35.09375 
C 32.59375 36.671875 39.90625 43.375 39.90625 52.390625 
C 39.90625 60.25 32 66 23 66 
C 13.90625 66 5.90625 60.34375 5.90625 52.296875 
C 5.90625 48.796875 8.5 48.1875 9.796875 48.1875 
C 11.90625 48.1875 13.703125 49.484375 13.703125 52.09375 
C 13.703125 54.6875 11.90625 56 9.796875 56 
C 9.40625 56 8.90625 56 8.5 55.796875 
C 11.40625 62.484375 19.296875 63.6875 22.796875 63.6875 
C 26.296875 63.6875 32.90625 61.96875 32.90625 52.296875 
C 32.90625 49.484375 32.5 44.546875 29.09375 40.21875 
C 26.09375 36.390625 22.703125 36.1875 19.40625 35.890625 
C 18.90625 35.890625 16.59375 35.6875 16.203125 35.6875 
C 15.5 35.59375 15.09375 35.5 15.09375 34.796875 
C 15.09375 34.09375 15.203125 34 17.203125 34 
z
" id="CMR17-51"/>
       </defs>
       <use transform="scale(0.996264)" xlink:href="#CMR17-48"/>
       <use transform="translate(45.690477 0)scale(0.996264)" xlink:href="#CMMI12-58"/>
       <use transform="translate(72.787654 0)scale(0.996264)" xlink:href="#CMR17-51"/>
      </g>
     </g>
    </g>
    <g id="ytick_5">
     <g id="line2d_13">
      <g>
       <use style="stroke:#000000;stroke-width:0.8;" x="53.397021" xlink:href="#md6eb0813b7" y="208.004615"/>
      </g>
     </g>
     <g id="text_14">
      <!-- $\mathdefault{0.4}$ -->
      <g transform="translate(26.255739 213.885341)scale(0.17 -0.17)">
       <defs>
        <path d="M 33.59375 64.796875 
C 33.59375 66.890625 33.5 67 31.703125 67 
L 2 19.59375 
L 2 17 
L 27.796875 17 
L 27.796875 7.1875 
C 27.796875 3.59375 27.59375 2.59375 20.59375 2.59375 
L 18.703125 2.59375 
L 18.703125 0 
C 21.90625 0.1875 27.296875 0.1875 30.703125 0.1875 
C 34.09375 0.1875 39.5 0.1875 42.703125 0 
L 42.703125 2.59375 
L 40.796875 2.59375 
C 33.796875 2.59375 33.59375 3.59375 33.59375 7.1875 
L 33.59375 17 
L 43.796875 17 
L 43.796875 19.59375 
L 33.59375 19.59375 
z
M 28.09375 58.171875 
L 28.09375 19.59375 
L 4 19.59375 
z
" id="CMR17-52"/>
       </defs>
       <use transform="scale(0.996264)" xlink:href="#CMR17-48"/>
       <use transform="translate(45.690477 0)scale(0.996264)" xlink:href="#CMMI12-58"/>
       <use transform="translate(72.787654 0)scale(0.996264)" xlink:href="#CMR17-52"/>
      </g>
     </g>
    </g>
    <g id="ytick_6">
     <g id="line2d_14">
      <g>
       <use style="stroke:#000000;stroke-width:0.8;" x="53.397021" xlink:href="#md6eb0813b7" y="145.045405"/>
      </g>
     </g>
     <g id="text_15">
      <!-- $\mathdefault{0.5}$ -->
      <g transform="translate(26.255739 150.926131)scale(0.17 -0.17)">
       <defs>
        <path d="M 11.40625 58.59375 
C 12.40625 58.1875 16.5 56.890625 20.703125 56.890625 
C 30 56.890625 35.09375 61.890625 38 64.6875 
C 38 65.484375 38 66 37.40625 66 
C 37.296875 66 37.09375 66 36.296875 65.59375 
C 32.796875 64.09375 28.703125 63 23.703125 63 
C 20.703125 63 16.203125 63.359375 11.296875 65.484375 
C 10.203125 66 10 66 9.90625 66 
C 9.40625 66 9.296875 65.890625 9.296875 63.90625 
L 9.296875 34.859375 
C 9.296875 33.015625 9.296875 32.5 10.296875 32.5 
C 10.796875 32.5 11 32.703125 11.5 33.421875 
C 14.703125 38.046875 19.09375 40 24.09375 40 
C 27.59375 40 35.09375 37.734375 35.09375 20.203125 
C 35.09375 16.984375 35.09375 11.1875 32.09375 6.59375 
C 29.59375 2.484375 25.703125 0.390625 21.40625 0.390625 
C 14.796875 0.390625 8.09375 4.984375 6.296875 12.6875 
C 6.703125 12.59375 7.5 12.390625 7.90625 12.390625 
C 9.203125 12.390625 11.703125 13.09375 11.703125 16.1875 
C 11.703125 18.890625 9.796875 20 7.90625 20 
C 5.59375 20 4.09375 18.59375 4.09375 15.796875 
C 4.09375 7.09375 11 -2 21.59375 -2 
C 31.90625 -2 41.703125 6.890625 41.703125 19.796875 
C 41.703125 32.09375 33.90625 41.59375 24.203125 41.59375 
C 19.09375 41.59375 14.796875 39.6875 11.40625 36 
z
" id="CMR17-53"/>
       </defs>
       <use transform="scale(0.996264)" xlink:href="#CMR17-48"/>
       <use transform="translate(45.690477 0)scale(0.996264)" xlink:href="#CMMI12-58"/>
       <use transform="translate(72.787654 0)scale(0.996264)" xlink:href="#CMR17-53"/>
      </g>
     </g>
    </g>
    <g id="ytick_7">
     <g id="line2d_15">
      <g>
       <use style="stroke:#000000;stroke-width:0.8;" x="53.397021" xlink:href="#md6eb0813b7" y="82.086196"/>
      </g>
     </g>
     <g id="text_16">
      <!-- $\mathdefault{0.6}$ -->
      <g transform="translate(26.255739 87.966922)scale(0.17 -0.17)">
       <defs>
        <path d="M 10.59375 34.34375 
C 10.59375 58 21.796875 63.6875 28.296875 63.6875 
C 30.40625 63.6875 35.5 63.265625 37.5 59.09375 
C 35.90625 59.09375 32.90625 59.09375 32.90625 55.59375 
C 32.90625 52.890625 35.09375 52 36.5 52 
C 37.40625 52 40.09375 52.390625 40.09375 55.796875 
C 40.09375 62.296875 35.09375 66 28.203125 66 
C 16.296875 66 3.796875 53.296875 3.796875 31.421875 
C 3.796875 4.015625 15.09375 -2 23.09375 -2 
C 32.796875 -2 42 6.734375 42 20.234375 
C 42 32.828125 33.90625 42 23.703125 42 
C 17.59375 42 13.09375 37.96875 10.59375 30.921875 
z
M 23.09375 0.390625 
C 10.796875 0.390625 10.796875 18.9375 10.796875 22.65625 
C 10.796875 29.90625 14.203125 40.390625 23.5 40.390625 
C 25.203125 40.390625 30.09375 40.390625 33.40625 33.4375 
C 35.203125 29.515625 35.203125 25.375 35.203125 20.34375 
C 35.203125 14.90625 35.203125 10.875 33.09375 6.84375 
C 30.90625 2.703125 27.703125 0.390625 23.09375 0.390625 
z
" id="CMR17-54"/>
       </defs>
       <use transform="scale(0.996264)" xlink:href="#CMR17-48"/>
       <use transform="translate(45.690477 0)scale(0.996264)" xlink:href="#CMMI12-58"/>
       <use transform="translate(72.787654 0)scale(0.996264)" xlink:href="#CMR17-54"/>
      </g>
     </g>
    </g>
    <g id="text_17">
     <!-- probability -->
     <g transform="translate(18.961452 276.950444)rotate(-90)scale(0.17 -0.17)">
      <defs>
       <path d="M 15.09375 4.296875 
C 18.40625 1.09375 22.90625 -1 27.703125 -1 
C 37 -1 45 8.640625 45 21.59375 
C 45 33.546875 39 44 30.40625 44 
C 25.40625 44 19.40625 42.1875 14.90625 38.59375 
L 14.90625 43.1875 
L 7.5 43.1875 
L 7.5 -20 
L 15.09375 -20 
z
M 15.09375 32.625 
C 15.90625 33.84375 19.296875 37.6875 24.796875 37.6875 
C 31.796875 37.6875 37.40625 30.40625 37.40625 21.59375 
C 37.40625 11.578125 30.59375 5.09375 23.90625 5.09375 
C 21.90625 5.09375 19.796875 5.59375 17.796875 7.3125 
C 15.09375 9.75 15.09375 11.265625 15.09375 12.6875 
z
" id="CMSS17-112"/>
       <path d="M 14.90625 21.390625 
C 14.90625 30.84375 21.796875 37.171875 30.59375 37.375 
L 30.59375 44 
C 24.203125 43.890625 18.203125 40.6875 14.59375 35.46875 
L 14.59375 43.484375 
L 7.5 43.484375 
L 7.5 0 
L 14.90625 0 
z
" id="CMSS17-114"/>
       <path d="M 14.90625 69 
L 7.5 69 
L 7.5 -0.203125 
L 15.09375 -0.203125 
L 15.09375 4.296875 
C 18.90625 0.59375 23.5 -1 27.59375 -1 
C 37.203125 -1 45 8.734375 45 21.59375 
C 45 33.328125 39 44 30.09375 44 
C 23.796875 44 18.203125 41.390625 14.90625 38.6875 
z
M 15.09375 32.734375 
C 17.296875 35.5625 20.40625 37.890625 24.796875 37.890625 
C 30.703125 37.890625 37.40625 33.53125 37.40625 21.59375 
C 37.40625 8.84375 29.40625 5.09375 23.90625 5.09375 
C 21.90625 5.09375 19.796875 5.59375 17.796875 7.3125 
C 15.09375 9.75 15.09375 11.265625 15.09375 12.6875 
z
" id="CMSS17-98"/>
       <path d="M 37.59375 27.953125 
C 37.59375 37.484375 30.90625 44 21.90625 44 
C 17.5 44 12.703125 43.1875 7.203125 39.984375 
L 7.796875 33.328125 
C 10.296875 35.15625 14.59375 38.09375 21.796875 38.09375 
C 26.90625 38.09375 30 34.140625 30 27.84375 
L 30 24 
C 14 23.5 4 18.890625 4 11.109375 
C 4 7.0625 6.5 -1 14.796875 -1 
C 16.296875 -1 24.40625 -0.8125 30.203125 3.5 
L 30.203125 -0.203125 
L 37.59375 -0.203125 
z
M 30 12.875 
C 30 11.109375 30 8.734375 27 6.96875 
C 24.40625 5.296875 21.09375 5.09375 19.703125 5.09375 
C 14.703125 5.09375 11.296875 7.859375 11.296875 11.296875 
C 11.296875 18.203125 26.90625 18.890625 30 19 
z
" id="CMSS17-97"/>
       <path d="M 15.296875 66 
L 6.90625 66 
L 6.90625 57.59375 
L 15.296875 57.59375 
z
M 14.796875 43 
L 7.40625 43 
L 7.40625 0 
L 14.796875 0 
z
" id="CMSS17-105"/>
       <path d="M 14.796875 69 
L 7.40625 69 
L 7.40625 0 
L 14.796875 0 
z
" id="CMSS17-108"/>
       <path d="M 16.703125 37.1875 
L 29.703125 37.1875 
L 29.703125 43 
L 16.703125 43 
L 16.703125 55 
L 9.59375 55 
L 9.59375 43 
L 1.703125 43 
L 1.703125 37.1875 
L 9.40625 37.1875 
L 9.40625 11.734375 
C 9.40625 6 10.703125 -1 17.296875 -1 
C 22.296875 -1 26.90625 0.390625 31.296875 2.6875 
L 29.703125 8.609375 
C 27.296875 6.5 24.40625 5.296875 21.296875 5.296875 
C 16.90625 5.296875 16.703125 10.921875 16.703125 13.4375 
z
" id="CMSS17-116"/>
       <path d="M 41.796875 43 
L 34 43 
C 25.5 20.203125 22.59375 10.953125 22.40625 5.984375 
L 22.296875 5.984375 
C 22 10.859375 17.59375 22.796875 14.09375 31.34375 
L 9.40625 43 
L 1.296875 43 
L 19 0.21875 
C 17.90625 -2.765625 16.296875 -7.25 15.796875 -8.234375 
C 13.59375 -13.8125 12.09375 -13.8125 10.5 -13.8125 
C 10.09375 -13.8125 6.90625 -13.703125 3.296875 -12.609375 
L 3.90625 -19.203125 
C 6.40625 -19.703125 8.90625 -20 10.703125 -20 
C 13.203125 -20 18.203125 -20 22.796875 -7.734375 
z
" id="CMSS17-121"/>
      </defs>
      <use transform="scale(0.996264)" xlink:href="#CMSS17-112"/>
      <use transform="translate(45.602489 0)scale(0.996264)" xlink:href="#CMSS17-114"/>
      <use transform="translate(77.512262 0)scale(0.996264)" xlink:href="#CMSS17-111"/>
      <use transform="translate(124.355885 0)scale(0.996264)" xlink:href="#CMSS17-98"/>
      <use transform="translate(172.560828 0)scale(0.996264)" xlink:href="#CMSS17-97"/>
      <use transform="translate(217.482749 0)scale(0.996264)" xlink:href="#CMSS17-98"/>
      <use transform="translate(265.687692 0)scale(0.996264)" xlink:href="#CMSS17-105"/>
      <use transform="translate(287.868415 0)scale(0.996264)" xlink:href="#CMSS17-108"/>
      <use transform="translate(310.049138 0)scale(0.996264)" xlink:href="#CMSS17-105"/>
      <use transform="translate(332.229861 0)scale(0.996264)" xlink:href="#CMSS17-116"/>
      <use transform="translate(363.458974 0)scale(0.996264)" xlink:href="#CMSS17-121"/>
     </g>
    </g>
   </g>
   <g id="line2d_16">
    <path clip-path="url(#pfa01b4cfcc)" d="M 113.138851 459.841452 
L 113.138851 24.961452 
" style="fill:none;stroke:#008000;stroke-dasharray:5.55,2.4;stroke-dashoffset:0;stroke-width:1.5;"/>
   </g>
   <g id="line2d_17">
    <path clip-path="url(#pfa01b4cfcc)" d="M 254.717971 459.841452 
L 254.717971 24.961452 
" style="fill:none;stroke:#ffa500;stroke-dasharray:5.55,2.4;stroke-dashoffset:0;stroke-width:1.5;"/>
   </g>
   <g id="patch_11">
    <path d="M 53.397021 459.841452 
L 53.397021 24.961452 
" style="fill:none;stroke:#000000;stroke-linecap:square;stroke-linejoin:miter;stroke-width:0.8;"/>
   </g>
   <g id="patch_12">
    <path d="M 499.797021 459.841452 
L 499.797021 24.961452 
" style="fill:none;stroke:#000000;stroke-linecap:square;stroke-linejoin:miter;stroke-width:0.8;"/>
   </g>
   <g id="patch_13">
    <path d="M 53.397021 459.841452 
L 499.797021 459.841452 
" style="fill:none;stroke:#000000;stroke-linecap:square;stroke-linejoin:miter;stroke-width:0.8;"/>
   </g>
   <g id="patch_14">
    <path d="M 53.397021 24.961452 
L 499.797021 24.961452 
" style="fill:none;stroke:#000000;stroke-linecap:square;stroke-linejoin:miter;stroke-width:0.8;"/>
   </g>
   <g id="text_18">
    <!-- PDF of Total Loss -->
    <g transform="translate(215.152831 18.961452)scale(0.17 -0.17)">
     <defs>
      <path d="M 32.90625 29 
C 44.90625 29 54.703125 38.234375 54.703125 49.046875 
C 54.703125 59.65625 45.296875 69 32.296875 69 
L 8.90625 69 
L 8.90625 0 
L 17.296875 0 
L 17.296875 29 
z
M 30.09375 63.390625 
C 41.703125 63.390625 46.796875 56.21875 46.796875 49.046875 
C 46.796875 42.359375 42.09375 34.796875 30.09375 34.796875 
L 17.09375 34.796875 
L 17.09375 63.390625 
z
" id="CMSS17-80"/>
      <path d="M 8.90625 69 
L 8.90625 0 
L 33.5 0 
C 49.90625 0 62.5 15.328125 62.5 33.890625 
C 62.5 53.0625 49.90625 69 33.5 69 
z
M 17.09375 5.59375 
L 17.09375 63.390625 
L 31.296875 63.390625 
C 44.703125 63.390625 54.296875 51.171875 54.296875 33.890625 
C 54.296875 17.3125 44.796875 5.59375 31.296875 5.59375 
z
" id="CMSS17-68"/>
      <path d="M 45.59375 31 
L 45.59375 37.09375 
L 17.203125 37.09375 
L 17.203125 62.390625 
L 29.40625 62.390625 
C 30.59375 62.390625 31.796875 62.296875 33 62.296875 
L 49.5 62.296875 
L 49.5 68.796875 
L 8.796875 68.796875 
L 8.796875 0 
L 17.203125 0 
L 17.203125 31 
z
" id="CMSS17-70"/>
      <path d="M 16.796875 37.1875 
L 26.90625 37.1875 
L 26.90625 43 
L 16.59375 43 
L 16.59375 55.671875 
C 16.59375 62.703125 22 63.890625 25.09375 63.890625 
C 26.09375 63.890625 28.90625 63.890625 32.5 62.609375 
L 32.5 69.1875 
C 30.203125 69.6875 27.40625 70 25.203125 70 
C 15.90625 70 9.40625 62.40625 9.40625 52.59375 
L 9.40625 43 
L 2.5 43 
L 2.5 37.1875 
L 9.40625 37.1875 
L 9.40625 0 
L 16.796875 0 
z
" id="CMSS17-102"/>
      <path d="M 36.203125 62.296875 
L 44.5 62.296875 
C 45.703125 62.296875 46.90625 62.1875 48.09375 62.1875 
L 60.59375 62.1875 
L 60.59375 68.6875 
L 3.40625 68.6875 
L 3.40625 62.1875 
L 15.90625 62.1875 
C 17.09375 62.1875 18.296875 62.296875 19.5 62.296875 
L 27.796875 62.296875 
L 27.796875 0 
L 36.203125 0 
z
" id="CMSS17-84"/>
     </defs>
     <use transform="scale(0.996264)" xlink:href="#CMSS17-80"/>
     <use transform="translate(59.735586 0)scale(0.996264)" xlink:href="#CMSS17-68"/>
     <use transform="translate(127.278428 0)scale(0.996264)" xlink:href="#CMSS17-70"/>
     <use transform="translate(211.7971 0)scale(0.996264)" xlink:href="#CMSS17-111"/>
     <use transform="translate(258.640724 0)scale(0.996264)" xlink:href="#CMSS17-102"/>
     <use transform="translate(318.496495 0)scale(0.996264)" xlink:href="#CMSS17-84"/>
     <use transform="translate(374.508694 0)scale(0.996264)" xlink:href="#CMSS17-111"/>
     <use transform="translate(421.352317 0)scale(0.996264)" xlink:href="#CMSS17-116"/>
     <use transform="translate(455.183884 0)scale(0.996264)" xlink:href="#CMSS17-97"/>
     <use transform="translate(500.105804 0)scale(0.996264)" xlink:href="#CMSS17-108"/>
     <use transform="translate(553.51564 0)scale(0.996264)" xlink:href="#CMSS17-76"/>
     <use transform="translate(604.202746 0)scale(0.996264)" xlink:href="#CMSS17-111"/>
     <use transform="translate(651.046369 0)scale(0.996264)" xlink:href="#CMSS17-115"/>
     <use transform="translate(686.959911 0)scale(0.996264)" xlink:href="#CMSS17-115"/>
    </g>
   </g>
   <g id="legend_1">
    <g id="patch_15">
     <path d="M 384.450644 89.836047 
L 487.897021 89.836047 
Q 491.297021 89.836047 491.297021 86.436047 
L 491.297021 36.861452 
Q 491.297021 33.461452 487.897021 33.461452 
L 384.450644 33.461452 
Q 381.050644 33.461452 381.050644 36.861452 
L 381.050644 86.436047 
Q 381.050644 89.836047 384.450644 89.836047 
z
" style="fill:#ffffff;opacity:0.8;stroke:#cccccc;stroke-linejoin:miter;"/>
    </g>
    <g id="line2d_18">
     <path d="M 387.850644 47.228796 
L 421.850644 47.228796 
" style="fill:none;stroke:#008000;stroke-dasharray:5.55,2.4;stroke-dashoffset:0;stroke-width:1.5;"/>
    </g>
    <g id="line2d_19"/>
    <g id="text_19">
     <!-- E[L] -->
     <g transform="translate(435.450644 53.178796)scale(0.17 -0.17)">
      <defs>
       <path d="M 30.59375 6.796875 
C 22.59375 6.796875 19 6.796875 17.203125 6.6875 
L 17.203125 32.890625 
L 48.203125 32.890625 
L 48.203125 39 
L 17.203125 39 
L 17.203125 62.390625 
L 30.09375 62.390625 
C 31.296875 62.390625 32.5 62.296875 33.703125 62.296875 
L 50.796875 62.296875 
L 50.796875 68.796875 
L 8.796875 68.796875 
L 8.796875 0 
L 52.09375 0 
L 52.09375 6.890625 
z
" id="CMSS17-69"/>
       <path d="M 25.203125 -25 
L 25.203125 -18.90625 
L 16.59375 -18.90625 
L 16.59375 68.890625 
L 25.203125 68.890625 
L 25.203125 75 
L 9.296875 75 
L 9.296875 -25 
z
" id="CMSS17-91"/>
       <path d="M 17.90625 75 
L 2 75 
L 2 68.890625 
L 10.59375 68.890625 
L 10.59375 -18.90625 
L 2 -18.90625 
L 2 -25 
L 17.90625 -25 
z
" id="CMSS17-93"/>
      </defs>
      <use transform="scale(0.996264)" xlink:href="#CMSS17-69"/>
      <use transform="translate(55.892013 0)scale(0.996264)" xlink:href="#CMSS17-91"/>
      <use transform="translate(83.077452 0)scale(0.996264)" xlink:href="#CMSS17-76"/>
      <use transform="translate(133.764557 0)scale(0.996264)" xlink:href="#CMSS17-93"/>
     </g>
    </g>
    <g id="line2d_20">
     <path d="M 387.850644 72.866093 
L 421.850644 72.866093 
" style="fill:none;stroke:#ffa500;stroke-dasharray:5.55,2.4;stroke-dashoffset:0;stroke-width:1.5;"/>
    </g>
    <g id="line2d_21"/>
    <g id="text_20">
     <!-- VaR(L) -->
     <g transform="translate(435.450644 78.816093)scale(0.17 -0.17)">
      <defs>
       <path d="M 61.09375 69 
L 53.296875 69 
L 36 21.265625 
C 35.5 19.875 32.40625 10.734375 31.796875 7.5625 
L 31.703125 7.5625 
C 30.90625 11.328125 27.703125 20.171875 26 25.046875 
L 14.40625 57.34375 
L 10.09375 69 
L 1.296875 69 
L 26.796875 0 
L 35.59375 0 
z
" id="CMSS17-86"/>
       <path d="M 39.40625 32.796875 
L 39.59375 32.890625 
C 55.203125 38.28125 55.296875 48.828125 55.296875 50.6875 
C 55.296875 59.96875 45.703125 69 31.296875 69 
L 8.90625 69 
L 8.90625 0 
L 17.09375 0 
L 17.09375 31.890625 
L 31.796875 31.890625 
L 49.5 0 
L 57.90625 0 
z
M 17.09375 38 
L 17.09375 63.390625 
L 30.203125 63.390625 
C 42.90625 63.390625 47.40625 56.359375 47.40625 50.6875 
C 47.40625 45.421875 43.40625 38 30.203125 38 
z
" id="CMSS17-82"/>
      </defs>
      <use transform="scale(0.996264)" xlink:href="#CMSS17-86"/>
      <use transform="translate(59.615401 0)scale(0.996264)" xlink:href="#CMSS17-97"/>
      <use transform="translate(104.537322 0)scale(0.996264)" xlink:href="#CMSS17-82"/>
      <use transform="translate(164.953476 0)scale(0.996264)" xlink:href="#CMSS17-40"/>
      <use transform="translate(201.387391 0)scale(0.996264)" xlink:href="#CMSS17-76"/>
      <use transform="translate(252.074496 0)scale(0.996264)" xlink:href="#CMSS17-41"/>
     </g>
    </g>
   </g>
  </g>
 </g>
 <defs>
  <clipPath id="pfa01b4cfcc">
   <rect height="434.88" width="446.4" x="53.397021" y="24.961452"/>
  </clipPath>
 </defs>
</svg>
