<?xml version="1.0" encoding="utf-8" standalone="no"?>
<!DOCTYPE svg PUBLIC "-//W3C//DTD SVG 1.1//EN"
  "http://www.w3.org/Graphics/SVG/1.1/DTD/svg11.dtd">
<svg height="510.004461pt" version="1.1" viewBox="0 0 506.997021 510.004461" width="506.997021pt" xmlns="http://www.w3.org/2000/svg" xmlns:xlink="http://www.w3.org/1999/xlink">
 <metadata>
  <rdf:RDF xmlns:cc="http://creativecommons.org/ns#" xmlns:dc="http://purl.org/dc/elements/1.1/" xmlns:rdf="http://www.w3.org/1999/02/22-rdf-syntax-ns#">
   <cc:Work>
    <dc:type rdf:resource="http://purl.org/dc/dcmitype/StillImage"/>
    <dc:date>2022-05-04T16:56:41.438590</dc:date>
    <dc:format>image/svg+xml</dc:format>
    <dc:creator>
     <cc:Agent>
      <dc:title>Matplotlib v3.4.3, https://matplotlib.org/</dc:title>
     </cc:Agent>
    </dc:creator>
   </cc:Work>
  </rdf:RDF>
 </metadata>
 <defs>
  <style type="text/css">*{stroke-linecap:butt;stroke-linejoin:round;}</style>
 </defs>
 <g id="figure_1">
  <g id="patch_1">
   <path d="M 0 510.004461 
L 506.997021 510.004461 
L 506.997021 0 
L 0 0 
z
" style="fill:none;"/>
  </g>
  <g id="axes_1">
   <g id="patch_2">
    <path d="M 53.397021 459.841452 
L 499.797021 459.841452 
L 499.797021 24.961452 
L 53.397021 24.961452 
z
" style="fill:#ffffff;"/>
   </g>
   <g id="patch_3">
    <path clip-path="url(#p952e75bd06)" d="M 73.68793 459.841452 
L 81.778004 459.841452 
L 81.778004 45.670023 
L 73.68793 45.670023 
z
" style="fill:#1f77b4;"/>
   </g>
   <g id="patch_4">
    <path clip-path="url(#p952e75bd06)" d="M 133.252105 459.841452 
L 141.342178 459.841452 
L 141.342178 327.160802 
L 133.252105 327.160802 
z
" style="fill:#1f77b4;"/>
   </g>
   <g id="patch_5">
    <path clip-path="url(#p952e75bd06)" d="M 234.491759 459.841452 
L 242.581833 459.841452 
L 242.581833 431.634658 
L 234.491759 431.634658 
z
" style="fill:#1f77b4;"/>
   </g>
   <g id="patch_6">
    <path clip-path="url(#p952e75bd06)" d="M 251.048035 459.841452 
L 259.138108 459.841452 
L 259.138108 432.160034 
L 251.048035 432.160034 
z
" style="fill:#1f77b4;"/>
   </g>
   <g id="patch_7">
    <path clip-path="url(#p952e75bd06)" d="M 294.055934 459.841452 
L 302.146008 459.841452 
L 302.146008 447.949174 
L 294.055934 447.949174 
z
" style="fill:#1f77b4;"/>
   </g>
   <g id="patch_8">
    <path clip-path="url(#p952e75bd06)" d="M 310.61221 459.841452 
L 318.702283 459.841452 
L 318.702283 449.427387 
L 310.61221 449.427387 
z
" style="fill:#1f77b4;"/>
   </g>
   <g id="patch_9">
    <path clip-path="url(#p952e75bd06)" d="M 411.851864 459.841452 
L 419.941937 459.841452 
L 419.941937 456.744691 
L 411.851864 456.744691 
z
" style="fill:#1f77b4;"/>
   </g>
   <g id="patch_10">
    <path clip-path="url(#p952e75bd06)" d="M 471.416039 459.841452 
L 479.506112 459.841452 
L 479.506112 458.405698 
L 471.416039 458.405698 
z
" style="fill:#1f77b4;"/>
   </g>
   <g id="matplotlib.axis_1">
    <g id="xtick_1">
     <g id="line2d_1">
      <defs>
       <path d="M 0 0 
L 0 3.5 
" id="mbcab2b35d4" style="stroke:#000000;stroke-width:0.8;"/>
      </defs>
      <g>
       <use style="stroke:#000000;stroke-width:0.8;" x="77.732967" xlink:href="#mbcab2b35d4" y="459.841452"/>
      </g>
     </g>
     <g id="text_1">
      <!-- $\mathdefault{0}$ -->
      <g transform="translate(73.849276 478.602904)scale(0.17 -0.17)">
       <defs>
        <path d="M 2688 2038 
C 2688 2430 2682 3099 2413 3613 
C 2176 4063 1798 4224 1466 4224 
C 1158 4224 768 4082 525 3620 
C 269 3137 243 2539 243 2038 
C 243 1671 250 1112 448 623 
C 723 -39 1216 -128 1466 -128 
C 1760 -128 2208 -7 2470 604 
C 2662 1048 2688 1568 2688 2038 
z
M 1466 -26 
C 1056 -26 813 328 723 816 
C 653 1196 653 1749 653 2109 
C 653 2604 653 3015 736 3407 
C 858 3954 1216 4121 1466 4121 
C 1728 4121 2067 3947 2189 3420 
C 2272 3054 2278 2623 2278 2109 
C 2278 1691 2278 1176 2202 797 
C 2067 96 1690 -26 1466 -26 
z
" id="CMR17-30" transform="scale(0.015625)"/>
       </defs>
       <use transform="scale(0.996264)" xlink:href="#CMR17-30"/>
      </g>
     </g>
    </g>
    <g id="xtick_2">
     <g id="line2d_2">
      <g>
       <use style="stroke:#000000;stroke-width:0.8;" x="142.453553" xlink:href="#mbcab2b35d4" y="459.841452"/>
      </g>
     </g>
     <g id="text_2">
      <!-- $\mathdefault{20000}$ -->
      <g transform="translate(123.0351 478.602904)scale(0.17 -0.17)">
       <defs>
        <path d="M 2669 990 
L 2554 990 
C 2490 537 2438 460 2413 422 
C 2381 371 1920 371 1830 371 
L 602 371 
C 832 620 1280 1073 1824 1596 
C 2214 1966 2669 2400 2669 3033 
C 2669 3788 2067 4224 1395 4224 
C 691 4224 262 3603 262 3027 
C 262 2777 448 2745 525 2745 
C 589 2745 781 2783 781 3007 
C 781 3206 614 3264 525 3264 
C 486 3264 448 3257 422 3244 
C 544 3788 915 4057 1306 4057 
C 1862 4057 2227 3616 2227 3033 
C 2227 2477 1901 1998 1536 1583 
L 262 147 
L 262 0 
L 2515 0 
L 2669 990 
z
" id="CMR17-32" transform="scale(0.015625)"/>
       </defs>
       <use transform="scale(0.996264)" xlink:href="#CMR17-32"/>
       <use transform="translate(45.690477 0)scale(0.996264)" xlink:href="#CMR17-30"/>
       <use transform="translate(91.380954 0)scale(0.996264)" xlink:href="#CMR17-30"/>
       <use transform="translate(137.071431 0)scale(0.996264)" xlink:href="#CMR17-30"/>
       <use transform="translate(182.761908 0)scale(0.996264)" xlink:href="#CMR17-30"/>
      </g>
     </g>
    </g>
    <g id="xtick_3">
     <g id="line2d_3">
      <g>
       <use style="stroke:#000000;stroke-width:0.8;" x="207.174139" xlink:href="#mbcab2b35d4" y="459.841452"/>
      </g>
     </g>
     <g id="text_3">
      <!-- $\mathdefault{40000}$ -->
      <g transform="translate(187.755686 478.602904)scale(0.17 -0.17)">
       <defs>
        <path d="M 2150 4147 
C 2150 4281 2144 4288 2029 4288 
L 128 1254 
L 128 1088 
L 1779 1088 
L 1779 460 
C 1779 230 1766 166 1318 166 
L 1197 166 
L 1197 0 
C 1402 12 1747 12 1965 12 
C 2182 12 2528 12 2733 0 
L 2733 166 
L 2611 166 
C 2163 166 2150 230 2150 460 
L 2150 1088 
L 2803 1088 
L 2803 1254 
L 2150 1254 
L 2150 4147 
z
M 1798 3723 
L 1798 1254 
L 256 1254 
L 1798 3723 
z
" id="CMR17-34" transform="scale(0.015625)"/>
       </defs>
       <use transform="scale(0.996264)" xlink:href="#CMR17-34"/>
       <use transform="translate(45.690477 0)scale(0.996264)" xlink:href="#CMR17-30"/>
       <use transform="translate(91.380954 0)scale(0.996264)" xlink:href="#CMR17-30"/>
       <use transform="translate(137.071431 0)scale(0.996264)" xlink:href="#CMR17-30"/>
       <use transform="translate(182.761908 0)scale(0.996264)" xlink:href="#CMR17-30"/>
      </g>
     </g>
    </g>
    <g id="xtick_4">
     <g id="line2d_4">
      <g>
       <use style="stroke:#000000;stroke-width:0.8;" x="271.894725" xlink:href="#mbcab2b35d4" y="459.841452"/>
      </g>
     </g>
     <g id="text_4">
      <!-- $\mathdefault{60000}$ -->
      <g transform="translate(252.476272 478.602904)scale(0.17 -0.17)">
       <defs>
        <path d="M 678 2198 
C 678 3712 1395 4076 1811 4076 
C 1946 4076 2272 4049 2400 3782 
C 2298 3782 2106 3782 2106 3558 
C 2106 3385 2246 3328 2336 3328 
C 2394 3328 2566 3353 2566 3571 
C 2566 3987 2246 4224 1805 4224 
C 1043 4224 243 3411 243 2011 
C 243 257 966 -128 1478 -128 
C 2099 -128 2688 431 2688 1295 
C 2688 2101 2170 2688 1517 2688 
C 1126 2688 838 2430 678 1979 
L 678 2198 
z
M 1478 25 
C 691 25 691 1212 691 1450 
C 691 1914 909 2585 1504 2585 
C 1613 2585 1926 2585 2138 2140 
C 2253 1889 2253 1624 2253 1302 
C 2253 954 2253 696 2118 438 
C 1978 173 1773 25 1478 25 
z
" id="CMR17-36" transform="scale(0.015625)"/>
       </defs>
       <use transform="scale(0.996264)" xlink:href="#CMR17-36"/>
       <use transform="translate(45.690477 0)scale(0.996264)" xlink:href="#CMR17-30"/>
       <use transform="translate(91.380954 0)scale(0.996264)" xlink:href="#CMR17-30"/>
       <use transform="translate(137.071431 0)scale(0.996264)" xlink:href="#CMR17-30"/>
       <use transform="translate(182.761908 0)scale(0.996264)" xlink:href="#CMR17-30"/>
      </g>
     </g>
    </g>
    <g id="xtick_5">
     <g id="line2d_5">
      <g>
       <use style="stroke:#000000;stroke-width:0.8;" x="336.615311" xlink:href="#mbcab2b35d4" y="459.841452"/>
      </g>
     </g>
     <g id="text_5">
      <!-- $\mathdefault{80000}$ -->
      <g transform="translate(317.196859 478.602904)scale(0.17 -0.17)">
       <defs>
        <path d="M 1741 2289 
C 2144 2494 2554 2803 2554 3298 
C 2554 3884 1990 4224 1472 4224 
C 890 4224 378 3800 378 3215 
C 378 3054 416 2777 666 2533 
C 730 2469 998 2276 1171 2154 
C 883 2006 211 1652 211 945 
C 211 282 838 -128 1459 -128 
C 2144 -128 2720 366 2720 1022 
C 2720 1607 2330 1877 2074 2051 
L 1741 2289 
z
M 902 2855 
C 851 2887 595 3086 595 3388 
C 595 3781 998 4076 1459 4076 
C 1965 4076 2336 3716 2336 3298 
C 2336 2700 1670 2359 1638 2359 
C 1632 2359 1626 2359 1574 2398 
L 902 2855 
z
M 2080 1536 
C 2176 1466 2483 1253 2483 861 
C 2483 385 2010 25 1472 25 
C 890 25 448 443 448 951 
C 448 1459 838 1884 1280 2083 
L 2080 1536 
z
" id="CMR17-38" transform="scale(0.015625)"/>
       </defs>
       <use transform="scale(0.996264)" xlink:href="#CMR17-38"/>
       <use transform="translate(45.690477 0)scale(0.996264)" xlink:href="#CMR17-30"/>
       <use transform="translate(91.380954 0)scale(0.996264)" xlink:href="#CMR17-30"/>
       <use transform="translate(137.071431 0)scale(0.996264)" xlink:href="#CMR17-30"/>
       <use transform="translate(182.761908 0)scale(0.996264)" xlink:href="#CMR17-30"/>
      </g>
     </g>
    </g>
    <g id="xtick_6">
     <g id="line2d_6">
      <g>
       <use style="stroke:#000000;stroke-width:0.8;" x="401.335897" xlink:href="#mbcab2b35d4" y="459.841452"/>
      </g>
     </g>
     <g id="text_6">
      <!-- $\mathdefault{100000}$ -->
      <g transform="translate(378.033754 478.602904)scale(0.17 -0.17)">
       <defs>
        <path d="M 1702 4083 
C 1702 4217 1696 4224 1606 4224 
C 1357 3927 979 3833 621 3820 
C 602 3820 570 3820 563 3808 
C 557 3795 557 3782 557 3648 
C 755 3648 1088 3686 1344 3839 
L 1344 467 
C 1344 243 1331 166 781 166 
L 589 166 
L 589 0 
C 896 6 1216 12 1523 12 
C 1830 12 2150 6 2458 0 
L 2458 166 
L 2266 166 
C 1715 166 1702 236 1702 467 
L 1702 4083 
z
" id="CMR17-31" transform="scale(0.015625)"/>
       </defs>
       <use transform="scale(0.996264)" xlink:href="#CMR17-31"/>
       <use transform="translate(45.690477 0)scale(0.996264)" xlink:href="#CMR17-30"/>
       <use transform="translate(91.380954 0)scale(0.996264)" xlink:href="#CMR17-30"/>
       <use transform="translate(137.071431 0)scale(0.996264)" xlink:href="#CMR17-30"/>
       <use transform="translate(182.761908 0)scale(0.996264)" xlink:href="#CMR17-30"/>
       <use transform="translate(228.452386 0)scale(0.996264)" xlink:href="#CMR17-30"/>
      </g>
     </g>
    </g>
    <g id="xtick_7">
     <g id="line2d_7">
      <g>
       <use style="stroke:#000000;stroke-width:0.8;" x="466.056484" xlink:href="#mbcab2b35d4" y="459.841452"/>
      </g>
     </g>
     <g id="text_7">
      <!-- $\mathdefault{120000}$ -->
      <g transform="translate(442.75434 478.602904)scale(0.17 -0.17)">
       <use transform="scale(0.996264)" xlink:href="#CMR17-31"/>
       <use transform="translate(45.690477 0)scale(0.996264)" xlink:href="#CMR17-32"/>
       <use transform="translate(91.380954 0)scale(0.996264)" xlink:href="#CMR17-30"/>
       <use transform="translate(137.071431 0)scale(0.996264)" xlink:href="#CMR17-30"/>
       <use transform="translate(182.761908 0)scale(0.996264)" xlink:href="#CMR17-30"/>
       <use transform="translate(228.452386 0)scale(0.996264)" xlink:href="#CMR17-30"/>
      </g>
     </g>
    </g>
    <g id="text_8">
     <!-- Loss L (`\$) -->
     <g transform="translate(240.144052 498.584507)scale(0.17 -0.17)">
      <defs>
       <path d="M 1670 416 
C 1594 416 1517 409 1440 409 
L 1101 409 
L 1101 4416 
L 563 4416 
L 563 0 
L 3002 0 
L 3002 416 
L 1670 416 
z
" id="CMSS17-4c" transform="scale(0.015625)"/>
       <path d="M 2829 1356 
C 2829 2175 2221 2816 1504 2816 
C 768 2816 173 2156 173 1356 
C 173 544 787 -64 1498 -64 
C 2227 -64 2829 563 2829 1356 
z
M 1504 339 
C 1050 339 659 710 659 1407 
C 659 2150 1114 2425 1498 2425 
C 1914 2425 2342 2124 2342 1407 
C 2342 684 1926 339 1504 339 
z
" id="CMSS17-6f" transform="scale(0.015625)"/>
       <path d="M 2061 2623 
C 1683 2803 1389 2816 1197 2816 
C 742 2816 198 2655 198 2009 
C 198 1363 902 1222 1094 1183 
C 1389 1126 1715 1062 1715 742 
C 1715 339 1254 339 1171 339 
C 915 339 563 409 243 639 
L 166 211 
C 531 0 883 -64 1178 -64 
C 1965 -64 2163 416 2163 780 
C 2163 1094 1984 1305 1862 1401 
C 1651 1567 1574 1587 1050 1695 
C 960 1708 646 1779 646 2067 
C 646 2431 1050 2431 1139 2431 
C 1555 2431 1811 2303 1984 2207 
L 2061 2623 
z
" id="CMSS17-73" transform="scale(0.015625)"/>
       <path d="M 1613 4800 
C 1267 4447 474 3627 474 1603 
C 474 -428 1267 -1242 1613 -1600 
L 2003 -1600 
C 1216 -781 960 366 960 1596 
C 960 2820 1203 3973 2003 4800 
L 1613 4800 
z
" id="CMSS17-28" transform="scale(0.015625)"/>
       <path d="M 1094 4416 
L 838 4416 
L 576 3641 
L 576 3135 
L 1088 3135 
L 1088 3648 
L 928 3648 
L 1094 4416 
z
" id="CMSS17-60" transform="scale(0.015625)"/>
       <path d="M 1306 4800 
L 1306 4556 
C 736 4486 320 3968 320 3406 
C 320 2901 666 2383 1229 2268 
C 1299 2236 1306 2223 1306 2153 
L 1306 248 
C 979 255 659 402 403 594 
C 365 619 333 651 294 670 
C 288 600 262 536 262 466 
C 262 293 928 -7 1306 -14 
L 1306 -256 
L 1555 -256 
L 1555 -71 
C 1555 12 1709 12 1779 44 
C 2291 229 2541 747 2541 1246 
L 2541 1271 
C 2534 1782 2214 2287 1709 2434 
C 1645 2454 1549 2454 1549 2556 
C 1549 2588 1555 2620 1555 2645 
L 1555 4294 
C 1766 4294 1984 4224 2163 4122 
C 2246 4071 2317 4007 2400 3962 
C 2413 4026 2438 4109 2438 4173 
C 2438 4243 2323 4294 2253 4345 
C 2048 4473 1798 4556 1555 4556 
L 1555 4800 
L 1306 4800 
z
M 1555 255 
L 1555 2172 
C 1984 2057 2266 1687 2266 1214 
C 2266 792 2016 332 1555 255 
z
M 1306 4288 
L 1306 2549 
C 883 2690 595 2946 595 3412 
C 595 3796 877 4256 1306 4288 
z
" id="SFSS3583-24" transform="scale(0.015625)"/>
       <path d="M 723 -1600 
C 1069 -1248 1862 -428 1862 1596 
C 1862 3627 1069 4440 723 4800 
L 333 4800 
C 1120 3979 1376 2833 1376 1603 
C 1376 379 1133 -774 333 -1600 
L 723 -1600 
z
" id="CMSS17-29" transform="scale(0.015625)"/>
      </defs>
      <use transform="scale(0.996264)" xlink:href="#CMSS17-4c"/>
      <use transform="translate(50.687105 0)scale(0.996264)" xlink:href="#CMSS17-6f"/>
      <use transform="translate(97.530729 0)scale(0.996264)" xlink:href="#CMSS17-73"/>
      <use transform="translate(133.444271 0)scale(0.996264)" xlink:href="#CMSS17-73"/>
      <use transform="translate(200.586926 0)scale(0.996264)" xlink:href="#CMSS17-4c"/>
      <use transform="translate(282.503144 0)scale(0.996264)" xlink:href="#CMSS17-28"/>
      <use transform="translate(318.937058 0)scale(0.996264)" xlink:href="#CMSS17-60"/>
      <use transform="translate(344.961263 0)scale(0.996264)" xlink:href="#SFSS3583-24"/>
      <use transform="translate(389.60157 0)scale(0.996264)" xlink:href="#CMSS17-29"/>
     </g>
    </g>
   </g>
   <g id="matplotlib.axis_2">
    <g id="ytick_1">
     <g id="line2d_8">
      <defs>
       <path d="M 0 0 
L -3.5 0 
" id="mb5a77b103f" style="stroke:#000000;stroke-width:0.8;"/>
      </defs>
      <g>
       <use style="stroke:#000000;stroke-width:0.8;" x="53.397021" xlink:href="#mb5a77b103f" y="459.841452"/>
      </g>
     </g>
     <g id="text_9">
      <!-- $\mathdefault{0.0}$ -->
      <g transform="translate(26.255739 465.722178)scale(0.17 -0.17)">
       <defs>
        <path d="M 1178 307 
C 1178 492 1024 620 870 620 
C 685 620 557 467 557 313 
C 557 128 710 0 864 0 
C 1050 0 1178 153 1178 307 
z
" id="CMMI12-3a" transform="scale(0.015625)"/>
       </defs>
       <use transform="scale(0.996264)" xlink:href="#CMR17-30"/>
       <use transform="translate(45.690477 0)scale(0.996264)" xlink:href="#CMMI12-3a"/>
       <use transform="translate(72.787654 0)scale(0.996264)" xlink:href="#CMR17-30"/>
      </g>
     </g>
    </g>
    <g id="ytick_2">
     <g id="line2d_9">
      <g>
       <use style="stroke:#000000;stroke-width:0.8;" x="53.397021" xlink:href="#mb5a77b103f" y="396.882243"/>
      </g>
     </g>
     <g id="text_10">
      <!-- $\mathdefault{0.1}$ -->
      <g transform="translate(26.255739 402.762968)scale(0.17 -0.17)">
       <use transform="scale(0.996264)" xlink:href="#CMR17-30"/>
       <use transform="translate(45.690477 0)scale(0.996264)" xlink:href="#CMMI12-3a"/>
       <use transform="translate(72.787654 0)scale(0.996264)" xlink:href="#CMR17-31"/>
      </g>
     </g>
    </g>
    <g id="ytick_3">
     <g id="line2d_10">
      <g>
       <use style="stroke:#000000;stroke-width:0.8;" x="53.397021" xlink:href="#mb5a77b103f" y="333.923033"/>
      </g>
     </g>
     <g id="text_11">
      <!-- $\mathdefault{0.2}$ -->
      <g transform="translate(26.255739 339.803759)scale(0.17 -0.17)">
       <use transform="scale(0.996264)" xlink:href="#CMR17-30"/>
       <use transform="translate(45.690477 0)scale(0.996264)" xlink:href="#CMMI12-3a"/>
       <use transform="translate(72.787654 0)scale(0.996264)" xlink:href="#CMR17-32"/>
      </g>
     </g>
    </g>
    <g id="ytick_4">
     <g id="line2d_11">
      <g>
       <use style="stroke:#000000;stroke-width:0.8;" x="53.397021" xlink:href="#mb5a77b103f" y="270.963824"/>
      </g>
     </g>
     <g id="text_12">
      <!-- $\mathdefault{0.3}$ -->
      <g transform="translate(26.255739 276.84455)scale(0.17 -0.17)">
       <defs>
        <path d="M 1414 2176 
C 1984 2176 2234 1673 2234 1094 
C 2234 322 1824 25 1453 25 
C 1114 25 563 193 390 691 
C 422 678 454 678 486 678 
C 640 678 755 780 755 947 
C 755 1132 614 1216 486 1216 
C 378 1216 211 1164 211 927 
C 211 335 787 -128 1466 -128 
C 2176 -128 2720 432 2720 1087 
C 2720 1718 2208 2176 1600 2246 
C 2086 2347 2554 2776 2554 3353 
C 2554 3856 2048 4224 1472 4224 
C 890 4224 378 3862 378 3347 
C 378 3123 544 3084 627 3084 
C 762 3084 877 3167 877 3334 
C 877 3500 762 3584 627 3584 
C 602 3584 570 3584 544 3571 
C 730 3999 1235 4076 1459 4076 
C 1683 4076 2106 3966 2106 3347 
C 2106 3167 2080 2851 1862 2574 
C 1670 2329 1453 2316 1242 2297 
C 1210 2297 1062 2284 1037 2284 
C 992 2278 966 2272 966 2227 
C 966 2182 973 2176 1101 2176 
L 1414 2176 
z
" id="CMR17-33" transform="scale(0.015625)"/>
       </defs>
       <use transform="scale(0.996264)" xlink:href="#CMR17-30"/>
       <use transform="translate(45.690477 0)scale(0.996264)" xlink:href="#CMMI12-3a"/>
       <use transform="translate(72.787654 0)scale(0.996264)" xlink:href="#CMR17-33"/>
      </g>
     </g>
    </g>
    <g id="ytick_5">
     <g id="line2d_12">
      <g>
       <use style="stroke:#000000;stroke-width:0.8;" x="53.397021" xlink:href="#mb5a77b103f" y="208.004615"/>
      </g>
     </g>
     <g id="text_13">
      <!-- $\mathdefault{0.4}$ -->
      <g transform="translate(26.255739 213.885341)scale(0.17 -0.17)">
       <use transform="scale(0.996264)" xlink:href="#CMR17-30"/>
       <use transform="translate(45.690477 0)scale(0.996264)" xlink:href="#CMMI12-3a"/>
       <use transform="translate(72.787654 0)scale(0.996264)" xlink:href="#CMR17-34"/>
      </g>
     </g>
    </g>
    <g id="ytick_6">
     <g id="line2d_13">
      <g>
       <use style="stroke:#000000;stroke-width:0.8;" x="53.397021" xlink:href="#mb5a77b103f" y="145.045405"/>
      </g>
     </g>
     <g id="text_14">
      <!-- $\mathdefault{0.5}$ -->
      <g transform="translate(26.255739 150.926131)scale(0.17 -0.17)">
       <defs>
        <path d="M 730 3750 
C 794 3724 1056 3641 1325 3641 
C 1920 3641 2246 3961 2432 4140 
C 2432 4191 2432 4224 2394 4224 
C 2387 4224 2374 4224 2323 4198 
C 2099 4102 1837 4032 1517 4032 
C 1325 4032 1037 4055 723 4191 
C 653 4224 640 4224 634 4224 
C 602 4224 595 4217 595 4090 
L 595 2231 
C 595 2113 595 2080 659 2080 
C 691 2080 704 2093 736 2139 
C 941 2435 1222 2560 1542 2560 
C 1766 2560 2246 2415 2246 1293 
C 2246 1087 2246 716 2054 422 
C 1894 159 1645 25 1370 25 
C 947 25 518 319 403 812 
C 429 806 480 793 506 793 
C 589 793 749 838 749 1036 
C 749 1209 627 1280 506 1280 
C 358 1280 262 1190 262 1011 
C 262 454 704 -128 1382 -128 
C 2042 -128 2669 441 2669 1267 
C 2669 2054 2170 2662 1549 2662 
C 1222 2662 947 2540 730 2304 
L 730 3750 
z
" id="CMR17-35" transform="scale(0.015625)"/>
       </defs>
       <use transform="scale(0.996264)" xlink:href="#CMR17-30"/>
       <use transform="translate(45.690477 0)scale(0.996264)" xlink:href="#CMMI12-3a"/>
       <use transform="translate(72.787654 0)scale(0.996264)" xlink:href="#CMR17-35"/>
      </g>
     </g>
    </g>
    <g id="ytick_7">
     <g id="line2d_14">
      <g>
       <use style="stroke:#000000;stroke-width:0.8;" x="53.397021" xlink:href="#mb5a77b103f" y="82.086196"/>
      </g>
     </g>
     <g id="text_15">
      <!-- $\mathdefault{0.6}$ -->
      <g transform="translate(26.255739 87.966922)scale(0.17 -0.17)">
       <use transform="scale(0.996264)" xlink:href="#CMR17-30"/>
       <use transform="translate(45.690477 0)scale(0.996264)" xlink:href="#CMMI12-3a"/>
       <use transform="translate(72.787654 0)scale(0.996264)" xlink:href="#CMR17-36"/>
      </g>
     </g>
    </g>
    <g id="text_16">
     <!-- probability -->
     <g transform="translate(18.961452 276.950444)rotate(-90)scale(0.17 -0.17)">
      <defs>
       <path d="M 966 275 
C 1178 70 1466 -64 1773 -64 
C 2368 -64 2880 553 2880 1382 
C 2880 2147 2496 2816 1946 2816 
C 1626 2816 1242 2700 954 2470 
L 954 2764 
L 480 2764 
L 480 -1280 
L 966 -1280 
L 966 275 
z
M 966 2088 
C 1018 2166 1235 2412 1587 2412 
C 2035 2412 2394 1946 2394 1382 
C 2394 741 1958 326 1530 326 
C 1402 326 1267 358 1139 468 
C 966 624 966 721 966 812 
L 966 2088 
z
" id="CMSS17-70" transform="scale(0.015625)"/>
       <path d="M 954 1369 
C 954 1974 1395 2379 1958 2392 
L 1958 2816 
C 1549 2809 1165 2604 934 2270 
L 934 2783 
L 480 2783 
L 480 0 
L 954 0 
L 954 1369 
z
" id="CMSS17-72" transform="scale(0.015625)"/>
       <path d="M 954 4416 
L 480 4416 
L 480 -13 
L 966 -13 
L 966 275 
C 1210 38 1504 -64 1766 -64 
C 2381 -64 2880 559 2880 1382 
C 2880 2133 2496 2816 1926 2816 
C 1523 2816 1165 2649 954 2476 
L 954 4416 
z
M 966 2095 
C 1107 2276 1306 2425 1587 2425 
C 1965 2425 2394 2146 2394 1382 
C 2394 566 1882 326 1530 326 
C 1402 326 1267 358 1139 468 
C 966 624 966 721 966 812 
L 966 2095 
z
" id="CMSS17-62" transform="scale(0.015625)"/>
       <path d="M 2406 1789 
C 2406 2399 1978 2816 1402 2816 
C 1120 2816 813 2764 461 2559 
L 499 2133 
C 659 2250 934 2438 1395 2438 
C 1722 2438 1920 2185 1920 1782 
L 1920 1536 
C 896 1504 256 1209 256 711 
C 256 452 416 -64 947 -64 
C 1043 -64 1562 -52 1933 224 
L 1933 -13 
L 2406 -13 
L 2406 1789 
z
M 1920 824 
C 1920 711 1920 559 1728 446 
C 1562 339 1350 326 1261 326 
C 941 326 723 503 723 723 
C 723 1165 1722 1209 1920 1216 
L 1920 824 
z
" id="CMSS17-61" transform="scale(0.015625)"/>
       <path d="M 979 4224 
L 442 4224 
L 442 3686 
L 979 3686 
L 979 4224 
z
M 947 2752 
L 474 2752 
L 474 0 
L 947 0 
L 947 2752 
z
" id="CMSS17-69" transform="scale(0.015625)"/>
       <path d="M 947 4416 
L 474 4416 
L 474 0 
L 947 0 
L 947 4416 
z
" id="CMSS17-6c" transform="scale(0.015625)"/>
       <path d="M 1069 2380 
L 1901 2380 
L 1901 2752 
L 1069 2752 
L 1069 3520 
L 614 3520 
L 614 2752 
L 109 2752 
L 109 2380 
L 602 2380 
L 602 751 
C 602 384 685 -64 1107 -64 
C 1427 -64 1722 25 2003 172 
L 1901 551 
C 1747 416 1562 339 1363 339 
C 1082 339 1069 699 1069 860 
L 1069 2380 
z
" id="CMSS17-74" transform="scale(0.015625)"/>
       <path d="M 2675 2752 
L 2176 2752 
C 1632 1293 1446 701 1434 383 
L 1427 383 
C 1408 695 1126 1459 902 2006 
L 602 2752 
L 83 2752 
L 1216 14 
C 1146 -177 1043 -464 1011 -527 
C 870 -884 774 -884 672 -884 
C 646 -884 442 -877 211 -807 
L 250 -1229 
C 410 -1261 570 -1280 685 -1280 
C 845 -1280 1165 -1280 1459 -495 
L 2675 2752 
z
" id="CMSS17-79" transform="scale(0.015625)"/>
      </defs>
      <use transform="scale(0.996264)" xlink:href="#CMSS17-70"/>
      <use transform="translate(45.602489 0)scale(0.996264)" xlink:href="#CMSS17-72"/>
      <use transform="translate(77.512262 0)scale(0.996264)" xlink:href="#CMSS17-6f"/>
      <use transform="translate(124.355885 0)scale(0.996264)" xlink:href="#CMSS17-62"/>
      <use transform="translate(172.560828 0)scale(0.996264)" xlink:href="#CMSS17-61"/>
      <use transform="translate(217.482749 0)scale(0.996264)" xlink:href="#CMSS17-62"/>
      <use transform="translate(265.687692 0)scale(0.996264)" xlink:href="#CMSS17-69"/>
      <use transform="translate(287.868415 0)scale(0.996264)" xlink:href="#CMSS17-6c"/>
      <use transform="translate(310.049138 0)scale(0.996264)" xlink:href="#CMSS17-69"/>
      <use transform="translate(332.229861 0)scale(0.996264)" xlink:href="#CMSS17-74"/>
      <use transform="translate(363.458974 0)scale(0.996264)" xlink:href="#CMSS17-79"/>
     </g>
    </g>
   </g>
   <g id="line2d_15">
    <path clip-path="url(#p952e75bd06)" d="M 115.941225 459.841452 
L 115.941225 24.961452 
" style="fill:none;stroke:#008000;stroke-dasharray:5.55,2.4;stroke-dashoffset:0;stroke-width:1.5;"/>
   </g>
   <g id="line2d_16">
    <path clip-path="url(#p952e75bd06)" d="M 255.093071 459.841452 
L 255.093071 24.961452 
" style="fill:none;stroke:#ffa500;stroke-dasharray:5.55,2.4;stroke-dashoffset:0;stroke-width:1.5;"/>
   </g>
   <g id="patch_11">
    <path d="M 53.397021 459.841452 
L 53.397021 24.961452 
" style="fill:none;stroke:#000000;stroke-linecap:square;stroke-linejoin:miter;stroke-width:0.8;"/>
   </g>
   <g id="patch_12">
    <path d="M 499.797021 459.841452 
L 499.797021 24.961452 
" style="fill:none;stroke:#000000;stroke-linecap:square;stroke-linejoin:miter;stroke-width:0.8;"/>
   </g>
   <g id="patch_13">
    <path d="M 53.397021 459.841452 
L 499.797021 459.841452 
" style="fill:none;stroke:#000000;stroke-linecap:square;stroke-linejoin:miter;stroke-width:0.8;"/>
   </g>
   <g id="patch_14">
    <path d="M 53.397021 24.961452 
L 499.797021 24.961452 
" style="fill:none;stroke:#000000;stroke-linecap:square;stroke-linejoin:miter;stroke-width:0.8;"/>
   </g>
   <g id="text_17">
    <!-- PDF of Total Loss -->
    <g transform="translate(215.152831 18.961452)scale(0.17 -0.17)">
     <defs>
      <path d="M 2106 1856 
C 2874 1856 3501 2447 3501 3139 
C 3501 3818 2899 4416 2067 4416 
L 570 4416 
L 570 0 
L 1107 0 
L 1107 1856 
L 2106 1856 
z
M 1926 4057 
C 2669 4057 2995 3598 2995 3139 
C 2995 2711 2694 2227 1926 2227 
L 1094 2227 
L 1094 4057 
L 1926 4057 
z
" id="CMSS17-50" transform="scale(0.015625)"/>
      <path d="M 570 4416 
L 570 0 
L 2144 0 
C 3194 0 4000 981 4000 2169 
C 4000 3396 3194 4416 2144 4416 
L 570 4416 
z
M 1094 358 
L 1094 4057 
L 2003 4057 
C 2861 4057 3475 3275 3475 2169 
C 3475 1108 2867 358 2003 358 
L 1094 358 
z
" id="CMSS17-44" transform="scale(0.015625)"/>
      <path d="M 2918 1984 
L 2918 2374 
L 1101 2374 
L 1101 3993 
L 1882 3993 
C 1958 3993 2035 3987 2112 3987 
L 3168 3987 
L 3168 4403 
L 563 4403 
L 563 0 
L 1101 0 
L 1101 1984 
L 2918 1984 
z
" id="CMSS17-46" transform="scale(0.015625)"/>
      <path d="M 1075 2380 
L 1722 2380 
L 1722 2752 
L 1062 2752 
L 1062 3563 
C 1062 4013 1408 4089 1606 4089 
C 1670 4089 1850 4089 2080 4007 
L 2080 4428 
C 1933 4460 1754 4480 1613 4480 
C 1018 4480 602 3994 602 3366 
L 602 2752 
L 160 2752 
L 160 2380 
L 602 2380 
L 602 0 
L 1075 0 
L 1075 2380 
z
" id="CMSS17-66" transform="scale(0.015625)"/>
      <path d="M 2317 3987 
L 2848 3987 
C 2925 3987 3002 3980 3078 3980 
L 3878 3980 
L 3878 4396 
L 218 4396 
L 218 3980 
L 1018 3980 
C 1094 3980 1171 3987 1248 3987 
L 1779 3987 
L 1779 0 
L 2317 0 
L 2317 3987 
z
" id="CMSS17-54" transform="scale(0.015625)"/>
     </defs>
     <use transform="scale(0.996264)" xlink:href="#CMSS17-50"/>
     <use transform="translate(59.735586 0)scale(0.996264)" xlink:href="#CMSS17-44"/>
     <use transform="translate(127.278428 0)scale(0.996264)" xlink:href="#CMSS17-46"/>
     <use transform="translate(211.7971 0)scale(0.996264)" xlink:href="#CMSS17-6f"/>
     <use transform="translate(258.640724 0)scale(0.996264)" xlink:href="#CMSS17-66"/>
     <use transform="translate(318.496495 0)scale(0.996264)" xlink:href="#CMSS17-54"/>
     <use transform="translate(374.508694 0)scale(0.996264)" xlink:href="#CMSS17-6f"/>
     <use transform="translate(421.352317 0)scale(0.996264)" xlink:href="#CMSS17-74"/>
     <use transform="translate(455.183884 0)scale(0.996264)" xlink:href="#CMSS17-61"/>
     <use transform="translate(500.105804 0)scale(0.996264)" xlink:href="#CMSS17-6c"/>
     <use transform="translate(553.51564 0)scale(0.996264)" xlink:href="#CMSS17-4c"/>
     <use transform="translate(604.202746 0)scale(0.996264)" xlink:href="#CMSS17-6f"/>
     <use transform="translate(651.046369 0)scale(0.996264)" xlink:href="#CMSS17-73"/>
     <use transform="translate(686.959911 0)scale(0.996264)" xlink:href="#CMSS17-73"/>
    </g>
   </g>
   <g id="legend_1">
    <g id="patch_15">
     <path d="M 384.450644 89.375597 
L 487.897021 89.375597 
Q 491.297021 89.375597 491.297021 85.975597 
L 491.297021 36.861452 
Q 491.297021 33.461452 487.897021 33.461452 
L 384.450644 33.461452 
Q 381.050644 33.461452 381.050644 36.861452 
L 381.050644 85.975597 
Q 381.050644 89.375597 384.450644 89.375597 
z
" style="fill:#ffffff;opacity:0.8;stroke:#cccccc;stroke-linejoin:miter;"/>
    </g>
    <g id="line2d_17">
     <path d="M 387.850644 46.998571 
L 421.850644 46.998571 
" style="fill:none;stroke:#008000;stroke-dasharray:5.55,2.4;stroke-dashoffset:0;stroke-width:1.5;"/>
    </g>
    <g id="line2d_18"/>
    <g id="text_18">
     <!-- E[L] -->
     <g transform="translate(435.450644 52.948571)scale(0.17 -0.17)">
      <defs>
       <path d="M 1958 435 
C 1446 435 1216 435 1101 428 
L 1101 2105 
L 3085 2105 
L 3085 2496 
L 1101 2496 
L 1101 3993 
L 1926 3993 
C 2003 3993 2080 3987 2157 3987 
L 3251 3987 
L 3251 4403 
L 563 4403 
L 563 0 
L 3334 0 
L 3334 441 
L 1958 435 
z
" id="CMSS17-45" transform="scale(0.015625)"/>
       <path d="M 1613 -1600 
L 1613 -1210 
L 1062 -1210 
L 1062 4409 
L 1613 4409 
L 1613 4800 
L 595 4800 
L 595 -1600 
L 1613 -1600 
z
" id="CMSS17-5b" transform="scale(0.015625)"/>
       <path d="M 1146 4800 
L 128 4800 
L 128 4409 
L 678 4409 
L 678 -1210 
L 128 -1210 
L 128 -1600 
L 1146 -1600 
L 1146 4800 
z
" id="CMSS17-5d" transform="scale(0.015625)"/>
      </defs>
      <use transform="scale(0.996264)" xlink:href="#CMSS17-45"/>
      <use transform="translate(55.892013 0)scale(0.996264)" xlink:href="#CMSS17-5b"/>
      <use transform="translate(83.077452 0)scale(0.996264)" xlink:href="#CMSS17-4c"/>
      <use transform="translate(133.764557 0)scale(0.996264)" xlink:href="#CMSS17-5d"/>
     </g>
    </g>
    <g id="line2d_19">
     <path d="M 387.850644 72.405643 
L 421.850644 72.405643 
" style="fill:none;stroke:#ffa500;stroke-dasharray:5.55,2.4;stroke-dashoffset:0;stroke-width:1.5;"/>
    </g>
    <g id="line2d_20"/>
    <g id="text_19">
     <!-- VaR(L) -->
     <g transform="translate(435.450644 78.355643)scale(0.17 -0.17)">
      <defs>
       <path d="M 3910 4416 
L 3411 4416 
L 2304 1361 
C 2272 1272 2074 687 2035 484 
L 2029 484 
C 1978 725 1773 1291 1664 1603 
L 922 3670 
L 646 4416 
L 83 4416 
L 1715 0 
L 2278 0 
L 3910 4416 
z
" id="CMSS17-56" transform="scale(0.015625)"/>
       <path d="M 2522 2099 
L 2534 2105 
C 3533 2450 3539 3125 3539 3244 
C 3539 3838 2925 4416 2003 4416 
L 570 4416 
L 570 0 
L 1094 0 
L 1094 2041 
L 2035 2041 
L 3168 0 
L 3706 0 
L 2522 2099 
z
M 1094 2432 
L 1094 4057 
L 1933 4057 
C 2746 4057 3034 3607 3034 3244 
C 3034 2907 2778 2432 1933 2432 
L 1094 2432 
z
" id="CMSS17-52" transform="scale(0.015625)"/>
      </defs>
      <use transform="scale(0.996264)" xlink:href="#CMSS17-56"/>
      <use transform="translate(59.615401 0)scale(0.996264)" xlink:href="#CMSS17-61"/>
      <use transform="translate(104.537322 0)scale(0.996264)" xlink:href="#CMSS17-52"/>
      <use transform="translate(164.953476 0)scale(0.996264)" xlink:href="#CMSS17-28"/>
      <use transform="translate(201.387391 0)scale(0.996264)" xlink:href="#CMSS17-4c"/>
      <use transform="translate(252.074496 0)scale(0.996264)" xlink:href="#CMSS17-29"/>
     </g>
    </g>
   </g>
  </g>
 </g>
 <defs>
  <clipPath id="p952e75bd06">
   <rect height="434.88" width="446.4" x="53.397021" y="24.961452"/>
  </clipPath>
 </defs>
</svg>
