<?xml version="1.0" encoding="utf-8" standalone="no"?>
<!DOCTYPE svg PUBLIC "-//W3C//DTD SVG 1.1//EN"
  "http://www.w3.org/Graphics/SVG/1.1/DTD/svg11.dtd">
<!-- Created with matplotlib (https://matplotlib.org/) -->
<svg height="350.737396pt" version="1.1" viewBox="0 0 670.644028 350.737396" width="670.644028pt" xmlns="http://www.w3.org/2000/svg" xmlns:xlink="http://www.w3.org/1999/xlink">
 <metadata>
  <rdf:RDF xmlns:cc="http://creativecommons.org/ns#" xmlns:dc="http://purl.org/dc/elements/1.1/" xmlns:rdf="http://www.w3.org/1999/02/22-rdf-syntax-ns#">
   <cc:Work>
    <dc:type rdf:resource="http://purl.org/dc/dcmitype/StillImage"/>
    <dc:date>2022-05-02T18:36:09.904541</dc:date>
    <dc:format>image/svg+xml</dc:format>
    <dc:creator>
     <cc:Agent>
      <dc:title>Matplotlib v3.3.4, https://matplotlib.org/</dc:title>
     </cc:Agent>
    </dc:creator>
   </cc:Work>
  </rdf:RDF>
 </metadata>
 <defs>
  <style type="text/css">*{stroke-linecap:butt;stroke-linejoin:round;}</style>
 </defs>
 <g id="figure_1">
  <g id="patch_1">
   <path d="M 0 350.737396 
L 670.644028 350.737396 
L 670.644028 0 
L 0 0 
z
" style="fill:#ffffff;"/>
  </g>
  <g id="axes_1">
   <g id="line2d_1">
    <path clip-path="url(#pc15b6eb0f6)" d="M 63.490835 43.5608 
L 658.898928 43.5608 
" style="fill:none;stroke:#000000;stroke-linecap:square;stroke-width:2;"/>
   </g>
   <g id="line2d_2">
    <path clip-path="url(#pc15b6eb0f6)" d="M 63.490835 89.011799 
L 658.898928 89.011799 
" style="fill:none;stroke:#000000;stroke-linecap:square;stroke-width:2;"/>
   </g>
   <g id="line2d_3">
    <path clip-path="url(#pc15b6eb0f6)" d="M 63.490835 134.462798 
L 658.898928 134.462798 
" style="fill:none;stroke:#000000;stroke-linecap:square;stroke-width:2;"/>
   </g>
   <g id="line2d_4">
    <path clip-path="url(#pc15b6eb0f6)" d="M 63.490835 179.913798 
L 658.898928 179.913798 
" style="fill:none;stroke:#000000;stroke-linecap:square;stroke-width:2;"/>
   </g>
   <g id="line2d_5">
    <path clip-path="url(#pc15b6eb0f6)" d="M 63.490835 225.364797 
L 658.898928 225.364797 
" style="fill:none;stroke:#000000;stroke-linecap:square;stroke-width:2;"/>
   </g>
   <g id="line2d_6">
    <path clip-path="url(#pc15b6eb0f6)" d="M 63.490835 270.815796 
L 658.898928 270.815796 
" style="fill:none;stroke:#000000;stroke-linecap:square;stroke-width:2;"/>
   </g>
   <g id="line2d_7">
    <path clip-path="url(#pc15b6eb0f6)" d="M 63.490835 316.266796 
L 658.898928 316.266796 
" style="fill:none;stroke:#000000;stroke-linecap:square;stroke-width:2;"/>
   </g>
   <g id="patch_2">
    <path clip-path="url(#pc15b6eb0f6)" d="M 69.15403 103.783374 
L 106.91472 103.783374 
L 106.91472 28.789225 
L 69.15403 28.789225 
z
" style="fill:#bb8bff;stroke:#bb8bff;stroke-linejoin:miter;stroke-width:1.5;"/>
   </g>
   <g id="patch_3">
    <path clip-path="url(#pc15b6eb0f6)" d="M 69.15403 194.685373 
L 106.91472 194.685373 
L 106.91472 119.691224 
L 69.15403 119.691224 
z
" style="fill:#bb8bff;stroke:#bb8bff;stroke-linejoin:miter;stroke-width:1.5;"/>
   </g>
   <g id="patch_4">
    <path clip-path="url(#pc15b6eb0f6)" d="M 129.849295 240.136372 
L 182.572454 240.136372 
L 182.572454 28.789225 
L 129.849295 28.789225 
z
" style="fill:#bb8bff;stroke:#bb8bff;stroke-linejoin:miter;stroke-width:1.5;"/>
   </g>
   <g id="patch_5">
    <path clip-path="url(#pc15b6eb0f6)" d="M 220.751293 240.136372 
L 273.474453 240.136372 
L 273.474453 119.691224 
L 220.751293 119.691224 
z
" style="fill:#bb8bff;stroke:#bb8bff;stroke-linejoin:miter;stroke-width:1.5;"/>
   </g>
   <g id="patch_6">
    <path clip-path="url(#pc15b6eb0f6)" d="M 311.653292 285.587371 
L 364.376451 285.587371 
L 364.376451 28.789225 
L 311.653292 28.789225 
z
" style="fill:#bb8bff;stroke:#bb8bff;stroke-linejoin:miter;stroke-width:1.5;"/>
   </g>
   <g id="patch_7">
    <path clip-path="url(#pc15b6eb0f6)" d="M 402.555291 285.587371 
L 455.27845 285.587371 
L 455.27845 119.691224 
L 402.555291 119.691224 
z
" style="fill:#bb8bff;stroke:#bb8bff;stroke-linejoin:miter;stroke-width:1.5;"/>
   </g>
   <g id="patch_8">
    <path clip-path="url(#pc15b6eb0f6)" d="M 493.45729 331.038371 
L 546.180449 331.038371 
L 546.180449 28.789225 
L 493.45729 28.789225 
z
" style="fill:#bb8bff;stroke:#bb8bff;stroke-linejoin:miter;stroke-width:1.5;"/>
   </g>
   <g id="patch_9">
    <path clip-path="url(#pc15b6eb0f6)" d="M 584.359289 331.038371 
L 637.082448 331.038371 
L 637.082448 119.691224 
L 584.359289 119.691224 
z
" style="fill:#bb8bff;stroke:#bb8bff;stroke-linejoin:miter;stroke-width:1.5;"/>
   </g>
   <g id="text_1">
    <!-- ${q}_{0}$ -->
    <g transform="translate(41.706007 47.608122)scale(0.1625 -0.1625)">
     <defs>
      <path d="M 44.09375 42.984375 
C 44.09375 43.484375 43.703125 43.890625 43.203125 43.890625 
C 42.40625 43.890625 38.5 40.296875 36.59375 36.8125 
C 34.796875 41.296875 31.703125 44 27.40625 44 
C 16.09375 44 3.90625 29.421875 3.90625 14.65625 
C 3.90625 4.78125 9.703125 -1 16.5 -1 
C 21.796875 -1 26.203125 2.984375 28.296875 5.28125 
L 28.40625 5.1875 
L 24.59375 -9.578125 
L 23.703125 -13.09375 
C 22.796875 -16.015625 21.296875 -16.015625 16.59375 -16.109375 
C 15.5 -16.109375 14.5 -16.109375 14.5 -18 
C 14.5 -18.703125 15.09375 -19 15.796875 -19 
C 17.203125 -19 19 -18.8125 20.40625 -18.8125 
L 30.59375 -18.8125 
C 32.09375 -18.8125 33.796875 -19 35.296875 -19 
C 35.90625 -19 37.09375 -19 37.09375 -17.109375 
C 37.09375 -16.109375 36.296875 -16.109375 34.796875 -16.109375 
C 30.09375 -16.109375 29.796875 -15.421875 29.796875 -14.640625 
C 29.796875 -14.15625 29.90625 -14.0625 30.203125 -12.796875 
z
M 30 11.859375 
C 29.5 10.171875 29.5 9.96875 28.09375 8.078125 
C 25.90625 5.28125 21.5 1 16.796875 1 
C 12.703125 1 10.40625 4.6875 10.40625 10.5625 
C 10.40625 16.0625 13.5 27.234375 15.40625 31.421875 
C 18.796875 38.40625 23.5 41.984375 27.40625 41.984375 
C 34 41.984375 35.296875 33.8125 35.296875 33.015625 
C 35.296875 32.921875 35 31.625 34.90625 31.421875 
z
" id="CMMI12-113"/>
      <path d="M 42 31.84375 
C 42 37.96875 41.90625 48.421875 37.703125 56.453125 
C 34 63.484375 28.09375 66 22.90625 66 
C 18.09375 66 12 63.78125 8.203125 56.5625 
C 4.203125 49.015625 3.796875 39.671875 3.796875 31.84375 
C 3.796875 26.109375 3.90625 17.375 7 9.734375 
C 11.296875 -0.609375 19 -2 22.90625 -2 
C 27.5 -2 34.5 -0.109375 38.59375 9.4375 
C 41.59375 16.375 42 24.5 42 31.84375 
z
M 22.90625 -0.40625 
C 16.5 -0.40625 12.703125 5.125 11.296875 12.75 
C 10.203125 18.6875 10.203125 27.328125 10.203125 32.953125 
C 10.203125 40.6875 10.203125 47.109375 11.5 53.234375 
C 13.40625 61.78125 19 64.390625 22.90625 64.390625 
C 27 64.390625 32.296875 61.671875 34.203125 53.4375 
C 35.5 47.71875 35.59375 40.984375 35.59375 32.953125 
C 35.59375 26.421875 35.59375 18.375 34.40625 12.453125 
C 32.296875 1.5 26.40625 -0.40625 22.90625 -0.40625 
z
" id="CMR17-48"/>
     </defs>
     <use transform="scale(0.996264)" xlink:href="#CMMI12-113"/>
     <use transform="translate(43.251731 -14.943915)scale(0.697382)" xlink:href="#CMR17-48"/>
    </g>
   </g>
   <g id="text_2">
    <!-- ${q}_{1}$ -->
    <g transform="translate(41.706007 93.059121)scale(0.1625 -0.1625)">
     <defs>
      <path d="M 26.59375 63.796875 
C 26.59375 65.890625 26.5 66 25.09375 66 
C 21.203125 61.359375 15.296875 59.890625 9.703125 59.6875 
C 9.40625 59.6875 8.90625 59.6875 8.796875 59.5 
C 8.703125 59.296875 8.703125 59.09375 8.703125 57 
C 11.796875 57 17 57.59375 21 59.984375 
L 21 7.296875 
C 21 3.796875 20.796875 2.59375 12.203125 2.59375 
L 9.203125 2.59375 
L 9.203125 0 
C 14 0.09375 19 0.1875 23.796875 0.1875 
C 28.59375 0.1875 33.59375 0.09375 38.40625 0 
L 38.40625 2.59375 
L 35.40625 2.59375 
C 26.796875 2.59375 26.59375 3.6875 26.59375 7.296875 
z
" id="CMR17-49"/>
     </defs>
     <use transform="scale(0.996264)" xlink:href="#CMMI12-113"/>
     <use transform="translate(43.251731 -14.943915)scale(0.697382)" xlink:href="#CMR17-49"/>
    </g>
   </g>
   <g id="text_3">
    <!-- ${q}_{2}$ -->
    <g transform="translate(41.706007 138.510121)scale(0.1625 -0.1625)">
     <defs>
      <path d="M 41.703125 15.46875 
L 39.90625 15.46875 
C 38.90625 8.390625 38.09375 7.1875 37.703125 6.59375 
C 37.203125 5.796875 30 5.796875 28.59375 5.796875 
L 9.40625 5.796875 
C 13 9.6875 20 16.765625 28.5 24.9375 
C 34.59375 30.71875 41.703125 37.5 41.703125 47.390625 
C 41.703125 59.1875 32.296875 66 21.796875 66 
C 10.796875 66 4.09375 56.296875 4.09375 47.296875 
C 4.09375 43.390625 7 42.890625 8.203125 42.890625 
C 9.203125 42.890625 12.203125 43.484375 12.203125 46.984375 
C 12.203125 50.09375 9.59375 51 8.203125 51 
C 7.59375 51 7 50.890625 6.59375 50.6875 
C 8.5 59.1875 14.296875 63.390625 20.40625 63.390625 
C 29.09375 63.390625 34.796875 56.5 34.796875 47.390625 
C 34.796875 38.703125 29.703125 31.21875 24 24.734375 
L 4.09375 2.296875 
L 4.09375 0 
L 39.296875 0 
z
" id="CMR17-50"/>
     </defs>
     <use transform="scale(0.996264)" xlink:href="#CMMI12-113"/>
     <use transform="translate(43.251731 -14.943915)scale(0.697382)" xlink:href="#CMR17-50"/>
    </g>
   </g>
   <g id="text_4">
    <!-- ${q}_{3}$ -->
    <g transform="translate(41.706007 183.96112)scale(0.1625 -0.1625)">
     <defs>
      <path d="M 22.09375 34 
C 31 34 34.90625 26.140625 34.90625 17.09375 
C 34.90625 5.03125 28.5 0.390625 22.703125 0.390625 
C 17.40625 0.390625 8.796875 3.015625 6.09375 10.796875 
C 6.59375 10.59375 7.09375 10.59375 7.59375 10.59375 
C 10 10.59375 11.796875 12.1875 11.796875 14.796875 
C 11.796875 17.6875 9.59375 19 7.59375 19 
C 5.90625 19 3.296875 18.1875 3.296875 14.484375 
C 3.296875 5.234375 12.296875 -2 22.90625 -2 
C 34 -2 42.5 6.75 42.5 16.984375 
C 42.5 26.84375 34.5 34 25 35.09375 
C 32.59375 36.671875 39.90625 43.375 39.90625 52.390625 
C 39.90625 60.25 32 66 23 66 
C 13.90625 66 5.90625 60.34375 5.90625 52.296875 
C 5.90625 48.796875 8.5 48.1875 9.796875 48.1875 
C 11.90625 48.1875 13.703125 49.484375 13.703125 52.09375 
C 13.703125 54.6875 11.90625 56 9.796875 56 
C 9.40625 56 8.90625 56 8.5 55.796875 
C 11.40625 62.484375 19.296875 63.6875 22.796875 63.6875 
C 26.296875 63.6875 32.90625 61.96875 32.90625 52.296875 
C 32.90625 49.484375 32.5 44.546875 29.09375 40.21875 
C 26.09375 36.390625 22.703125 36.1875 19.40625 35.890625 
C 18.90625 35.890625 16.59375 35.6875 16.203125 35.6875 
C 15.5 35.59375 15.09375 35.5 15.09375 34.796875 
C 15.09375 34.09375 15.203125 34 17.203125 34 
z
" id="CMR17-51"/>
     </defs>
     <use transform="scale(0.996264)" xlink:href="#CMMI12-113"/>
     <use transform="translate(43.251731 -14.943915)scale(0.697382)" xlink:href="#CMR17-51"/>
    </g>
   </g>
   <g id="text_5">
    <!-- ${q}_{4}$ -->
    <g transform="translate(41.706007 229.41212)scale(0.1625 -0.1625)">
     <defs>
      <path d="M 33.59375 64.796875 
C 33.59375 66.890625 33.5 67 31.703125 67 
L 2 19.59375 
L 2 17 
L 27.796875 17 
L 27.796875 7.1875 
C 27.796875 3.59375 27.59375 2.59375 20.59375 2.59375 
L 18.703125 2.59375 
L 18.703125 0 
C 21.90625 0.1875 27.296875 0.1875 30.703125 0.1875 
C 34.09375 0.1875 39.5 0.1875 42.703125 0 
L 42.703125 2.59375 
L 40.796875 2.59375 
C 33.796875 2.59375 33.59375 3.59375 33.59375 7.1875 
L 33.59375 17 
L 43.796875 17 
L 43.796875 19.59375 
L 33.59375 19.59375 
z
M 28.09375 58.171875 
L 28.09375 19.59375 
L 4 19.59375 
z
" id="CMR17-52"/>
     </defs>
     <use transform="scale(0.996264)" xlink:href="#CMMI12-113"/>
     <use transform="translate(43.251731 -14.943915)scale(0.697382)" xlink:href="#CMR17-52"/>
    </g>
   </g>
   <g id="text_6">
    <!-- ${q}_{5}$ -->
    <g transform="translate(41.706007 274.863119)scale(0.1625 -0.1625)">
     <defs>
      <path d="M 11.40625 58.59375 
C 12.40625 58.1875 16.5 56.890625 20.703125 56.890625 
C 30 56.890625 35.09375 61.890625 38 64.6875 
C 38 65.484375 38 66 37.40625 66 
C 37.296875 66 37.09375 66 36.296875 65.59375 
C 32.796875 64.09375 28.703125 63 23.703125 63 
C 20.703125 63 16.203125 63.359375 11.296875 65.484375 
C 10.203125 66 10 66 9.90625 66 
C 9.40625 66 9.296875 65.890625 9.296875 63.90625 
L 9.296875 34.859375 
C 9.296875 33.015625 9.296875 32.5 10.296875 32.5 
C 10.796875 32.5 11 32.703125 11.5 33.421875 
C 14.703125 38.046875 19.09375 40 24.09375 40 
C 27.59375 40 35.09375 37.734375 35.09375 20.203125 
C 35.09375 16.984375 35.09375 11.1875 32.09375 6.59375 
C 29.59375 2.484375 25.703125 0.390625 21.40625 0.390625 
C 14.796875 0.390625 8.09375 4.984375 6.296875 12.6875 
C 6.703125 12.59375 7.5 12.390625 7.90625 12.390625 
C 9.203125 12.390625 11.703125 13.09375 11.703125 16.1875 
C 11.703125 18.890625 9.796875 20 7.90625 20 
C 5.59375 20 4.09375 18.59375 4.09375 15.796875 
C 4.09375 7.09375 11 -2 21.59375 -2 
C 31.90625 -2 41.703125 6.890625 41.703125 19.796875 
C 41.703125 32.09375 33.90625 41.59375 24.203125 41.59375 
C 19.09375 41.59375 14.796875 39.6875 11.40625 36 
z
" id="CMR17-53"/>
     </defs>
     <use transform="scale(0.996264)" xlink:href="#CMMI12-113"/>
     <use transform="translate(43.251731 -14.943915)scale(0.697382)" xlink:href="#CMR17-53"/>
    </g>
   </g>
   <g id="text_7">
    <!-- ${q}_{6}$ -->
    <g transform="translate(41.706007 320.314118)scale(0.1625 -0.1625)">
     <defs>
      <path d="M 10.59375 34.34375 
C 10.59375 58 21.796875 63.6875 28.296875 63.6875 
C 30.40625 63.6875 35.5 63.265625 37.5 59.09375 
C 35.90625 59.09375 32.90625 59.09375 32.90625 55.59375 
C 32.90625 52.890625 35.09375 52 36.5 52 
C 37.40625 52 40.09375 52.390625 40.09375 55.796875 
C 40.09375 62.296875 35.09375 66 28.203125 66 
C 16.296875 66 3.796875 53.296875 3.796875 31.421875 
C 3.796875 4.015625 15.09375 -2 23.09375 -2 
C 32.796875 -2 42 6.734375 42 20.234375 
C 42 32.828125 33.90625 42 23.703125 42 
C 17.59375 42 13.09375 37.96875 10.59375 30.921875 
z
M 23.09375 0.390625 
C 10.796875 0.390625 10.796875 18.9375 10.796875 22.65625 
C 10.796875 29.90625 14.203125 40.390625 23.5 40.390625 
C 25.203125 40.390625 30.09375 40.390625 33.40625 33.4375 
C 35.203125 29.515625 35.203125 25.375 35.203125 20.34375 
C 35.203125 14.90625 35.203125 10.875 33.09375 6.84375 
C 30.90625 2.703125 27.703125 0.390625 23.09375 0.390625 
z
" id="CMR17-54"/>
     </defs>
     <use transform="scale(0.996264)" xlink:href="#CMMI12-113"/>
     <use transform="translate(43.251731 -14.943915)scale(0.697382)" xlink:href="#CMR17-54"/>
    </g>
   </g>
   <g id="text_8">
    <!-- 0 -->
    <g transform="translate(72.3356 46.798658)scale(0.13 -0.13)">
     <defs>
      <path d="M 43.09375 32.390625 
C 43.09375 38.109375 43 48.75 38.90625 56.984375 
C 34.796875 64.890625 28.203125 67 23.5 67 
C 16.703125 67 10.90625 62.984375 7.90625 56.578125 
C 4.703125 49.859375 3.796875 42.9375 3.796875 32.390625 
C 3.796875 25.171875 4.09375 16.34375 7.703125 8.609375 
C 11.796875 0.09375 18.703125 -2 23.40625 -2 
C 29.59375 -2 35.59375 1.296875 39 8.203125 
C 42.5 15.4375 43.09375 23.359375 43.09375 32.390625 
z
M 23.40625 4.09375 
C 15.796875 4.09375 13.5 12.828125 12.796875 15.734375 
C 11.59375 20.75 11.40625 25.5625 11.40625 33.5 
C 11.40625 39.71875 11.40625 46.75 13.296875 52.265625 
C 15.59375 58.6875 19.59375 60.890625 23.40625 60.890625 
C 30.796875 60.890625 33.203125 53.46875 34 50.859375 
C 35.5 45.546875 35.5 39.3125 35.5 33.5 
C 35.5 24.15625 35.5 4.09375 23.40625 4.09375 
z
" id="CMSS17-48"/>
     </defs>
     <use transform="scale(0.996264)" xlink:href="#CMSS17-48"/>
    </g>
   </g>
   <g id="text_9">
    <!-- 1 -->
    <g transform="translate(72.3356 92.249657)scale(0.13 -0.13)">
     <defs>
      <path d="M 28.40625 67 
L 26.5 67 
C 21.09375 61.703125 14.796875 60.96875 8.40625 60.796875 
L 8.40625 55 
C 11.296875 55.09375 16 55.296875 20.703125 57.390625 
L 20.703125 5.796875 
L 8.90625 5.796875 
L 8.90625 0 
L 40.203125 0 
L 40.203125 5.796875 
L 28.40625 5.796875 
z
" id="CMSS17-49"/>
     </defs>
     <use transform="scale(0.996264)" xlink:href="#CMSS17-49"/>
    </g>
   </g>
   <g id="text_10">
    <!-- P(X) -->
    <g transform="translate(79.880346 69.524157)scale(0.13 -0.13)">
     <defs>
      <path d="M 32.90625 29 
C 44.90625 29 54.703125 38.234375 54.703125 49.046875 
C 54.703125 59.65625 45.296875 69 32.296875 69 
L 8.90625 69 
L 8.90625 0 
L 17.296875 0 
L 17.296875 29 
z
M 30.09375 63.390625 
C 41.703125 63.390625 46.796875 56.21875 46.796875 49.046875 
C 46.796875 42.359375 42.09375 34.796875 30.09375 34.796875 
L 17.09375 34.796875 
L 17.09375 63.390625 
z
" id="CMSS17-80"/>
      <path d="M 25.203125 75 
C 19.796875 69.484375 7.40625 56.671875 7.40625 25.046875 
C 7.40625 -6.6875 19.796875 -19.40625 25.203125 -25 
L 31.296875 -25 
C 19 -12.203125 15 5.71875 15 24.9375 
C 15 44.0625 18.796875 62.078125 31.296875 75 
z
" id="CMSS17-40"/>
      <path d="M 34.59375 36.375 
L 57.203125 69 
L 48 69 
L 30.5 43.140625 
L 12.5 69 
L 2.59375 69 
L 26.40625 36.375 
L 1.296875 0 
L 10.5 0 
L 30.5 30.3125 
L 51.203125 0 
L 61.09375 0 
z
" id="CMSS17-88"/>
      <path d="M 11.296875 -25 
C 16.703125 -19.5 29.09375 -6.6875 29.09375 24.9375 
C 29.09375 56.671875 16.703125 69.375 11.296875 75 
L 5.203125 75 
C 17.5 62.171875 21.5 44.265625 21.5 25.046875 
C 21.5 5.921875 17.703125 -12.09375 5.203125 -25 
z
" id="CMSS17-41"/>
     </defs>
     <use transform="scale(0.996264)" xlink:href="#CMSS17-80"/>
     <use transform="translate(59.735586 0)scale(0.996264)" xlink:href="#CMSS17-40"/>
     <use transform="translate(96.1695 0)scale(0.996264)" xlink:href="#CMSS17-88"/>
     <use transform="translate(158.387355 0)scale(0.996264)" xlink:href="#CMSS17-41"/>
    </g>
   </g>
   <g id="text_11">
    <!-- 0 -->
    <g transform="translate(72.3356 137.700656)scale(0.13 -0.13)">
     <use transform="scale(0.996264)" xlink:href="#CMSS17-48"/>
    </g>
   </g>
   <g id="text_12">
    <!-- 1 -->
    <g transform="translate(72.3356 183.151656)scale(0.13 -0.13)">
     <use transform="scale(0.996264)" xlink:href="#CMSS17-49"/>
    </g>
   </g>
   <g id="text_13">
    <!-- P(X) -->
    <g transform="translate(79.880346 160.426156)scale(0.13 -0.13)">
     <use transform="scale(0.996264)" xlink:href="#CMSS17-80"/>
     <use transform="translate(59.735586 0)scale(0.996264)" xlink:href="#CMSS17-40"/>
     <use transform="translate(96.1695 0)scale(0.996264)" xlink:href="#CMSS17-88"/>
     <use transform="translate(158.387355 0)scale(0.996264)" xlink:href="#CMSS17-41"/>
    </g>
   </g>
   <g id="text_14">
    <!-- 0 -->
    <g transform="translate(133.030865 46.798658)scale(0.13 -0.13)">
     <use transform="scale(0.996264)" xlink:href="#CMSS17-48"/>
    </g>
   </g>
   <g id="text_15">
    <!-- 1 -->
    <g transform="translate(133.030865 92.249657)scale(0.13 -0.13)">
     <use transform="scale(0.996264)" xlink:href="#CMSS17-49"/>
    </g>
   </g>
   <g id="text_16">
    <!-- 2 -->
    <g transform="translate(133.030865 228.602655)scale(0.13 -0.13)">
     <defs>
      <path d="M 25.796875 21.140625 
C 28.59375 24.03125 32.796875 27.515625 35.703125 31 
C 38.5 34.390625 42.203125 39.171875 42.203125 46.140625 
C 42.203125 57.109375 34.796875 67 22.203125 67 
C 12.296875 67 6.59375 60.796875 3.90625 51.125 
L 7.796875 45.75 
C 10 54.8125 13.09375 60.59375 20.90625 60.59375 
C 29.5 60.59375 34.296875 53.609375 34.296875 45.9375 
C 34.296875 36.78125 27.296875 29.703125 22 24.421875 
C 16.09375 18.546875 10.296875 12.578125 4.703125 6.390625 
L 4.703125 0 
L 42.203125 0 
L 42.203125 6.796875 
L 25.203125 6.796875 
C 24 6.796875 22.796875 6.6875 21.59375 6.6875 
L 11.59375 6.6875 
L 11.59375 6.796875 
z
" id="CMSS17-50"/>
     </defs>
     <use transform="scale(0.996264)" xlink:href="#CMSS17-50"/>
    </g>
   </g>
   <g id="text_17">
    <!-- LinRot -->
    <g transform="translate(143.499929 137.700656)scale(0.13 -0.13)">
     <defs>
      <path d="M 26.09375 6.5 
C 24.90625 6.5 23.703125 6.390625 22.5 6.390625 
L 17.203125 6.390625 
L 17.203125 69 
L 8.796875 69 
L 8.796875 0 
L 46.90625 0 
L 46.90625 6.5 
z
" id="CMSS17-76"/>
      <path d="M 15.296875 66 
L 6.90625 66 
L 6.90625 57.59375 
L 15.296875 57.59375 
z
M 14.796875 43 
L 7.40625 43 
L 7.40625 0 
L 14.796875 0 
z
" id="CMSS17-105"/>
      <path d="M 40.90625 29.34375 
C 40.90625 35.671875 39.40625 44 28.09375 44 
C 21.703125 44 17.5 40.6875 14.703125 37.28125 
L 14.703125 43.484375 
L 7.40625 43.484375 
L 7.40625 0 
L 15 0 
L 15 24.3125 
C 15 30.65625 17.40625 37.890625 24.203125 37.890625 
C 33 37.890625 33.296875 31.953125 33.296875 28.53125 
L 33.296875 0 
L 40.90625 0 
z
" id="CMSS17-110"/>
      <path d="M 39.40625 32.796875 
L 39.59375 32.890625 
C 55.203125 38.28125 55.296875 48.828125 55.296875 50.6875 
C 55.296875 59.96875 45.703125 69 31.296875 69 
L 8.90625 69 
L 8.90625 0 
L 17.09375 0 
L 17.09375 31.890625 
L 31.796875 31.890625 
L 49.5 0 
L 57.90625 0 
z
M 17.09375 38 
L 17.09375 63.390625 
L 30.203125 63.390625 
C 42.90625 63.390625 47.40625 56.359375 47.40625 50.6875 
C 47.40625 45.421875 43.40625 38 30.203125 38 
z
" id="CMSS17-82"/>
      <path d="M 44.203125 21.1875 
C 44.203125 33.984375 34.703125 44 23.5 44 
C 12 44 2.703125 33.6875 2.703125 21.1875 
C 2.703125 8.5 12.296875 -1 23.40625 -1 
C 34.796875 -1 44.203125 8.796875 44.203125 21.1875 
z
M 23.5 5.296875 
C 16.40625 5.296875 10.296875 11.09375 10.296875 21.984375 
C 10.296875 33.59375 17.40625 37.890625 23.40625 37.890625 
C 29.90625 37.890625 36.59375 33.1875 36.59375 21.984375 
C 36.59375 10.6875 30.09375 5.296875 23.5 5.296875 
z
" id="CMSS17-111"/>
      <path d="M 16.703125 37.1875 
L 29.703125 37.1875 
L 29.703125 43 
L 16.703125 43 
L 16.703125 55 
L 9.59375 55 
L 9.59375 43 
L 1.703125 43 
L 1.703125 37.1875 
L 9.40625 37.1875 
L 9.40625 11.734375 
C 9.40625 6 10.703125 -1 17.296875 -1 
C 22.296875 -1 26.90625 0.390625 31.296875 2.6875 
L 29.703125 8.609375 
C 27.296875 6.5 24.40625 5.296875 21.296875 5.296875 
C 16.90625 5.296875 16.703125 10.921875 16.703125 13.4375 
z
" id="CMSS17-116"/>
     </defs>
     <use transform="scale(0.996264)" xlink:href="#CMSS17-76"/>
     <use transform="translate(50.687105 0)scale(0.996264)" xlink:href="#CMSS17-105"/>
     <use transform="translate(72.867828 0)scale(0.996264)" xlink:href="#CMSS17-110"/>
     <use transform="translate(121.072772 0)scale(0.996264)" xlink:href="#CMSS17-82"/>
     <use transform="translate(181.488926 0)scale(0.996264)" xlink:href="#CMSS17-111"/>
     <use transform="translate(228.33255 0)scale(0.996264)" xlink:href="#CMSS17-116"/>
    </g>
   </g>
   <g id="text_18">
    <!-- 0 -->
    <g transform="translate(223.932863 137.700656)scale(0.13 -0.13)">
     <use transform="scale(0.996264)" xlink:href="#CMSS17-48"/>
    </g>
   </g>
   <g id="text_19">
    <!-- 1 -->
    <g transform="translate(223.932863 183.151656)scale(0.13 -0.13)">
     <use transform="scale(0.996264)" xlink:href="#CMSS17-49"/>
    </g>
   </g>
   <g id="text_20">
    <!-- 2 -->
    <g transform="translate(223.932863 228.602655)scale(0.13 -0.13)">
     <use transform="scale(0.996264)" xlink:href="#CMSS17-50"/>
    </g>
   </g>
   <g id="text_21">
    <!-- LinRot -->
    <g transform="translate(234.401928 183.151656)scale(0.13 -0.13)">
     <use transform="scale(0.996264)" xlink:href="#CMSS17-76"/>
     <use transform="translate(50.687105 0)scale(0.996264)" xlink:href="#CMSS17-105"/>
     <use transform="translate(72.867828 0)scale(0.996264)" xlink:href="#CMSS17-110"/>
     <use transform="translate(121.072772 0)scale(0.996264)" xlink:href="#CMSS17-82"/>
     <use transform="translate(181.488926 0)scale(0.996264)" xlink:href="#CMSS17-111"/>
     <use transform="translate(228.33255 0)scale(0.996264)" xlink:href="#CMSS17-116"/>
    </g>
   </g>
   <g id="text_22">
    <!-- 0 -->
    <g transform="translate(314.834862 46.798658)scale(0.13 -0.13)">
     <use transform="scale(0.996264)" xlink:href="#CMSS17-48"/>
    </g>
   </g>
   <g id="text_23">
    <!-- 1 -->
    <g transform="translate(314.834862 92.249657)scale(0.13 -0.13)">
     <use transform="scale(0.996264)" xlink:href="#CMSS17-49"/>
    </g>
   </g>
   <g id="text_24">
    <!-- 2 -->
    <g transform="translate(314.834862 274.053655)scale(0.13 -0.13)">
     <use transform="scale(0.996264)" xlink:href="#CMSS17-50"/>
    </g>
   </g>
   <g id="text_25">
    <!-- LinRot -->
    <g transform="translate(325.303926 160.426156)scale(0.13 -0.13)">
     <use transform="scale(0.996264)" xlink:href="#CMSS17-76"/>
     <use transform="translate(50.687105 0)scale(0.996264)" xlink:href="#CMSS17-105"/>
     <use transform="translate(72.867828 0)scale(0.996264)" xlink:href="#CMSS17-110"/>
     <use transform="translate(121.072772 0)scale(0.996264)" xlink:href="#CMSS17-82"/>
     <use transform="translate(181.488926 0)scale(0.996264)" xlink:href="#CMSS17-111"/>
     <use transform="translate(228.33255 0)scale(0.996264)" xlink:href="#CMSS17-116"/>
    </g>
   </g>
   <g id="text_26">
    <!-- 0 -->
    <g transform="translate(405.736861 137.700656)scale(0.13 -0.13)">
     <use transform="scale(0.996264)" xlink:href="#CMSS17-48"/>
    </g>
   </g>
   <g id="text_27">
    <!-- 1 -->
    <g transform="translate(405.736861 183.151656)scale(0.13 -0.13)">
     <use transform="scale(0.996264)" xlink:href="#CMSS17-49"/>
    </g>
   </g>
   <g id="text_28">
    <!-- 2 -->
    <g transform="translate(405.736861 274.053655)scale(0.13 -0.13)">
     <use transform="scale(0.996264)" xlink:href="#CMSS17-50"/>
    </g>
   </g>
   <g id="text_29">
    <!-- LinRot -->
    <g transform="translate(416.205925 205.877155)scale(0.13 -0.13)">
     <use transform="scale(0.996264)" xlink:href="#CMSS17-76"/>
     <use transform="translate(50.687105 0)scale(0.996264)" xlink:href="#CMSS17-105"/>
     <use transform="translate(72.867828 0)scale(0.996264)" xlink:href="#CMSS17-110"/>
     <use transform="translate(121.072772 0)scale(0.996264)" xlink:href="#CMSS17-82"/>
     <use transform="translate(181.488926 0)scale(0.996264)" xlink:href="#CMSS17-111"/>
     <use transform="translate(228.33255 0)scale(0.996264)" xlink:href="#CMSS17-116"/>
    </g>
   </g>
   <g id="text_30">
    <!-- 0 -->
    <g transform="translate(496.63886 46.798658)scale(0.13 -0.13)">
     <use transform="scale(0.996264)" xlink:href="#CMSS17-48"/>
    </g>
   </g>
   <g id="text_31">
    <!-- 1 -->
    <g transform="translate(496.63886 92.249657)scale(0.13 -0.13)">
     <use transform="scale(0.996264)" xlink:href="#CMSS17-49"/>
    </g>
   </g>
   <g id="text_32">
    <!-- 2 -->
    <g transform="translate(496.63886 319.504654)scale(0.13 -0.13)">
     <use transform="scale(0.996264)" xlink:href="#CMSS17-50"/>
    </g>
   </g>
   <g id="text_33">
    <!-- LinRot -->
    <g transform="translate(507.107924 183.151656)scale(0.13 -0.13)">
     <use transform="scale(0.996264)" xlink:href="#CMSS17-76"/>
     <use transform="translate(50.687105 0)scale(0.996264)" xlink:href="#CMSS17-105"/>
     <use transform="translate(72.867828 0)scale(0.996264)" xlink:href="#CMSS17-110"/>
     <use transform="translate(121.072772 0)scale(0.996264)" xlink:href="#CMSS17-82"/>
     <use transform="translate(181.488926 0)scale(0.996264)" xlink:href="#CMSS17-111"/>
     <use transform="translate(228.33255 0)scale(0.996264)" xlink:href="#CMSS17-116"/>
    </g>
   </g>
   <g id="text_34">
    <!-- 0 -->
    <g transform="translate(587.540859 137.700656)scale(0.13 -0.13)">
     <use transform="scale(0.996264)" xlink:href="#CMSS17-48"/>
    </g>
   </g>
   <g id="text_35">
    <!-- 1 -->
    <g transform="translate(587.540859 183.151656)scale(0.13 -0.13)">
     <use transform="scale(0.996264)" xlink:href="#CMSS17-49"/>
    </g>
   </g>
   <g id="text_36">
    <!-- 2 -->
    <g transform="translate(587.540859 319.504654)scale(0.13 -0.13)">
     <use transform="scale(0.996264)" xlink:href="#CMSS17-50"/>
    </g>
   </g>
   <g id="text_37">
    <!-- LinRot -->
    <g transform="translate(598.009923 228.602655)scale(0.13 -0.13)">
     <use transform="scale(0.996264)" xlink:href="#CMSS17-76"/>
     <use transform="translate(50.687105 0)scale(0.996264)" xlink:href="#CMSS17-105"/>
     <use transform="translate(72.867828 0)scale(0.996264)" xlink:href="#CMSS17-110"/>
     <use transform="translate(121.072772 0)scale(0.996264)" xlink:href="#CMSS17-82"/>
     <use transform="translate(181.488926 0)scale(0.996264)" xlink:href="#CMSS17-111"/>
     <use transform="translate(228.33255 0)scale(0.996264)" xlink:href="#CMSS17-116"/>
    </g>
   </g>
  </g>
 </g>
 <defs>
  <clipPath id="pc15b6eb0f6">
   <rect height="336.337396" width="656.244028" x="7.2" y="7.2"/>
  </clipPath>
 </defs>
</svg>
